<svg width="32" height="32" viewBox="0 0 32 32" fill="none" xmlns="http://www.w3.org/2000/svg">
<path fill-rule="evenodd" clip-rule="evenodd" d="M19.408 18.4C20.624 17.296 22.152 16.184 23.992 15.064L22.744 13.552C20.008 15.36 18.024 17.12 16.792 18.832C16.92 17.392 16.984 16.008 16.984 14.68V6.16H15.064V14.68C15.064 16.008 15.128 17.392 15.256 18.832C14.024 17.12 12.04 15.36 9.30403 13.552L8.05603 15.064C9.89603 16.184 11.416 17.296 12.616 18.4C13.832 19.488 14.944 20.736 15.952 22.144H16.096C17.104 20.736 18.208 19.488 19.408 18.4ZM24 23H8V25H24V23Z" fill="#2A384D"/>
</svg>
