<svg width="32" height="32" viewBox="0 0 32 32" fill="none" xmlns="http://www.w3.org/2000/svg">
<path d="M23.992 17.064C22.152 18.184 20.624 19.296 19.408 20.4C18.208 21.488 17.104 22.736 16.096 24.144H15.952C14.944 22.736 13.832 21.488 12.616 20.4C11.416 19.296 9.89603 18.184 8.05603 17.064L9.30403 15.552C12.04 17.36 14.024 19.12 15.256 20.832C15.128 19.392 15.064 18.008 15.064 16.68V8.16H16.984V16.68C16.984 18.008 16.92 19.392 16.792 20.832C18.024 19.12 20.008 17.36 22.744 15.552L23.992 17.064Z" fill="#2A384D"/>
</svg>
