<svg width="32" height="32" viewBox="0 0 32 32" fill="none" xmlns="http://www.w3.org/2000/svg">
<path d="M14.936 23.992C13.816 22.152 12.704 20.624 11.6 19.408C10.512 18.208 9.26396 17.104 7.85596 16.096L7.85596 15.952C9.26396 14.944 10.512 13.832 11.6 12.616C12.704 11.416 13.816 9.896 14.936 8.056L16.448 9.304C14.64 12.04 12.88 14.024 11.168 15.256C12.608 15.128 13.992 15.064 15.32 15.064L23.84 15.064V16.984H15.32C13.992 16.984 12.608 16.92 11.168 16.792C12.88 18.024 14.64 20.008 16.448 22.744L14.936 23.992Z" fill="#2A384D"/>
</svg>
