<svg width="32" height="32" viewBox="0 0 32 32" fill="none" xmlns="http://www.w3.org/2000/svg">
<path d="M17.064 8.008C18.184 9.84799 19.296 11.376 20.4 12.592C21.488 13.792 22.736 14.896 24.144 15.904V16.048C22.736 17.056 21.488 18.168 20.4 19.384C19.296 20.584 18.184 22.104 17.064 23.944L15.552 22.696C17.36 19.96 19.12 17.976 20.832 16.744C19.392 16.872 18.008 16.936 16.68 16.936H8.16003L8.16003 15.016L16.68 15.016C18.008 15.016 19.392 15.08 20.832 15.208C19.12 13.976 17.36 11.992 15.552 9.256L17.064 8.008Z" fill="#2A384D"/>
</svg>
