<svg width="32" height="32" viewBox="0 0 32 32" fill="none" xmlns="http://www.w3.org/2000/svg">
<path d="M22 9.96C21.632 12.296 21.448 14.408 21.448 16.296C21.448 18.008 21.584 19.656 21.856 21.24L19.984 21.432C19.792 20.232 19.696 18.944 19.696 17.568C19.696 15.808 19.84 14.224 20.128 12.816C19.072 14.048 18.144 15.056 17.344 15.84L11.32 21.864L9.97595 20.52L16 14.496C16.784 13.696 17.792 12.768 19.024 11.712C17.6 12 16.016 12.144 14.272 12.144C12.896 12.144 11.608 12.048 10.408 11.856L10.6 9.984C12.184 10.256 13.832 10.392 15.544 10.392C17.432 10.392 19.544 10.208 21.88 9.84L22 9.96Z" fill="#2A384D"/>
</svg>
