<svg width="32" height="32" viewBox="0 0 32 32" fill="none" xmlns="http://www.w3.org/2000/svg">
<path d="M8.00806 14.936C9.84806 13.816 11.3761 12.704 12.5921 11.6C13.7921 10.512 14.8961 9.264 15.9041 7.856L16.0481 7.856C17.0561 9.264 18.1681 10.512 19.3841 11.6C20.5841 12.704 22.1041 13.816 23.9441 14.936L22.6961 16.448C19.9601 14.64 17.9761 12.88 16.7441 11.168C16.8721 12.608 16.9361 13.992 16.9361 15.32L16.9361 23.84H15.0161L15.0161 15.32C15.0161 13.992 15.0801 12.608 15.2081 11.168C13.9761 12.88 11.9921 14.64 9.25606 16.448L8.00806 14.936Z" fill="#2A384D"/>
</svg>
