<svg width="32" height="32" viewBox="0 0 32 32" fill="none" xmlns="http://www.w3.org/2000/svg">
<circle cx="16" cy="16" r="16" fill="#0062FF"/>
<path d="M11.4364 10H14.3458V18.1219C14.3458 18.8753 14.1657 19.5474 13.8055 20.1382C13.4508 20.729 12.9521 21.187 12.3092 21.5122C11.6719 21.8374 10.9598 22 10.1729 22C8.85398 22 7.82876 21.6748 7.09726 21.0244C6.36575 20.374 6 19.4526 6 18.2602H8.92602C8.92602 18.8022 9.02023 19.1951 9.20865 19.439C9.4026 19.6829 9.72402 19.8049 10.1729 19.8049C10.5774 19.8049 10.8878 19.6585 11.1039 19.3659C11.3256 19.0677 11.4364 18.6531 11.4364 18.1219V10Z" fill="white"/>
<path d="M20.6218 15.1382L22.8495 10H26L22.1014 17.5854V21.8374H19.1421V17.5854L15.2519 10H18.3857L20.6218 15.1382Z" fill="white"/>
</svg>
