<?xml version="1.0" encoding="utf-8"?>
<!-- Generator: Adobe Illustrator 24.1.2, SVG Export Plug-In . SVG Version: 6.00 Build 0)  -->
<svg version="1.1" id="Layer_1" xmlns="http://www.w3.org/2000/svg" xmlns:xlink="http://www.w3.org/1999/xlink" x="0px" y="0px"
	 viewBox="0 0 793.2 468.9" style="enable-background:new 0 0 793.2 468.9;" xml:space="preserve">
<style type="text/css">
	.st0{fill:#2A384D;}
	.st1{fill:none;stroke:#2A384D;stroke-miterlimit:10;}
	.st2{fill:#0062FF;}
	.st3{fill-rule:evenodd;clip-rule:evenodd;fill-opacity:0;}
	.st4{clip-path:url(#SVGID_2_);enable-background:new    ;}
	.st5{fill-rule:evenodd;clip-rule:evenodd;fill:#284259;}
	.st6{fill-rule:evenodd;clip-rule:evenodd;fill:#007EE6;}
	.st7{opacity:0.5;fill:#2A384D;}
</style>
<path class="st0" d="M323.2,170.9c0.9,0,1.8,0.2,2.4,0.5c0.7,0.3,1.2,0.8,1.6,1.4c0.4,0.6,0.6,1.3,0.6,2.1s-0.2,1.5-0.6,2.1
	s-0.9,1.1-1.6,1.4c-0.7,0.3-1.5,0.5-2.4,0.5h-2.6v4.4H318V171L323.2,170.9L323.2,170.9z M322.8,176.8c0.8,0,1.3-0.2,1.7-0.5
	c0.4-0.3,0.6-0.8,0.6-1.5c0-0.6-0.2-1.1-0.6-1.5c-0.4-0.3-1-0.5-1.7-0.5h-2.2v3.9h2.2V176.8z M333.9,183.4c-1,0-1.8-0.2-2.6-0.6
	c-0.7-0.4-1.3-0.9-1.7-1.7c-0.4-0.7-0.6-1.6-0.6-2.6s0.2-1.9,0.6-2.6c0.4-0.7,0.9-1.3,1.7-1.7c0.7-0.4,1.5-0.6,2.5-0.6
	c0.9,0,1.7,0.2,2.4,0.6c0.7,0.4,1.2,0.9,1.5,1.5c0.4,0.6,0.5,1.4,0.5,2.2c0,0.2,0,0.5,0,0.7s0,0.4,0,0.6h-7.4v-1.8h6.3l-1.2,0.5
	c0-0.8-0.2-1.4-0.5-1.8c-0.4-0.4-0.9-0.6-1.5-0.6c-0.5,0-0.9,0.1-1.2,0.3c-0.3,0.2-0.6,0.5-0.8,1c-0.2,0.4-0.2,1-0.2,1.7
	s0.1,1.2,0.3,1.6c0.2,0.4,0.5,0.7,0.8,1c0.4,0.2,0.8,0.3,1.3,0.3s1-0.1,1.3-0.3s0.6-0.5,0.8-0.9l2,0.8c-0.2,0.5-0.5,0.9-0.9,1.2
	s-0.9,0.6-1.4,0.8C335.1,183.3,334.5,183.4,333.9,183.4z M340.3,183.2v-9.3h2.2l0.2,1.8c0.2-0.6,0.6-1.1,1.1-1.5s1.1-0.5,1.8-0.5
	c0.2,0,0.4,0,0.6,0.1c0.2,0,0.3,0.1,0.4,0.1l-0.3,2.2c-0.1-0.1-0.3-0.1-0.5-0.1s-0.4,0-0.7,0c-0.4,0-0.7,0.1-1.1,0.3
	c-0.3,0.2-0.6,0.4-0.9,0.8c-0.2,0.4-0.3,0.8-0.3,1.4v4.8h-2.5V183.2z M351.7,183.4c-0.9,0-1.8-0.2-2.6-0.5c-0.8-0.3-1.4-0.8-1.9-1.4
	l1.5-1.5c0.3,0.4,0.7,0.8,1.2,1.1s1.1,0.4,1.8,0.4c0.5,0,0.9-0.1,1.2-0.2c0.3-0.1,0.4-0.4,0.4-0.7c0-0.2-0.1-0.4-0.2-0.5
	s-0.4-0.3-0.8-0.3l-1.6-0.3c-1.1-0.2-1.9-0.6-2.3-1c-0.4-0.5-0.7-1-0.7-1.8c0-0.5,0.2-1,0.5-1.4s0.8-0.8,1.4-1.1s1.4-0.4,2.3-0.4
	s1.8,0.1,2.4,0.4c0.7,0.3,1.2,0.7,1.6,1.3l-1.5,1.5c-0.3-0.4-0.6-0.8-1.1-1c-0.4-0.2-0.9-0.3-1.4-0.3c-0.4,0-0.7,0-0.9,0.1
	c-0.2,0.1-0.4,0.2-0.5,0.3s-0.2,0.3-0.2,0.5s0.1,0.4,0.2,0.5c0.2,0.1,0.5,0.3,1,0.4l1.9,0.4c0.9,0.2,1.6,0.5,2,1
	c0.4,0.4,0.6,1,0.6,1.6s-0.2,1.1-0.5,1.6s-0.8,0.8-1.4,1.1C353.4,183.3,352.6,183.4,351.7,183.4z M362.1,173.7
	c0.9,0,1.8,0.2,2.5,0.6c0.7,0.4,1.3,0.9,1.7,1.7c0.4,0.7,0.6,1.6,0.6,2.6s-0.2,1.9-0.6,2.6c-0.4,0.7-1,1.3-1.7,1.7s-1.5,0.6-2.5,0.6
	c-0.9,0-1.8-0.2-2.5-0.6c-0.7-0.4-1.3-0.9-1.7-1.7c-0.4-0.7-0.6-1.6-0.6-2.6s0.2-1.9,0.6-2.6c0.4-0.7,1-1.3,1.7-1.7
	S361.2,173.7,362.1,173.7z M362.1,175.6c-0.5,0-0.9,0.1-1.2,0.3c-0.3,0.2-0.6,0.5-0.8,1c-0.2,0.4-0.3,1-0.3,1.6
	c0,0.7,0.1,1.2,0.3,1.7c0.2,0.4,0.4,0.8,0.8,1c0.3,0.2,0.7,0.3,1.2,0.3s0.9-0.1,1.2-0.3s0.6-0.5,0.8-1c0.2-0.4,0.3-1,0.3-1.7
	s-0.1-1.2-0.3-1.6c-0.2-0.4-0.4-0.8-0.8-1S362.6,175.6,362.1,175.6z M369,183.2v-9.3h2.3l0.1,2.8l-0.3-0.3c0.1-0.6,0.4-1.1,0.7-1.5
	c0.3-0.4,0.7-0.7,1.2-0.9s1-0.3,1.5-0.3c0.6,0,1.2,0.1,1.7,0.4c0.5,0.2,0.9,0.6,1.2,1.1c0.3,0.5,0.4,1.1,0.4,1.9v6.1h-2.6v-5.4
	c0-0.8-0.2-1.3-0.5-1.6s-0.7-0.5-1.2-0.5c-0.4,0-0.7,0.1-1,0.2c-0.3,0.2-0.6,0.4-0.8,0.8c-0.2,0.4-0.3,0.9-0.3,1.5v4.9H369V183.2z"
	/>
<path class="st0" d="M434.1,201.8v12.3h-2.3v-6.4l0.1-3.6l0,0l-3.4,10h-2.1l-3.4-10l0,0l0.1,3.6v6.4h-2.3v-12.3h3.7l2.2,6.7l0.8,2.8
	l0,0l0.8-2.8l2.2-6.7H434.1z M441.2,214.3c-1,0-1.8-0.2-2.6-0.6c-0.7-0.4-1.3-0.9-1.7-1.7c-0.4-0.7-0.6-1.6-0.6-2.6s0.2-1.9,0.6-2.6
	c0.4-0.7,0.9-1.3,1.7-1.7c0.7-0.4,1.5-0.6,2.5-0.6c0.9,0,1.7,0.2,2.4,0.6c0.7,0.4,1.2,0.9,1.5,1.5c0.4,0.6,0.5,1.4,0.5,2.2
	c0,0.2,0,0.5,0,0.7s0,0.4,0,0.6h-7.4v-1.8h6.3l-1.2,0.5c0-0.8-0.2-1.4-0.5-1.8c-0.4-0.4-0.9-0.6-1.5-0.6c-0.5,0-0.9,0.1-1.2,0.3
	c-0.3,0.2-0.6,0.5-0.8,1c-0.2,0.4-0.2,1-0.2,1.7s0.1,1.2,0.3,1.6c0.2,0.4,0.5,0.7,0.8,1c0.4,0.2,0.8,0.3,1.3,0.3s1-0.1,1.3-0.3
	s0.6-0.5,0.8-0.9l2,0.8c-0.2,0.5-0.5,0.9-0.9,1.2s-0.9,0.6-1.4,0.8C442.5,214.2,441.9,214.3,441.2,214.3z M452,214.3
	c-1,0-1.8-0.2-2.6-0.6c-0.7-0.4-1.3-0.9-1.7-1.7c-0.4-0.7-0.6-1.6-0.6-2.6s0.2-1.9,0.6-2.6c0.4-0.7,0.9-1.3,1.7-1.7
	c0.7-0.4,1.5-0.6,2.5-0.6c0.9,0,1.7,0.2,2.4,0.6c0.7,0.4,1.2,0.9,1.5,1.5c0.4,0.6,0.5,1.4,0.5,2.2c0,0.2,0,0.5,0,0.7s0,0.4,0,0.6
	h-7.4v-1.8h6.3l-1.2,0.5c0-0.8-0.2-1.4-0.5-1.8c-0.4-0.4-0.9-0.6-1.5-0.6c-0.5,0-0.9,0.1-1.2,0.3c-0.3,0.2-0.6,0.5-0.8,1
	c-0.2,0.4-0.2,1-0.2,1.7s0.1,1.2,0.3,1.6c0.2,0.4,0.5,0.7,0.8,1c0.4,0.2,0.8,0.3,1.3,0.3s1-0.1,1.3-0.3s0.6-0.5,0.8-0.9l2,0.8
	c-0.2,0.5-0.5,0.9-0.9,1.2s-0.9,0.6-1.4,0.8C453.3,214.2,452.7,214.3,452,214.3z M461.6,201.9v9.1c0,0.4,0.1,0.8,0.3,1
	c0.2,0.2,0.5,0.3,1,0.3c0.3,0,0.6,0,0.8-0.1c0.2-0.1,0.4-0.2,0.6-0.4l0.4,1.7c-0.3,0.2-0.7,0.4-1.1,0.6c-0.4,0.1-0.9,0.2-1.4,0.2
	c-0.6,0-1.2-0.1-1.7-0.3s-0.9-0.5-1.1-0.9c-0.3-0.4-0.4-1-0.4-1.6v-8.8L461.6,201.9z M464.6,204.8v1.9h-7.2v-1.9H464.6z
	 M467.6,203.4c-0.5,0-0.9-0.1-1.2-0.3c-0.3-0.2-0.4-0.6-0.4-1c0-0.5,0.1-0.8,0.4-1s0.7-0.3,1.2-0.3s0.9,0.1,1.2,0.3
	c0.3,0.2,0.4,0.6,0.4,1s-0.1,0.8-0.4,1C468.6,203.3,468.2,203.4,467.6,203.4z M468.9,204.8v9.3h-2.6v-9.3H468.9z M471.6,214.1v-9.3
	h2.3l0.1,2.8l-0.3-0.3c0.1-0.6,0.4-1.1,0.7-1.5c0.3-0.4,0.7-0.7,1.2-0.9s1-0.3,1.5-0.3c0.6,0,1.2,0.1,1.7,0.4
	c0.5,0.2,0.9,0.6,1.2,1.1c0.3,0.5,0.4,1.1,0.4,1.9v6.1h-2.6v-5.4c0-0.8-0.2-1.3-0.5-1.6s-0.7-0.5-1.2-0.5c-0.4,0-0.7,0.1-1,0.2
	c-0.3,0.2-0.6,0.4-0.8,0.8c-0.2,0.4-0.3,0.9-0.3,1.5v4.9h-2.4V214.1z M491.8,202.5l0.3,1.8c-0.1,0-0.1,0-0.2,0c-0.1,0-0.1,0-0.2,0
	c-0.6,0-1,0.1-1.3,0.4c-0.3,0.2-0.4,0.6-0.4,1l-1-0.4c0-0.5,0.1-1,0.3-1.4c0.2-0.4,0.5-0.8,0.9-1c0.4-0.3,0.9-0.4,1.4-0.4h0.1
	C491.7,202.5,491.7,202.5,491.8,202.5z M488.7,212.3c1,0,1.8,0.2,2.3,0.7c0.6,0.4,0.8,1,0.8,1.8c0,0.7-0.2,1.3-0.6,1.8
	c-0.4,0.5-1,0.9-1.7,1.1c-0.7,0.3-1.6,0.4-2.6,0.4c-1.6,0-2.8-0.2-3.5-0.7s-1.1-1-1.1-1.8c0-0.5,0.2-0.9,0.6-1.3
	c0.4-0.3,1.1-0.5,2-0.6l-0.1,0.3c-0.6-0.1-1.1-0.3-1.5-0.6s-0.5-0.8-0.5-1.3c0-0.6,0.2-1,0.7-1.4c0.4-0.4,1.1-0.6,1.8-0.7l1.1,0.5
	h-0.3c-0.5,0-0.9,0.1-1.1,0.3s-0.3,0.4-0.3,0.6c0,0.3,0.1,0.5,0.3,0.6c0.2,0.1,0.5,0.2,0.9,0.2L488.7,212.3L488.7,212.3z M487,216.3
	c0.6,0,1.2-0.1,1.6-0.2c0.4-0.1,0.7-0.2,0.9-0.4s0.3-0.4,0.3-0.6c0-0.2-0.1-0.4-0.3-0.6c-0.2-0.1-0.5-0.2-1-0.2h-3.2
	c-0.3,0-0.6,0.1-0.8,0.2c-0.2,0.2-0.3,0.4-0.3,0.6c0,0.3,0.2,0.6,0.7,0.8C485.5,216.2,486.2,216.3,487,216.3z M487,204.6
	c0.9,0,1.6,0.1,2.2,0.4c0.6,0.2,1.1,0.6,1.5,1.1c0.3,0.5,0.5,1,0.5,1.7c0,0.6-0.2,1.2-0.5,1.7s-0.8,0.8-1.5,1.1
	c-0.6,0.2-1.4,0.4-2.2,0.4c-1.4,0-2.4-0.3-3.2-0.8c-0.7-0.6-1.1-1.3-1.1-2.3c0-0.7,0.2-1.2,0.5-1.7c0.4-0.5,0.8-0.8,1.5-1.1
	C485.4,204.7,486.1,204.6,487,204.6z M487,206.2c-0.5,0-0.9,0.1-1.2,0.4c-0.3,0.3-0.5,0.7-0.5,1.1c0,0.5,0.2,0.9,0.5,1.1
	s0.7,0.4,1.2,0.4s0.9-0.1,1.2-0.4c0.3-0.3,0.5-0.7,0.5-1.1c0-0.5-0.2-0.9-0.5-1.1C487.9,206.3,487.5,206.2,487,206.2z M497.2,214.3
	c-0.9,0-1.8-0.2-2.6-0.5s-1.4-0.8-1.9-1.4l1.5-1.5c0.3,0.4,0.7,0.8,1.2,1.1s1.1,0.4,1.8,0.4c0.5,0,0.9-0.1,1.2-0.2
	c0.3-0.1,0.4-0.4,0.4-0.7c0-0.2-0.1-0.4-0.2-0.5c-0.1-0.1-0.4-0.3-0.8-0.3l-1.6-0.3c-1.1-0.2-1.9-0.6-2.3-1c-0.4-0.5-0.7-1-0.7-1.8
	c0-0.5,0.2-1,0.5-1.4s0.8-0.8,1.4-1.1c0.6-0.3,1.4-0.4,2.3-0.4c0.9,0,1.8,0.1,2.4,0.4c0.7,0.3,1.2,0.7,1.6,1.3l-1.5,1.5
	c-0.3-0.4-0.6-0.8-1.1-1c-0.4-0.2-0.9-0.3-1.4-0.3c-0.4,0-0.7,0-0.9,0.1s-0.4,0.2-0.5,0.3s-0.2,0.3-0.2,0.5s0.1,0.4,0.2,0.5
	c0.2,0.1,0.5,0.3,1,0.4l1.9,0.4c0.9,0.2,1.6,0.5,2,1c0.4,0.4,0.6,1,0.6,1.6s-0.2,1.1-0.5,1.6s-0.8,0.8-1.4,1.1
	C498.8,214.1,498,214.3,497.2,214.3z"/>
<path class="st0" d="M546.3,231.1v2.1h-4.1v10.2h-2.6v-10.2h-4.1v-2.1H546.3z M550.5,233.9c0.9,0,1.8,0.2,2.5,0.6
	c0.7,0.4,1.3,0.9,1.7,1.7c0.4,0.7,0.6,1.6,0.6,2.6s-0.2,1.9-0.6,2.6s-1,1.3-1.7,1.7c-0.7,0.4-1.5,0.6-2.5,0.6
	c-0.9,0-1.8-0.2-2.5-0.6s-1.3-0.9-1.7-1.7c-0.4-0.7-0.6-1.6-0.6-2.6s0.2-1.9,0.6-2.6c0.4-0.7,1-1.3,1.7-1.7
	C548.8,234.1,549.6,233.9,550.5,233.9z M550.5,235.8c-0.5,0-0.9,0.1-1.2,0.3c-0.3,0.2-0.6,0.5-0.8,1c-0.2,0.4-0.3,1-0.3,1.6
	c0,0.7,0.1,1.2,0.3,1.7c0.2,0.4,0.4,0.8,0.8,1c0.3,0.2,0.7,0.3,1.2,0.3s0.9-0.1,1.2-0.3c0.3-0.2,0.6-0.5,0.8-1
	c0.2-0.4,0.3-1,0.3-1.7s-0.1-1.2-0.3-1.6s-0.4-0.8-0.8-1C551.4,235.9,551,235.8,550.5,235.8z M557.5,247.4v-13.2h2.3l0.2,3l-0.3-0.3
	c0.1-0.5,0.3-1,0.6-1.4s0.7-0.8,1.2-1s1-0.4,1.6-0.4c0.8,0,1.4,0.2,2,0.6s1.1,0.9,1.4,1.7c0.3,0.7,0.5,1.6,0.5,2.6s-0.2,1.9-0.5,2.6
	s-0.8,1.3-1.4,1.7c-0.6,0.4-1.3,0.6-2.1,0.6s-1.5-0.2-2-0.7s-0.9-1-1.1-1.7l0.2-0.4v6.5h-2.6V247.4z M562.2,241.7
	c0.7,0,1.2-0.2,1.6-0.7c0.4-0.5,0.6-1.2,0.6-2.2c0-0.9-0.2-1.7-0.6-2.1c-0.4-0.5-0.9-0.8-1.6-0.8c-0.4,0-0.8,0.1-1.1,0.4
	c-0.3,0.2-0.6,0.6-0.8,1s-0.3,0.9-0.3,1.5s0.1,1.1,0.2,1.5c0.2,0.4,0.4,0.8,0.8,1C561.4,241.6,561.7,241.7,562.2,241.7z
	 M570.4,232.8c-0.5,0-0.9-0.1-1.2-0.3s-0.4-0.6-0.4-1c0-0.5,0.1-0.8,0.4-1c0.3-0.2,0.7-0.3,1.2-0.3s0.9,0.1,1.2,0.3s0.4,0.6,0.4,1
	s-0.1,0.8-0.4,1C571.4,232.7,571,232.8,570.4,232.8z M571.7,234.1v9.3h-2.6v-9.3H571.7z M578.7,233.9c0.8,0,1.5,0.1,2.1,0.4
	c0.6,0.2,1.1,0.6,1.4,1s0.6,0.9,0.8,1.4l-2.4,0.9c-0.1-0.6-0.3-1-0.6-1.3s-0.7-0.4-1.2-0.4s-0.9,0.1-1.2,0.3s-0.6,0.5-0.8,1
	s-0.3,1-0.3,1.7s0.1,1.2,0.3,1.6s0.4,0.8,0.8,1c0.3,0.2,0.8,0.3,1.2,0.3s0.7-0.1,0.9-0.2c0.3-0.1,0.5-0.3,0.7-0.6s0.3-0.5,0.3-0.9
	l2.3,0.8c-0.1,0.6-0.4,1-0.8,1.5s-0.9,0.8-1.4,1c-0.6,0.2-1.3,0.3-2,0.3c-1,0-1.8-0.2-2.5-0.6s-1.3-0.9-1.7-1.7
	c-0.4-0.7-0.6-1.6-0.6-2.6s0.2-1.9,0.6-2.6c0.4-0.7,1-1.3,1.7-1.7C576.9,234.1,577.7,233.9,578.7,233.9z M588.7,243.6
	c-0.9,0-1.8-0.2-2.6-0.5s-1.4-0.8-1.9-1.4l1.5-1.5c0.3,0.4,0.7,0.8,1.2,1.1c0.5,0.3,1.1,0.4,1.8,0.4c0.5,0,0.9-0.1,1.2-0.2
	s0.4-0.4,0.4-0.7c0-0.2-0.1-0.4-0.2-0.5s-0.4-0.3-0.8-0.3l-1.6-0.3c-1.1-0.2-1.9-0.6-2.3-1c-0.4-0.5-0.7-1-0.7-1.8
	c0-0.5,0.2-1,0.5-1.4s0.8-0.8,1.4-1.1c0.6-0.3,1.4-0.4,2.3-0.4c0.9,0,1.8,0.1,2.4,0.4c0.7,0.3,1.2,0.7,1.6,1.3l-1.5,1.5
	c-0.3-0.4-0.6-0.8-1.1-1c-0.4-0.2-0.9-0.3-1.4-0.3c-0.4,0-0.7,0-0.9,0.1s-0.4,0.2-0.5,0.3c-0.1,0.1-0.2,0.3-0.2,0.5s0.1,0.4,0.2,0.5
	c0.2,0.1,0.5,0.3,1,0.4l1.9,0.4c0.9,0.2,1.6,0.5,2,1c0.4,0.4,0.6,1,0.6,1.6s-0.2,1.1-0.5,1.6s-0.8,0.8-1.4,1.1
	C590.3,243.5,589.6,243.6,588.7,243.6z"/>
<path class="st0" d="M631.7,270.6v12.3h-3l-4.3-7.2l-1.1-2l0,0l0.1,2.1v7.1h-2.3v-12.3h2.9l4.3,7.2l1.1,2l0,0l-0.1-2.1v-7.1H631.7z
	 M638.8,273.4c0.9,0,1.8,0.2,2.5,0.6s1.3,0.9,1.7,1.7c0.4,0.7,0.6,1.6,0.6,2.6s-0.2,1.9-0.6,2.6c-0.4,0.7-1,1.3-1.7,1.7
	c-0.7,0.4-1.5,0.6-2.5,0.6c-0.9,0-1.8-0.2-2.5-0.6s-1.3-0.9-1.7-1.7c-0.4-0.7-0.6-1.6-0.6-2.6s0.2-1.9,0.6-2.6
	c0.4-0.7,1-1.3,1.7-1.7C637.1,273.6,637.9,273.4,638.8,273.4z M638.8,275.3c-0.5,0-0.9,0.1-1.2,0.3c-0.3,0.2-0.6,0.5-0.8,1
	c-0.2,0.4-0.3,1-0.3,1.6c0,0.7,0.1,1.2,0.3,1.7c0.2,0.4,0.4,0.8,0.8,1c0.3,0.2,0.7,0.3,1.2,0.3s0.9-0.1,1.2-0.3s0.6-0.5,0.8-1
	c0.2-0.4,0.3-1,0.3-1.7s-0.1-1.2-0.3-1.6s-0.4-0.8-0.8-1S639.3,275.3,638.8,275.3z M648.9,270.7v9.1c0,0.4,0.1,0.8,0.3,1
	s0.5,0.3,1,0.3c0.3,0,0.6,0,0.8-0.1s0.4-0.2,0.6-0.4l0.4,1.7c-0.3,0.2-0.7,0.4-1.1,0.6c-0.4,0.1-0.9,0.2-1.4,0.2
	c-0.6,0-1.2-0.1-1.7-0.3c-0.5-0.2-0.9-0.5-1.1-0.9c-0.3-0.4-0.4-1-0.4-1.6v-8.8L648.9,270.7z M651.9,273.6v1.9h-7.2v-1.9H651.9z
	 M658,283.1c-1,0-1.8-0.2-2.6-0.6c-0.7-0.4-1.3-0.9-1.7-1.7c-0.4-0.7-0.6-1.6-0.6-2.6s0.2-1.9,0.6-2.6c0.4-0.7,0.9-1.3,1.7-1.7
	c0.7-0.4,1.5-0.6,2.5-0.6c0.9,0,1.7,0.2,2.4,0.6s1.2,0.9,1.5,1.5c0.4,0.6,0.5,1.4,0.5,2.2c0,0.2,0,0.5,0,0.7s0,0.4,0,0.6h-7.4v-1.8
	h6.3l-1.2,0.5c0-0.8-0.2-1.4-0.5-1.8c-0.4-0.4-0.9-0.6-1.5-0.6c-0.5,0-0.9,0.1-1.2,0.3c-0.3,0.2-0.6,0.5-0.8,1
	c-0.2,0.4-0.3,1-0.2,1.7c0,0.7,0.1,1.2,0.3,1.6s0.5,0.7,0.8,1c0.4,0.2,0.8,0.3,1.3,0.3s1-0.1,1.3-0.3c0.3-0.2,0.6-0.5,0.8-0.9l2,0.8
	c-0.2,0.5-0.5,0.9-0.9,1.2c-0.4,0.3-0.9,0.6-1.4,0.8C659.2,283,658.6,283.1,658,283.1z M668.2,283.1c-0.9,0-1.8-0.2-2.6-0.5
	s-1.4-0.8-1.9-1.4l1.5-1.5c0.3,0.4,0.7,0.8,1.2,1.1c0.5,0.3,1.1,0.4,1.8,0.4c0.5,0,0.9-0.1,1.2-0.2s0.4-0.4,0.4-0.7
	c0-0.2-0.1-0.4-0.2-0.5c-0.1-0.1-0.4-0.3-0.8-0.3l-1.6-0.3c-1.1-0.2-1.9-0.6-2.3-1c-0.4-0.5-0.7-1-0.7-1.8c0-0.5,0.2-1,0.5-1.4
	s0.8-0.8,1.4-1.1c0.6-0.3,1.4-0.4,2.3-0.4c0.9,0,1.8,0.1,2.4,0.4c0.7,0.3,1.2,0.7,1.6,1.3l-1.5,1.5c-0.3-0.4-0.6-0.8-1.1-1
	c-0.4-0.2-0.9-0.3-1.4-0.3c-0.4,0-0.7,0-0.9,0.1s-0.4,0.2-0.5,0.3c-0.1,0.1-0.2,0.3-0.2,0.5s0.1,0.4,0.2,0.5c0.2,0.1,0.5,0.3,1,0.4
	l1.9,0.4c0.9,0.2,1.6,0.5,2,1c0.4,0.4,0.6,1,0.6,1.6s-0.2,1.1-0.5,1.6s-0.8,0.8-1.4,1.1C669.8,282.9,669.1,283.1,668.2,283.1z"/>
<path class="st1" d="M350.3,208.8h59.8"/>
<path class="st1" d="M466.6,230.4v7.7h59.3"/>
<path class="st1" d="M566.5,259.8v17.8h44"/>
<path class="st2" d="M327.1,7.2v1.4h-4.3v10.9h-1.5V8.6H317V7.2H327.1z M329.8,8.4c-0.3,0-0.6-0.1-0.8-0.3c-0.2-0.2-0.3-0.5-0.3-0.8
	s0.1-0.6,0.3-0.8c0.2-0.2,0.5-0.3,0.8-0.3s0.6,0.1,0.8,0.3c0.2,0.2,0.3,0.5,0.3,0.8s-0.1,0.6-0.3,0.8C330.4,8.3,330.2,8.4,329.8,8.4
	z M330.6,10.2v9.3h-1.5v-9.3C329.1,10.2,330.6,10.2,330.6,10.2z M334.1,19.5v-9.3h1.3l0.1,1.5c0.3-0.6,0.8-1,1.3-1.2
	c0.5-0.3,1.1-0.4,1.7-0.4c0.7,0,1.3,0.2,1.9,0.5c0.6,0.3,1,0.8,1.3,1.4c0.2-0.4,0.5-0.8,0.8-1c0.4-0.3,0.8-0.5,1.2-0.6
	c0.4-0.1,0.8-0.2,1.2-0.2c0.6,0,1.2,0.1,1.7,0.4c0.5,0.3,1,0.6,1.3,1.2c0.4,0.5,0.5,1.2,0.5,2v6h-1.5V14c0-0.8-0.2-1.4-0.6-1.8
	c-0.4-0.4-0.9-0.6-1.6-0.6c-0.5,0-0.9,0.1-1.4,0.4c-0.4,0.2-0.8,0.6-1,1c-0.2,0.5-0.4,1-0.4,1.7v5.1h-1.5V14c0-0.8-0.2-1.4-0.6-1.8
	c-0.4-0.4-0.9-0.6-1.6-0.6c-0.4,0-0.8,0.1-1.3,0.3c-0.4,0.2-0.8,0.6-1.1,1c-0.3,0.5-0.4,1.1-0.4,1.9v5h-1.3V19.5z M355.7,19.7
	c-0.9,0-1.7-0.2-2.4-0.6c-0.7-0.4-1.2-0.9-1.6-1.7c-0.4-0.7-0.6-1.6-0.6-2.6s0.2-1.9,0.6-2.6c0.4-0.7,0.9-1.3,1.6-1.7
	c0.7-0.4,1.4-0.6,2.3-0.6s1.6,0.2,2.2,0.6c0.6,0.4,1.1,0.9,1.4,1.5s0.5,1.3,0.5,2.1c0,0.2,0,0.4,0,0.6c0,0.2,0,0.3,0,0.5h-7.5v-1.3
	h6.9l-0.8,0.2c0-0.9-0.2-1.6-0.7-2.1s-1.1-0.7-1.9-0.7c-0.6,0-1.1,0.1-1.6,0.4c-0.4,0.3-0.8,0.7-1,1.2s-0.4,1.2-0.4,1.9
	s0.1,1.4,0.4,1.9c0.2,0.5,0.6,0.9,1,1.2c0.5,0.3,1,0.4,1.6,0.4c0.7,0,1.2-0.1,1.7-0.4c0.4-0.3,0.8-0.6,1-1.1l1.2,0.7
	c-0.2,0.4-0.5,0.8-0.9,1.1s-0.8,0.6-1.3,0.7C356.9,19.6,356.3,19.7,355.7,19.7z M364,5.9v11.2c0,0.5,0.1,0.8,0.2,1
	c0.2,0.2,0.5,0.3,0.8,0.3c0.2,0,0.5,0,0.6,0c0.2,0,0.4-0.1,0.7-0.2l-0.2,1.3c-0.2,0.1-0.4,0.2-0.7,0.2c-0.2,0-0.5,0.1-0.7,0.1
	c-0.8,0-1.3-0.2-1.7-0.6c-0.4-0.4-0.5-1-0.5-1.9V5.9H364z M369.1,8.4c-0.3,0-0.6-0.1-0.8-0.3c-0.2-0.2-0.3-0.5-0.3-0.8
	s0.1-0.6,0.3-0.8c0.2-0.2,0.5-0.3,0.8-0.3s0.6,0.1,0.8,0.3c0.2,0.2,0.3,0.5,0.3,0.8s-0.1,0.6-0.3,0.8S369.4,8.4,369.1,8.4z
	 M369.8,10.2v9.3h-1.5v-9.3C368.3,10.2,369.8,10.2,369.8,10.2z M373.3,19.5v-9.3h1.3l0.1,2.1l-0.2-0.2c0.2-0.5,0.5-0.9,0.8-1.2
	s0.7-0.5,1.2-0.7c0.4-0.1,0.9-0.2,1.4-0.2c0.7,0,1.3,0.1,1.8,0.4c0.6,0.3,1,0.6,1.3,1.2c0.3,0.5,0.5,1.2,0.5,2v6H380v-5.5
	c0-1-0.2-1.7-0.7-2.1c-0.4-0.4-1-0.6-1.6-0.6c-0.4,0-0.9,0.1-1.3,0.3s-0.8,0.6-1.1,1c-0.3,0.5-0.4,1.1-0.4,1.9v5h-1.6V19.5z
	 M388.7,19.7c-0.9,0-1.7-0.2-2.4-0.6c-0.7-0.4-1.2-0.9-1.6-1.7c-0.4-0.7-0.6-1.6-0.6-2.6s0.2-1.9,0.6-2.6c0.4-0.7,0.9-1.3,1.6-1.7
	c0.7-0.4,1.4-0.6,2.3-0.6s1.6,0.2,2.2,0.6c0.6,0.4,1.1,0.9,1.4,1.5s0.5,1.3,0.5,2.1c0,0.2,0,0.4,0,0.6c0,0.2,0,0.3,0,0.5h-7.5v-1.3
	h6.9l-0.8,0.2c0-0.9-0.2-1.6-0.7-2.1s-1.1-0.7-1.9-0.7c-0.6,0-1.1,0.1-1.6,0.4c-0.4,0.3-0.8,0.7-1,1.2s-0.4,1.2-0.4,1.9
	s0.1,1.4,0.4,1.9c0.2,0.5,0.6,0.9,1,1.2c0.5,0.3,1,0.4,1.6,0.4c0.7,0,1.2-0.1,1.7-0.4c0.4-0.3,0.8-0.6,1-1.1l1.2,0.7
	c-0.2,0.4-0.5,0.8-0.9,1.1s-0.8,0.6-1.3,0.7C389.9,19.6,389.3,19.7,388.7,19.7z"/>
<path class="st0" d="M423.2,262.6v12.3h-2.6v-12.3H423.2z M426.1,274.9v-9.3h2.3l0.1,2.8l-0.3-0.3c0.1-0.6,0.4-1.1,0.7-1.5
	c0.3-0.4,0.7-0.7,1.2-0.9c0.5-0.2,1-0.3,1.5-0.3c0.6,0,1.2,0.1,1.7,0.4c0.5,0.2,0.9,0.6,1.2,1.1c0.3,0.5,0.4,1.1,0.4,1.9v6.1h-2.6
	v-5.4c0-0.8-0.2-1.3-0.5-1.6c-0.3-0.3-0.7-0.5-1.2-0.5c-0.4,0-0.7,0.1-1,0.2c-0.3,0.2-0.6,0.4-0.8,0.8c-0.2,0.4-0.3,0.9-0.3,1.5v4.9
	L426.1,274.9L426.1,274.9z M441.4,275.1c-0.9,0-1.8-0.2-2.6-0.5c-0.8-0.3-1.4-0.8-1.9-1.4l1.5-1.5c0.3,0.4,0.7,0.8,1.2,1.1
	c0.5,0.3,1.1,0.4,1.8,0.4c0.5,0,0.9-0.1,1.2-0.2c0.3-0.1,0.4-0.4,0.4-0.7c0-0.2-0.1-0.4-0.2-0.5s-0.4-0.3-0.8-0.3l-1.6-0.3
	c-1.1-0.2-1.9-0.6-2.3-1c-0.4-0.5-0.7-1-0.7-1.8c0-0.5,0.2-1,0.5-1.4s0.8-0.8,1.4-1.1c0.6-0.3,1.4-0.4,2.3-0.4s1.8,0.1,2.4,0.4
	c0.7,0.3,1.2,0.7,1.6,1.3l-1.5,1.5c-0.3-0.4-0.6-0.8-1.1-1c-0.4-0.2-0.9-0.3-1.4-0.3c-0.4,0-0.7,0-0.9,0.1c-0.2,0.1-0.4,0.2-0.5,0.3
	c-0.1,0.1-0.2,0.3-0.2,0.5s0.1,0.4,0.2,0.5c0.2,0.1,0.5,0.3,1,0.4l1.9,0.4c0.9,0.2,1.6,0.5,2,1c0.4,0.4,0.6,1,0.6,1.6
	s-0.2,1.1-0.5,1.6s-0.8,0.8-1.4,1.1C443.1,274.9,442.3,275.1,441.4,275.1z M448.9,264.2c-0.5,0-0.9-0.1-1.2-0.3
	c-0.3-0.2-0.4-0.6-0.4-1c0-0.5,0.1-0.8,0.4-1s0.7-0.3,1.2-0.3s0.9,0.1,1.2,0.3c0.3,0.2,0.4,0.6,0.4,1s-0.1,0.8-0.4,1
	C449.8,264.1,449.4,264.2,448.9,264.2z M450.1,265.6v9.3h-2.5v-9.3H450.1z M461.4,263.3l0.3,1.8c-0.1,0-0.1,0-0.2,0s-0.1,0-0.2,0
	c-0.6,0-1,0.1-1.3,0.4c-0.3,0.2-0.4,0.6-0.4,1l-1-0.4c0-0.5,0.1-1,0.3-1.4c0.2-0.4,0.5-0.8,0.9-1c0.4-0.3,0.9-0.4,1.4-0.4h0.1
	C461.4,263.3,461.4,263.3,461.4,263.3z M458.4,273.1c1,0,1.8,0.2,2.3,0.7c0.6,0.4,0.8,1,0.8,1.8c0,0.7-0.2,1.3-0.6,1.8
	s-1,0.9-1.7,1.1s-1.6,0.4-2.6,0.4c-1.6,0-2.8-0.2-3.5-0.7c-0.7-0.4-1.1-1-1.1-1.8c0-0.5,0.2-0.9,0.6-1.3c0.4-0.3,1.1-0.5,2-0.6
	l-0.1,0.3c-0.6-0.1-1.1-0.3-1.5-0.6s-0.5-0.8-0.5-1.3c0-0.6,0.2-1,0.7-1.4c0.4-0.4,1.1-0.6,1.8-0.7l1.1,0.5h-0.3
	c-0.5,0-0.9,0.1-1.1,0.3c-0.2,0.2-0.3,0.4-0.3,0.6c0,0.3,0.1,0.5,0.3,0.6c0.2,0.1,0.5,0.2,0.9,0.2h2.8V273.1z M456.6,277.1
	c0.6,0,1.2-0.1,1.6-0.2s0.7-0.2,0.9-0.4c0.2-0.2,0.3-0.4,0.3-0.6s-0.1-0.4-0.3-0.6c-0.2-0.1-0.5-0.2-1-0.2h-3.2
	c-0.3,0-0.6,0.1-0.8,0.2c-0.2,0.2-0.3,0.4-0.3,0.6c0,0.3,0.2,0.6,0.7,0.8C455.2,277,455.8,277.1,456.6,277.1z M456.7,265.4
	c0.9,0,1.6,0.1,2.2,0.4c0.6,0.2,1.1,0.6,1.5,1.1c0.3,0.5,0.5,1,0.5,1.7c0,0.6-0.2,1.2-0.5,1.7s-0.8,0.8-1.5,1.1
	c-0.6,0.2-1.4,0.4-2.2,0.4c-1.4,0-2.4-0.3-3.2-0.8c-0.7-0.6-1.1-1.3-1.1-2.3c0-0.7,0.2-1.2,0.5-1.7c0.4-0.5,0.8-0.8,1.5-1.1
	C455,265.5,455.8,265.4,456.7,265.4z M456.7,267c-0.5,0-0.9,0.1-1.2,0.4c-0.3,0.3-0.5,0.7-0.5,1.1c0,0.5,0.2,0.9,0.5,1.1
	s0.7,0.4,1.2,0.4s0.9-0.1,1.2-0.4c0.3-0.3,0.5-0.7,0.5-1.1c0-0.5-0.2-0.9-0.5-1.1C457.6,267.1,457.2,267,456.7,267z M463.1,274.9
	v-13.4h2.6v5.7c0.3-0.6,0.7-1,1.2-1.3s1.1-0.4,1.8-0.4c0.6,0,1.2,0.1,1.7,0.4c0.5,0.2,0.9,0.6,1.2,1.1c0.3,0.5,0.4,1.1,0.4,1.9v6.1
	h-2.6v-5.4c0-0.8-0.2-1.4-0.5-1.7c-0.3-0.3-0.7-0.5-1.2-0.5c-0.4,0-0.7,0.1-1,0.2c-0.3,0.2-0.6,0.4-0.8,0.8
	c-0.2,0.4-0.3,0.9-0.3,1.5v4.9L463.1,274.9L463.1,274.9z M477.8,262.7v9.1c0,0.4,0.1,0.8,0.3,1c0.2,0.2,0.5,0.3,1,0.3
	c0.3,0,0.6,0,0.8-0.1s0.4-0.2,0.6-0.4l0.4,1.7c-0.3,0.2-0.7,0.4-1.1,0.6c-0.4,0.1-0.9,0.2-1.4,0.2c-0.6,0-1.2-0.1-1.7-0.3
	s-0.9-0.5-1.1-0.9c-0.3-0.4-0.4-1-0.4-1.6v-8.8L477.8,262.7z M480.8,265.6v1.9h-7.2v-1.9H480.8z M486.3,275.1
	c-0.9,0-1.8-0.2-2.6-0.5c-0.8-0.3-1.4-0.8-1.9-1.4l1.5-1.5c0.3,0.4,0.7,0.8,1.2,1.1c0.5,0.3,1.1,0.4,1.8,0.4c0.5,0,0.9-0.1,1.2-0.2
	c0.3-0.1,0.4-0.4,0.4-0.7c0-0.2-0.1-0.4-0.2-0.5s-0.4-0.3-0.8-0.3l-1.6-0.3c-1.1-0.2-1.9-0.6-2.3-1c-0.4-0.5-0.7-1-0.7-1.8
	c0-0.5,0.2-1,0.5-1.4s0.8-0.8,1.4-1.1c0.6-0.3,1.4-0.4,2.3-0.4s1.8,0.1,2.4,0.4c0.7,0.3,1.2,0.7,1.6,1.3l-1.5,1.5
	c-0.3-0.4-0.6-0.8-1.1-1c-0.4-0.2-0.9-0.3-1.4-0.3c-0.4,0-0.7,0-0.9,0.1c-0.2,0.1-0.4,0.2-0.5,0.3c-0.1,0.1-0.2,0.3-0.2,0.5
	s0.1,0.4,0.2,0.5c0.2,0.1,0.5,0.3,1,0.4l1.9,0.4c0.9,0.2,1.6,0.5,2,1c0.4,0.4,0.6,1,0.6,1.6s-0.2,1.1-0.5,1.6s-0.8,0.8-1.4,1.1
	C488,274.9,487.2,275.1,486.3,275.1z"/>
<path class="st1" d="M350.3,269.6h59.8"/>
<path class="st2" d="M425.1,315.4c1.9,0,3.4,0.5,4.5,1.6s1.7,2.6,1.7,4.6s-0.6,3.5-1.7,4.6s-2.6,1.6-4.5,1.6h-4v-12.3h4V315.4z
	 M425.2,326.3c1.4,0,2.5-0.4,3.3-1.2c0.8-0.8,1.2-2,1.2-3.5s-0.4-2.7-1.2-3.5c-0.8-0.8-1.9-1.3-3.3-1.3h-2.6v9.5H425.2z
	 M438.2,327.9c-0.9,0-1.7-0.2-2.4-0.6c-0.7-0.4-1.2-0.9-1.6-1.7c-0.4-0.7-0.6-1.6-0.6-2.6s0.2-1.9,0.6-2.6s0.9-1.3,1.6-1.7
	c0.7-0.4,1.4-0.6,2.3-0.6s1.6,0.2,2.2,0.6s1.1,0.9,1.4,1.5s0.5,1.3,0.5,2.1c0,0.2,0,0.4,0,0.6s0,0.3,0,0.5h-7.6v-1.3h6.9l-0.8,0.2
	c0-0.9-0.2-1.6-0.7-2.1s-1.1-0.7-1.9-0.7c-0.6,0-1.1,0.1-1.6,0.4c-0.4,0.3-0.8,0.7-1,1.2s-0.4,1.2-0.4,1.9c0,0.7,0.1,1.4,0.4,1.9
	c0.2,0.5,0.6,0.9,1,1.2c0.5,0.3,1,0.4,1.6,0.4c0.7,0,1.2-0.1,1.7-0.4c0.4-0.3,0.8-0.6,1-1.1l1.2,0.7c-0.2,0.4-0.5,0.8-0.9,1.1
	c-0.4,0.3-0.8,0.6-1.3,0.7C439.3,327.8,438.8,327.9,438.2,327.9z M446.9,315.8v9.4c0,0.5,0.1,0.8,0.4,1s0.6,0.3,1,0.3
	s0.7-0.1,0.9-0.2c0.3-0.1,0.5-0.3,0.7-0.5l0.5,1.2c-0.3,0.3-0.6,0.5-1,0.6s-0.8,0.2-1.4,0.2c-0.5,0-0.9-0.1-1.3-0.2
	c-0.4-0.2-0.7-0.4-1-0.8c-0.2-0.4-0.4-0.9-0.4-1.5v-9.2L446.9,315.8z M450.3,318.4v1.3h-6.7v-1.3H450.3z M458,321.7
	c0-0.7-0.2-1.2-0.6-1.6s-0.9-0.6-1.6-0.6c-0.6,0-1.2,0.1-1.6,0.4s-0.8,0.7-1,1.3l-1.2-0.8c0.2-0.7,0.7-1.3,1.4-1.7
	c0.7-0.4,1.5-0.6,2.5-0.6c0.7,0,1.3,0.1,1.8,0.3c0.6,0.2,1,0.6,1.3,1c0.3,0.5,0.5,1.1,0.5,1.8v4.5c0,0.4,0.2,0.7,0.7,0.7
	c0.2,0,0.5,0,0.7-0.1l-0.1,1.2c-0.2,0.1-0.6,0.2-1,0.2s-0.7-0.1-1-0.2s-0.5-0.3-0.7-0.6c-0.2-0.3-0.2-0.6-0.2-1v-0.2h0.4
	c-0.1,0.5-0.4,0.9-0.8,1.2c-0.4,0.3-0.8,0.5-1.2,0.7c-0.4,0.1-0.9,0.2-1.3,0.2c-0.6,0-1.1-0.1-1.5-0.3s-0.8-0.5-1.1-0.8
	c-0.3-0.4-0.4-0.9-0.4-1.4c0-0.7,0.2-1.3,0.7-1.7c0.5-0.5,1.1-0.8,2-0.9l3.7-0.7v1.2l-3,0.6c-0.6,0.1-1.1,0.3-1.4,0.5
	s-0.4,0.5-0.4,0.9s0.2,0.7,0.5,0.9c0.3,0.2,0.7,0.4,1.3,0.4c0.4,0,0.7,0,1-0.1s0.6-0.2,0.9-0.4c0.3-0.2,0.5-0.4,0.6-0.7
	c0.2-0.3,0.2-0.6,0.2-1L458,321.7L458,321.7z M463.9,316.6c-0.3,0-0.6-0.1-0.8-0.3c-0.2-0.2-0.3-0.5-0.3-0.8s0.1-0.6,0.3-0.8
	c0.2-0.2,0.5-0.3,0.8-0.3s0.6,0.1,0.8,0.3c0.2,0.2,0.3,0.5,0.3,0.8s-0.1,0.6-0.3,0.8C464.5,316.5,464.2,316.6,463.9,316.6z
	 M464.6,318.4v9.3h-1.5v-9.3H464.6z M469.5,314.1v11.2c0,0.5,0.1,0.8,0.2,1c0.2,0.2,0.5,0.3,0.8,0.3c0.2,0,0.5,0,0.6,0
	c0.2,0,0.4-0.1,0.7-0.2l-0.2,1.3c-0.2,0.1-0.4,0.2-0.7,0.2c-0.2,0-0.5,0.1-0.7,0.1c-0.8,0-1.3-0.2-1.7-0.6c-0.4-0.4-0.5-1-0.5-1.9
	v-11.3h1.5V314.1z M477.1,327.9c-0.9,0-1.7-0.2-2.5-0.6s-1.3-0.9-1.8-1.6l1.3-0.9c0.3,0.6,0.7,1,1.2,1.3s1.2,0.5,1.9,0.5
	c0.7,0,1.2-0.1,1.5-0.4c0.4-0.3,0.6-0.6,0.6-1c0-0.3-0.1-0.5-0.2-0.7s-0.5-0.4-1-0.5l-2.2-0.5c-0.9-0.2-1.6-0.5-2-0.9
	s-0.6-1-0.6-1.6c0-0.5,0.1-1,0.4-1.4s0.7-0.8,1.2-1c0.5-0.3,1.2-0.4,1.9-0.4c0.9,0,1.7,0.2,2.3,0.5c0.6,0.4,1.1,0.9,1.4,1.5
	l-1.2,0.8c-0.2-0.5-0.6-0.9-1-1.2c-0.5-0.3-1-0.4-1.5-0.4c-0.4,0-0.8,0.1-1.2,0.2c-0.3,0.1-0.6,0.3-0.7,0.5
	c-0.2,0.2-0.2,0.5-0.2,0.7c0,0.3,0.1,0.5,0.3,0.8c0.2,0.2,0.5,0.4,1,0.5l2.3,0.5c0.9,0.2,1.5,0.5,1.8,0.9c0.4,0.4,0.5,0.9,0.5,1.5
	s-0.2,1.1-0.5,1.5s-0.8,0.8-1.3,1C478.5,327.8,477.9,327.9,477.1,327.9z"/>
<path class="st2" d="M431,59.6c-0.3,0.7-0.6,1.3-1.1,1.8s-1,0.9-1.7,1.1c-0.6,0.3-1.4,0.4-2.1,0.4c-1.2,0-2.2-0.3-3-0.8
	s-1.5-1.3-2-2.2c-0.5-0.9-0.7-2.1-0.7-3.4s0.2-2.4,0.7-3.4c0.5-0.9,1.1-1.7,2-2.2s1.9-0.8,3-0.8c0.8,0,1.5,0.1,2.1,0.3
	c0.6,0.2,1.2,0.5,1.6,1c0.4,0.4,0.8,1,1.1,1.6l-1.5,0.7c-0.3-0.7-0.7-1.2-1.2-1.6s-1.2-0.5-2-0.5s-1.6,0.2-2.2,0.6s-1.1,0.9-1.5,1.7
	c-0.4,0.7-0.5,1.6-0.5,2.7c0,1,0.2,1.9,0.5,2.7c0.3,0.7,0.8,1.3,1.4,1.7c0.6,0.4,1.4,0.6,2.2,0.6c0.8,0,1.5-0.2,2.1-0.6
	s1.1-1,1.3-1.9L431,59.6z M439,56.7c0-0.7-0.2-1.2-0.6-1.6s-0.9-0.6-1.6-0.6c-0.6,0-1.2,0.1-1.6,0.4s-0.8,0.7-1,1.3l-1.2-0.8
	c0.2-0.7,0.7-1.3,1.4-1.7c0.7-0.4,1.5-0.6,2.5-0.6c0.7,0,1.3,0.1,1.8,0.3c0.6,0.2,1,0.6,1.3,1c0.3,0.5,0.5,1.1,0.5,1.8v4.5
	c0,0.4,0.2,0.7,0.7,0.7c0.2,0,0.5,0,0.7-0.1l-0.1,1.2c-0.2,0.1-0.6,0.2-1,0.2s-0.7-0.1-1-0.2s-0.5-0.3-0.7-0.6
	c-0.2-0.3-0.2-0.6-0.2-1v-0.2h0.4c-0.1,0.5-0.4,0.9-0.8,1.2c-0.4,0.3-0.8,0.5-1.2,0.7c-0.4,0.1-0.9,0.2-1.3,0.2
	c-0.6,0-1.1-0.1-1.5-0.3s-0.8-0.5-1.1-0.8c-0.3-0.4-0.4-0.9-0.4-1.4c0-0.7,0.2-1.3,0.7-1.7c0.5-0.5,1.1-0.8,2-0.9l3.7-0.7v1.3
	l-3,0.6c-0.6,0.1-1.1,0.3-1.4,0.5s-0.4,0.5-0.4,0.9s0.2,0.7,0.5,0.9c0.3,0.2,0.7,0.4,1.3,0.4c0.4,0,0.7,0,1-0.1s0.6-0.2,0.9-0.4
	c0.3-0.2,0.5-0.4,0.6-0.7c0.2-0.3,0.2-0.6,0.2-1L439,56.7L439,56.7z M445.6,49.1v11.2c0,0.5,0.1,0.8,0.2,1c0.2,0.2,0.5,0.3,0.8,0.3
	c0.2,0,0.5,0,0.6,0c0.2,0,0.4-0.1,0.7-0.2l-0.2,1.3c-0.2,0.1-0.4,0.2-0.7,0.2c-0.2,0-0.5,0.1-0.7,0.1c-0.8,0-1.3-0.2-1.7-0.6
	c-0.4-0.4-0.5-1-0.5-1.9V49.1H445.6z M453.8,63c-0.9,0-1.7-0.2-2.4-0.6c-0.7-0.4-1.2-0.9-1.6-1.7c-0.4-0.7-0.6-1.6-0.6-2.6
	s0.2-1.9,0.6-2.6s0.9-1.3,1.6-1.7c0.7-0.4,1.4-0.6,2.3-0.6s1.6,0.2,2.2,0.6s1.1,0.9,1.4,1.5s0.5,1.3,0.5,2.1c0,0.2,0,0.4,0,0.6
	s0,0.3,0,0.5h-7.5v-1.3h6.9l-0.8,0.2c0-0.9-0.2-1.6-0.7-2.1s-1.1-0.7-1.9-0.7c-0.6,0-1.1,0.1-1.6,0.4c-0.4,0.3-0.8,0.7-1,1.2
	s-0.4,1.2-0.4,1.9c0,0.7,0.1,1.4,0.4,1.9c0.2,0.5,0.6,0.9,1,1.2c0.5,0.3,1,0.4,1.6,0.4c0.7,0,1.2-0.1,1.7-0.4c0.4-0.3,0.8-0.6,1-1.1
	l1.2,0.7c-0.2,0.4-0.5,0.8-0.9,1.1c-0.4,0.3-0.8,0.6-1.3,0.7C454.9,62.9,454.4,63,453.8,63z M460.6,62.8v-9.3h1.3l0.1,2.1l-0.2-0.2
	c0.2-0.5,0.5-0.9,0.8-1.2c0.3-0.3,0.7-0.5,1.2-0.7c0.4-0.1,0.9-0.2,1.4-0.2c0.7,0,1.3,0.1,1.8,0.4c0.6,0.2,1,0.6,1.3,1.2
	c0.3,0.5,0.5,1.2,0.5,2v6h-1.5v-5.6c0-1-0.2-1.7-0.7-2.1c-0.4-0.4-1-0.6-1.6-0.6c-0.4,0-0.9,0.1-1.3,0.3c-0.4,0.2-0.8,0.6-1.1,1
	c-0.3,0.5-0.4,1.1-0.4,1.9v5C462.2,62.8,460.6,62.8,460.6,62.8z M475.8,63c-0.8,0-1.5-0.2-2.1-0.6s-1.2-0.9-1.5-1.7
	c-0.4-0.7-0.6-1.6-0.6-2.6s0.2-1.9,0.6-2.6s0.9-1.3,1.6-1.6c0.7-0.4,1.4-0.6,2.2-0.6s1.4,0.2,2,0.6s1,0.9,1.1,1.6l-0.2,0.1v-6.4h1.5
	v13.6h-1.3l-0.1-2.2l0.2-0.1c-0.1,0.6-0.3,1-0.6,1.4c-0.3,0.4-0.7,0.7-1.2,0.9C476.8,62.9,476.3,63,475.8,63z M475.9,61.6
	c0.6,0,1.1-0.1,1.6-0.4c0.4-0.3,0.8-0.7,1-1.3c0.2-0.6,0.4-1.2,0.4-2c0-0.7-0.1-1.3-0.4-1.8c-0.2-0.5-0.6-0.9-1-1.2
	c-0.4-0.3-0.9-0.4-1.5-0.4c-0.9,0-1.7,0.3-2.2,1c-0.5,0.6-0.8,1.5-0.8,2.6s0.3,1.9,0.8,2.6C474.3,61.3,475,61.6,475.9,61.6z
	 M489.3,56.7c0-0.7-0.2-1.2-0.6-1.6s-0.9-0.6-1.6-0.6c-0.6,0-1.2,0.1-1.6,0.4s-0.8,0.7-1,1.3l-1.2-0.8c0.2-0.7,0.7-1.3,1.4-1.7
	c0.7-0.4,1.5-0.6,2.5-0.6c0.7,0,1.3,0.1,1.8,0.3c0.6,0.2,1,0.6,1.3,1c0.3,0.5,0.5,1.1,0.5,1.8v4.5c0,0.4,0.2,0.7,0.7,0.7
	c0.2,0,0.5,0,0.7-0.1l-0.1,1.2c-0.2,0.1-0.6,0.2-1,0.2s-0.7-0.1-1-0.2s-0.5-0.3-0.7-0.6c-0.2-0.3-0.2-0.6-0.2-1v-0.2h0.4
	c-0.1,0.5-0.4,0.9-0.8,1.2c-0.4,0.3-0.8,0.5-1.2,0.7c-0.4,0.1-0.9,0.2-1.3,0.2c-0.6,0-1.1-0.1-1.5-0.3s-0.8-0.5-1.1-0.8
	c-0.3-0.4-0.4-0.9-0.4-1.4c0-0.7,0.2-1.3,0.7-1.7c0.5-0.5,1.1-0.8,2-0.9l3.7-0.7v1.3l-3,0.6c-0.6,0.1-1.1,0.3-1.4,0.5
	s-0.4,0.5-0.4,0.9s0.2,0.7,0.5,0.9c0.3,0.2,0.7,0.4,1.3,0.4c0.4,0,0.7,0,1-0.1s0.6-0.2,0.9-0.4c0.3-0.2,0.5-0.4,0.6-0.7
	c0.2-0.3,0.2-0.6,0.2-1L489.3,56.7L489.3,56.7z M494.4,62.8v-9.3h1.2l0.2,1.5c0.3-0.6,0.6-1,1.1-1.3s1.1-0.4,1.8-0.4
	c0.2,0,0.3,0,0.5,0s0.4,0.1,0.5,0.1l-0.2,1.4c-0.1-0.1-0.3-0.1-0.5-0.1s-0.4,0-0.7,0c-0.4,0-0.8,0.1-1.2,0.3c-0.4,0.2-0.7,0.6-1,1
	s-0.4,1-0.4,1.7v5h-1.3V62.8z M513.7,53.4h1.6l-3.9,9.3h-1.5l-3.9-9.3h1.7l3,7.8L513.7,53.4z M518,51.6c-0.3,0-0.6-0.1-0.8-0.3
	c-0.2-0.2-0.3-0.5-0.3-0.8s0.1-0.6,0.3-0.8c0.2-0.2,0.5-0.3,0.8-0.3s0.6,0.1,0.8,0.3c0.2,0.2,0.3,0.5,0.3,0.8s-0.1,0.6-0.3,0.8
	C518.6,51.5,518.3,51.6,518,51.6z M518.7,53.4v9.3h-1.5v-9.3H518.7z M526.1,63c-0.9,0-1.7-0.2-2.4-0.6s-1.2-0.9-1.6-1.7
	c-0.4-0.7-0.6-1.6-0.6-2.6s0.2-1.9,0.6-2.6c0.4-0.7,0.9-1.3,1.6-1.7c0.7-0.4,1.4-0.6,2.3-0.6s1.6,0.2,2.2,0.6s1.1,0.9,1.4,1.5
	c0.3,0.6,0.5,1.3,0.5,2.1c0,0.2,0,0.4,0,0.6s0,0.3,0,0.5h-7.5v-1.3h6.9l-0.8,0.2c0-0.9-0.2-1.6-0.7-2.1s-1.1-0.7-1.9-0.7
	c-0.6,0-1.1,0.1-1.6,0.4c-0.4,0.3-0.8,0.7-1,1.2s-0.4,1.2-0.4,1.9c0,0.7,0.1,1.4,0.4,1.9c0.2,0.5,0.6,0.9,1,1.2
	c0.5,0.3,1,0.4,1.6,0.4c0.7,0,1.2-0.1,1.7-0.4c0.4-0.3,0.8-0.6,1-1.1l1.2,0.7c-0.2,0.4-0.5,0.8-0.9,1.1c-0.4,0.3-0.8,0.6-1.3,0.7
	C527.2,62.9,526.7,63,526.1,63z M544.4,53.4h1.7l-3.2,9.3h-1.5l-2.6-7.4l-2.5,7.4h-1.5l-3.2-9.3h1.7l2.3,7.6l2.5-7.6h1.5l2.5,7.6
	L544.4,53.4z"/>
<path class="st2" d="M326.9,95.7l-4.4,7.5v4.8H321v-4.8l-4.4-7.5h1.8l2.4,4.2l1,1.8l1-1.8l2.4-4.2C325.2,95.7,326.9,95.7,326.9,95.7
	z M331.3,98.5c0.9,0,1.7,0.2,2.3,0.6c0.7,0.4,1.2,0.9,1.6,1.7c0.4,0.7,0.6,1.6,0.6,2.6s-0.2,1.9-0.6,2.6c-0.4,0.7-0.9,1.3-1.6,1.7
	c-0.7,0.4-1.5,0.6-2.3,0.6c-0.9,0-1.6-0.2-2.3-0.6c-0.7-0.4-1.2-0.9-1.6-1.7c-0.4-0.7-0.6-1.6-0.6-2.6s0.2-1.9,0.6-2.6
	s0.9-1.3,1.6-1.7C329.7,98.7,330.4,98.5,331.3,98.5z M331.3,99.8c-0.6,0-1.2,0.1-1.6,0.4s-0.8,0.7-1,1.2s-0.4,1.2-0.4,1.9
	c0,0.7,0.1,1.4,0.4,1.9c0.2,0.5,0.6,0.9,1,1.2s1,0.4,1.6,0.4s1.2-0.1,1.6-0.4c0.4-0.3,0.8-0.7,1-1.2s0.4-1.2,0.4-1.9
	c0-0.7-0.1-1.4-0.4-1.9c-0.2-0.5-0.6-0.9-1-1.2C332.5,99.9,331.9,99.8,331.3,99.8z M342,108.2c-0.6,0-1.2-0.1-1.7-0.3
	s-1-0.6-1.3-1.1s-0.5-1.2-0.5-2v-6.1h1.5v5.7c0,0.9,0.2,1.6,0.6,1.9c0.4,0.4,1,0.5,1.7,0.5c0.3,0,0.7-0.1,1-0.2
	c0.3-0.1,0.6-0.3,0.9-0.5c0.3-0.3,0.5-0.6,0.6-1c0.2-0.4,0.2-0.9,0.2-1.4v-5.1h1.5v9.3h-1.3l-0.1-1.4c-0.3,0.6-0.8,1-1.3,1.2
	C343.4,108,342.8,108.2,342,108.2z M350.2,108v-9.3h1.2l0.2,1.5c0.3-0.6,0.6-1,1.1-1.3s1.1-0.4,1.8-0.4c0.2,0,0.3,0,0.5,0
	s0.4,0.1,0.5,0.1l-0.2,1.4c-0.1-0.1-0.3-0.1-0.5-0.1s-0.4,0-0.7,0c-0.4,0-0.8,0.1-1.2,0.3c-0.4,0.2-0.7,0.6-1,1s-0.4,1-0.4,1.7v5
	h-1.3V108z M363.7,111.9V98.7h1.3l0.1,2.3l-0.2-0.3c0.2-0.4,0.4-0.8,0.7-1.1c0.3-0.3,0.7-0.6,1.2-0.8c0.5-0.2,1-0.3,1.5-0.3
	c0.8,0,1.5,0.2,2.1,0.6s1.2,0.9,1.5,1.7c0.4,0.7,0.6,1.6,0.6,2.6s-0.2,1.9-0.6,2.6s-0.9,1.3-1.5,1.7s-1.4,0.6-2.1,0.6
	c-0.8,0-1.4-0.2-2-0.6c-0.6-0.4-1-0.9-1.2-1.5l0.2-0.3v6L363.7,111.9L363.7,111.9z M368.1,106.9c0.9,0,1.6-0.3,2.1-1
	c0.5-0.6,0.8-1.5,0.8-2.6s-0.2-1.9-0.8-2.6c-0.5-0.6-1.2-1-2.1-1c-0.6,0-1.1,0.1-1.6,0.4c-0.4,0.3-0.8,0.7-1,1.2s-0.4,1.1-0.4,1.9
	s0.1,1.3,0.4,1.9c0.2,0.5,0.6,0.9,1,1.2C367,106.7,367.5,106.9,368.1,106.9z M375.4,108v-9.3h1.2l0.2,1.5c0.3-0.6,0.6-1,1.1-1.3
	s1.1-0.4,1.8-0.4c0.2,0,0.3,0,0.5,0s0.4,0.1,0.5,0.1l-0.2,1.4c-0.1-0.1-0.3-0.1-0.5-0.1s-0.4,0-0.7,0c-0.4,0-0.8,0.1-1.2,0.3
	c-0.4,0.2-0.7,0.6-1,1s-0.4,1-0.4,1.7v5h-1.3V108z M386.6,98.5c0.9,0,1.7,0.2,2.3,0.6c0.7,0.4,1.2,0.9,1.6,1.7
	c0.4,0.7,0.6,1.6,0.6,2.6s-0.2,1.9-0.6,2.6c-0.4,0.7-0.9,1.3-1.6,1.7c-0.7,0.4-1.5,0.6-2.3,0.6c-0.9,0-1.6-0.2-2.3-0.6
	c-0.7-0.4-1.2-0.9-1.6-1.7c-0.4-0.7-0.6-1.6-0.6-2.6s0.2-1.9,0.6-2.6s0.9-1.3,1.6-1.7C384.9,98.7,385.7,98.5,386.6,98.5z
	 M386.6,99.8c-0.6,0-1.2,0.1-1.6,0.4s-0.8,0.7-1,1.2s-0.4,1.2-0.4,1.9c0,0.7,0.1,1.4,0.4,1.9c0.2,0.5,0.6,0.9,1,1.2s1,0.4,1.6,0.4
	s1.2-0.1,1.6-0.4c0.4-0.3,0.8-0.7,1-1.2s0.4-1.2,0.4-1.9c0-0.7-0.1-1.4-0.4-1.9c-0.2-0.5-0.6-0.9-1-1.2
	C387.8,99.9,387.2,99.8,386.6,99.8z M397.5,94.3c0.3,0,0.6,0,0.9,0.1s0.5,0.2,0.7,0.3l-0.4,1.2c-0.1-0.1-0.3-0.2-0.5-0.2
	s-0.4-0.1-0.6-0.1c-0.5,0-1,0.1-1.3,0.4c-0.3,0.2-0.4,0.7-0.4,1.2v1.4v0.5v8.8h-1.5V97c0-0.4,0.1-0.8,0.2-1.1
	c0.1-0.4,0.3-0.7,0.6-0.9c0.3-0.2,0.6-0.4,1-0.6C396.6,94.3,397,94.3,397.5,94.3z M399.1,98.7v1.3h-6.5v-1.3H399.1z M401.5,96.9
	c-0.3,0-0.6-0.1-0.8-0.3c-0.2-0.2-0.3-0.5-0.3-0.8s0.1-0.6,0.3-0.8c0.2-0.2,0.5-0.3,0.8-0.3s0.6,0.1,0.8,0.3
	c0.2,0.2,0.3,0.5,0.3,0.8s-0.1,0.6-0.3,0.8S401.8,96.9,401.5,96.9z M402.2,98.7v9.3h-1.5v-9.3C400.7,98.7,402.2,98.7,402.2,98.7z
	 M407.5,94.4v11.2c0,0.5,0.1,0.8,0.2,1c0.2,0.2,0.5,0.3,0.8,0.3s0.5,0,0.6,0c0.2,0,0.4-0.1,0.7-0.2l-0.2,1.3
	c-0.2,0.1-0.4,0.2-0.7,0.2c-0.2,0-0.5,0.1-0.7,0.1c-0.8,0-1.3-0.2-1.7-0.6c-0.4-0.4-0.5-1-0.5-1.9V94.5L407.5,94.4L407.5,94.4z
	 M415.6,108.2c-0.9,0-1.7-0.2-2.4-0.6c-0.7-0.4-1.2-0.9-1.6-1.7c-0.4-0.7-0.6-1.6-0.6-2.6s0.2-1.9,0.6-2.6s0.9-1.3,1.6-1.7
	c0.7-0.4,1.4-0.6,2.3-0.6s1.6,0.2,2.2,0.6s1.1,0.9,1.4,1.5s0.5,1.3,0.5,2.1c0,0.2,0,0.4,0,0.6s0,0.3,0,0.5h-7.5v-1.3h6.9l-0.8,0.2
	c0-0.9-0.2-1.6-0.7-2.1s-1.1-0.7-1.9-0.7c-0.6,0-1.1,0.1-1.6,0.4c-0.4,0.3-0.8,0.7-1,1.2s-0.4,1.2-0.4,1.9c0,0.7,0.1,1.4,0.4,1.9
	c0.2,0.5,0.6,0.9,1,1.2c0.5,0.3,1,0.4,1.6,0.4c0.7,0,1.2-0.1,1.7-0.4c0.4-0.3,0.8-0.6,1-1.1l1.2,0.7c-0.2,0.4-0.5,0.8-0.9,1.1
	s-0.8,0.6-1.3,0.7C416.8,108.1,416.3,108.2,415.6,108.2z"/>
<path class="st1" d="M350.3,322.4h59.8"/>
<path class="st1" d="M355.9,35.8v21.6h54.2"/>
<path class="st1" d="M355.9,35.8v21.6h54.2"/>
<path class="st0" d="M15.1,172.7c0-0.7-0.2-1.2-0.6-1.6c-0.4-0.4-0.9-0.6-1.5-0.6s-1.1,0.2-1.6,0.5c-0.4,0.3-0.8,0.8-1,1.5l-2.8-0.9
	c0.3-1.1,0.9-1.9,1.8-2.5c0.9-0.6,2.2-1,3.7-1c1.1,0,2,0.2,2.8,0.5c0.8,0.3,1.4,0.8,1.8,1.5c0.4,0.7,0.7,1.5,0.7,2.5v4.9
	c0,0.6,0.3,0.9,0.9,0.9c0.3,0,0.5,0,0.8-0.1l-0.2,2c-0.4,0.2-0.9,0.3-1.5,0.3s-1.1-0.1-1.5-0.3s-0.8-0.5-1.1-0.9
	c-0.2-0.4-0.4-0.9-0.4-1.5v-0.1l0.6-0.1c-0.1,0.6-0.4,1.1-0.8,1.5c-0.4,0.4-0.9,0.7-1.6,1c-0.6,0.2-1.2,0.3-1.9,0.3
	c-0.8,0-1.5-0.1-2.1-0.4c-0.6-0.3-1.1-0.6-1.4-1.1c-0.3-0.5-0.5-1.1-0.5-1.8c0-0.9,0.3-1.6,0.9-2.2c0.6-0.6,1.4-1,2.5-1.2l4.5-0.9v2
	l-2.9,0.6c-0.5,0.1-1,0.3-1.2,0.5c-0.3,0.2-0.4,0.5-0.4,0.9s0.1,0.7,0.4,0.9c0.3,0.2,0.7,0.3,1.1,0.3c0.3,0,0.7,0,1-0.1
	s0.6-0.2,0.9-0.4c0.3-0.2,0.5-0.4,0.6-0.7s0.2-0.7,0.2-1.1v-3.1H15.1z M22,185.4v-17h3l0.2,3.8l-0.4-0.4c0.1-0.7,0.4-1.3,0.8-1.9
	c0.4-0.5,0.9-1,1.5-1.3s1.3-0.5,2-0.5c1,0,1.8,0.2,2.6,0.8c0.8,0.5,1.4,1.2,1.8,2.1c0.4,0.9,0.7,2,0.7,3.3s-0.2,2.4-0.7,3.4
	c-0.4,0.9-1.1,1.7-1.8,2.2c-0.8,0.5-1.7,0.7-2.6,0.7c-1.1,0-1.9-0.3-2.6-0.9c-0.7-0.6-1.2-1.3-1.4-2.2l0.3-0.5v8.4L22,185.4
	L22,185.4z M28.1,178.1c0.9,0,1.6-0.3,2.1-0.9c0.5-0.6,0.8-1.6,0.8-2.8s-0.2-2.1-0.7-2.8c-0.5-0.6-1.2-1-2-1c-0.6,0-1,0.2-1.5,0.5
	c-0.4,0.3-0.8,0.7-1,1.3s-0.4,1.2-0.4,2c0,0.7,0.1,1.4,0.3,2s0.6,1,1,1.3C27,177.9,27.5,178.1,28.1,178.1z M37.1,185.4v-17h3
	l0.2,3.8l-0.4-0.4c0.1-0.7,0.4-1.3,0.8-1.9c0.4-0.5,0.9-1,1.5-1.3s1.3-0.5,2-0.5c1,0,1.8,0.2,2.6,0.8c0.8,0.5,1.4,1.2,1.8,2.1
	c0.4,0.9,0.7,2,0.7,3.3s-0.2,2.4-0.7,3.4c-0.4,0.9-1.1,1.7-1.8,2.2c-0.8,0.5-1.7,0.7-2.6,0.7c-1.1,0-1.9-0.3-2.6-0.9
	c-0.7-0.6-1.2-1.3-1.4-2.2l0.3-0.5v8.4L37.1,185.4L37.1,185.4z M43.1,178.1c0.9,0,1.6-0.3,2.1-0.9c0.5-0.6,0.8-1.6,0.8-2.8
	s-0.2-2.1-0.7-2.8c-0.5-0.6-1.2-1-2-1c-0.6,0-1,0.2-1.5,0.5c-0.4,0.3-0.8,0.7-1,1.3s-0.4,1.2-0.4,2c0,0.7,0.1,1.4,0.3,2s0.6,1,1,1.3
	C42.1,177.9,42.6,178.1,43.1,178.1z M53.4,176.7c0.6,0,1.1,0.2,1.5,0.5c0.4,0.4,0.6,0.8,0.6,1.4c0,0.6-0.2,1.1-0.6,1.4
	c-0.4,0.3-0.9,0.5-1.5,0.5s-1.2-0.2-1.5-0.5c-0.4-0.3-0.6-0.8-0.6-1.4c0-0.6,0.2-1.1,0.6-1.4C52.2,176.8,52.7,176.7,53.4,176.7z
	 M62.6,180.6c-1,0-1.9-0.2-2.7-0.7c-0.8-0.5-1.4-1.2-1.8-2.1c-0.4-0.9-0.7-2-0.7-3.3s0.2-2.5,0.7-3.4s1.1-1.6,1.9-2.1
	s1.7-0.7,2.7-0.7c1.1,0,1.9,0.3,2.6,0.9c0.7,0.6,1.1,1.4,1.3,2.4l-0.3,0.4v-8.7h3.3v17h-2.9l-0.2-3.6l0.4,0.2
	c-0.1,0.7-0.3,1.4-0.8,2c-0.4,0.6-0.9,1-1.5,1.3C64,180.4,63.3,180.6,62.6,180.6z M63.5,178.1c0.6,0,1.1-0.1,1.5-0.4
	c0.4-0.3,0.7-0.7,1-1.3c0.2-0.6,0.3-1.3,0.3-2.1s-0.1-1.4-0.3-2c-0.2-0.5-0.5-1-1-1.2c-0.4-0.3-0.9-0.4-1.5-0.4
	c-0.9,0-1.6,0.3-2.1,1c-0.5,0.6-0.8,1.5-0.8,2.8c0,1.2,0.2,2.1,0.7,2.8C62,177.7,62.6,178.1,63.5,178.1z M79.9,172.7
	c0-0.7-0.2-1.2-0.6-1.6c-0.4-0.4-0.9-0.6-1.5-0.6s-1.1,0.2-1.6,0.5c-0.4,0.3-0.8,0.8-1,1.5l-2.8-0.9c0.3-1.1,0.9-1.9,1.8-2.5
	s2.2-1,3.7-1c1.1,0,2,0.2,2.8,0.5s1.4,0.8,1.8,1.5s0.7,1.5,0.7,2.5v4.9c0,0.6,0.3,0.9,0.9,0.9c0.3,0,0.5,0,0.8-0.1l-0.2,2
	c-0.4,0.2-0.9,0.3-1.5,0.3s-1.1-0.1-1.5-0.3s-0.8-0.5-1.1-0.9c-0.2-0.4-0.4-0.9-0.4-1.5v-0.1l0.6-0.1c-0.1,0.6-0.4,1.1-0.8,1.5
	s-0.9,0.7-1.6,1c-0.6,0.2-1.2,0.3-1.9,0.3c-0.8,0-1.5-0.1-2.1-0.4c-0.6-0.3-1.1-0.6-1.4-1.1s-0.5-1.1-0.5-1.8c0-0.9,0.3-1.6,0.9-2.2
	c0.6-0.6,1.4-1,2.5-1.2l4.5-0.9v2l-2.9,0.6c-0.5,0.1-1,0.3-1.2,0.5c-0.3,0.2-0.4,0.5-0.4,0.9s0.1,0.7,0.4,0.9s0.7,0.3,1.1,0.3
	c0.3,0,0.7,0,1-0.1s0.6-0.2,0.9-0.4s0.5-0.4,0.6-0.7s0.2-0.7,0.2-1.1v-3.1H79.9z M93.9,180.6c-0.7,0-1.4-0.2-2-0.5s-1.1-0.7-1.5-1.3
	s-0.7-1.2-0.8-1.9l0.3-0.4l-0.2,3.8h-2.9v-17.2h3.3v8.6l-0.3-0.5c0.3-0.9,0.7-1.6,1.5-2.2c0.7-0.6,1.6-0.9,2.7-0.9
	c1,0,1.8,0.2,2.6,0.8c0.8,0.5,1.4,1.2,1.8,2.1c0.4,0.9,0.7,2.1,0.7,3.4c0,1.3-0.2,2.4-0.7,3.3c-0.4,0.9-1,1.6-1.8,2.1
	C95.8,180.3,94.9,180.6,93.9,180.6z M92.9,178.1c0.9,0,1.6-0.3,2.1-0.9c0.5-0.6,0.7-1.6,0.8-2.8c0-1.2-0.3-2.1-0.8-2.8
	c-0.5-0.6-1.2-1-2-1c-0.6,0-1.1,0.2-1.5,0.5s-0.7,0.7-1,1.3c-0.2,0.6-0.3,1.2-0.3,2s0.1,1.4,0.3,2c0.2,0.6,0.6,1,1,1.3
	C91.9,177.9,92.4,178.1,92.9,178.1z M101.9,180.3v-12h2.8l0.2,2.4c0.3-0.8,0.8-1.5,1.4-1.9c0.6-0.4,1.4-0.7,2.3-0.7
	c0.3,0,0.5,0,0.7,0.1c0.2,0,0.4,0.1,0.6,0.2l-0.4,2.8c-0.2-0.1-0.4-0.1-0.6-0.1c-0.2,0-0.5,0-0.9,0c-0.5,0-0.9,0.1-1.4,0.3
	c-0.4,0.2-0.8,0.6-1.1,1.1c-0.3,0.5-0.4,1.1-0.4,1.8v6.2h-3.2V180.3z M118.7,172.7c0-0.7-0.2-1.2-0.6-1.6c-0.4-0.4-0.9-0.6-1.5-0.6
	s-1.1,0.2-1.6,0.5c-0.4,0.3-0.8,0.8-1,1.5l-2.8-0.9c0.3-1.1,0.9-1.9,1.8-2.5c0.9-0.6,2.2-1,3.7-1c1.1,0,2,0.2,2.8,0.5
	s1.4,0.8,1.8,1.5c0.4,0.7,0.7,1.5,0.7,2.5v4.9c0,0.6,0.3,0.9,0.9,0.9c0.3,0,0.5,0,0.8-0.1l-0.2,2c-0.4,0.2-0.9,0.3-1.5,0.3
	s-1.1-0.1-1.5-0.3s-0.8-0.5-1.1-0.9c-0.2-0.4-0.4-0.9-0.4-1.5v-0.1l0.6-0.1c-0.1,0.6-0.4,1.1-0.8,1.5c-0.4,0.4-0.9,0.7-1.6,1
	c-0.6,0.2-1.2,0.3-1.9,0.3c-0.8,0-1.5-0.1-2.1-0.4c-0.6-0.3-1.1-0.6-1.4-1.1c-0.3-0.5-0.5-1.1-0.5-1.8c0-0.9,0.3-1.6,0.9-2.2
	c0.6-0.6,1.4-1,2.5-1.2l4.5-0.9v2l-2.9,0.6c-0.5,0.1-1,0.3-1.2,0.5c-0.3,0.2-0.4,0.5-0.4,0.9s0.1,0.7,0.4,0.9
	c0.3,0.2,0.7,0.3,1.1,0.3c0.3,0,0.7,0,1-0.1s0.6-0.2,0.9-0.4c0.3-0.2,0.5-0.4,0.6-0.7s0.2-0.7,0.2-1.1v-3.1H118.7z M127.5,176.7
	c0.6,0,1.1,0.2,1.5,0.5c0.4,0.4,0.6,0.8,0.6,1.4c0,0.6-0.2,1.1-0.6,1.4c-0.4,0.3-0.9,0.5-1.5,0.5c-0.6,0-1.2-0.2-1.5-0.5
	c-0.4-0.3-0.6-0.8-0.6-1.4c0-0.6,0.2-1.1,0.6-1.4C126.4,176.8,126.9,176.7,127.5,176.7z M139.4,172.7c0-0.7-0.2-1.2-0.6-1.6
	c-0.4-0.4-0.9-0.6-1.5-0.6s-1.1,0.2-1.6,0.5c-0.4,0.3-0.8,0.8-1,1.5l-2.8-0.9c0.3-1.1,0.9-1.9,1.8-2.5c0.9-0.6,2.2-1,3.7-1
	c1.1,0,2,0.2,2.8,0.5s1.4,0.8,1.8,1.5c0.4,0.7,0.7,1.5,0.7,2.5v4.9c0,0.6,0.3,0.9,0.9,0.9c0.3,0,0.5,0,0.8-0.1l-0.2,2
	c-0.4,0.2-0.9,0.3-1.5,0.3s-1.1-0.1-1.5-0.3s-0.8-0.5-1.1-0.9c-0.2-0.4-0.4-0.9-0.4-1.5v-0.1l0.6-0.1c-0.1,0.6-0.4,1.1-0.8,1.5
	c-0.4,0.4-0.9,0.7-1.6,1c-0.6,0.2-1.2,0.3-1.9,0.3c-0.8,0-1.5-0.1-2.1-0.4c-0.6-0.3-1.1-0.6-1.4-1.1c-0.3-0.5-0.5-1.1-0.5-1.8
	c0-0.9,0.3-1.6,0.9-2.2c0.6-0.6,1.4-1,2.5-1.2l4.5-0.9v2l-2.9,0.6c-0.5,0.1-1,0.3-1.2,0.5c-0.3,0.2-0.4,0.5-0.4,0.9s0.1,0.7,0.4,0.9
	c0.3,0.2,0.7,0.3,1.1,0.3c0.3,0,0.7,0,1-0.1s0.6-0.2,0.9-0.4c0.3-0.2,0.5-0.4,0.6-0.7s0.2-0.7,0.2-1.1v-3.1H139.4z M148,166.6
	c-0.7,0-1.2-0.1-1.5-0.4c-0.3-0.3-0.5-0.7-0.5-1.3s0.2-1,0.5-1.3s0.9-0.4,1.5-0.4c0.7,0,1.2,0.1,1.5,0.4c0.3,0.3,0.5,0.7,0.5,1.3
	s-0.2,1-0.5,1.3C149.2,166.5,148.7,166.6,148,166.6z M149.7,168.3v12h-3.3v-12H149.7z"/>
<path class="st0" d="M11.3,190.3l0.5,0.5c-0.8,0.7-1.4,1.5-1.9,2.3s-0.8,1.7-1,2.7s-0.3,2-0.3,3.1s0.1,2.2,0.3,3.2
	c0.2,1,0.6,1.8,1,2.7c0.5,0.8,1.1,1.6,1.9,2.3l-0.5,0.5c-1.3-1.1-2.2-2.3-2.8-3.8c-0.6-1.4-0.9-3.1-0.9-4.9c0-1.8,0.3-3.4,0.9-4.9
	C9.1,192.6,10,191.4,11.3,190.3z M13.2,208.1v-13.2H14l0.1,2.6l-0.1-0.2c0.2-0.5,0.4-1,0.8-1.4c0.3-0.4,0.8-0.7,1.2-0.9
	c0.5-0.2,1-0.3,1.6-0.3c0.8,0,1.5,0.2,2.1,0.6c0.6,0.4,1.1,0.9,1.5,1.7c0.4,0.7,0.6,1.6,0.6,2.6s-0.2,1.9-0.6,2.6
	c-0.4,0.7-0.9,1.3-1.5,1.7s-1.4,0.6-2.2,0.6c-0.9,0-1.6-0.2-2.2-0.7c-0.6-0.5-1.1-1.1-1.3-1.8l0.1-0.2v6.4h-0.9V208.1z M17.5,203.6
	c1.1,0,1.9-0.4,2.5-1.1s0.9-1.7,0.9-3c0-1.2-0.3-2.2-0.9-2.9c-0.6-0.7-1.4-1.1-2.5-1.1c-0.7,0-1.2,0.2-1.8,0.5
	c-0.5,0.3-0.9,0.8-1.2,1.4c-0.3,0.6-0.4,1.3-0.4,2.1s0.1,1.5,0.4,2.1c0.3,0.6,0.7,1.1,1.2,1.4C16.3,203.4,16.9,203.6,17.5,203.6z
	 M24.6,204.2v-9.3h0.8l0.1,1.9c0.2-0.6,0.6-1.2,1.1-1.5c0.5-0.4,1.2-0.6,1.9-0.6c0.2,0,0.5,0,0.7,0.1s0.4,0.1,0.5,0.2l-0.2,0.8
	c-0.1-0.1-0.3-0.2-0.5-0.2c-0.2-0.1-0.4-0.1-0.7-0.1c-0.5,0-0.9,0.1-1.4,0.4c-0.4,0.3-0.8,0.7-1,1.2c-0.3,0.5-0.4,1.1-0.4,1.8v5.2
	h-0.9V204.2z M35,194.7c0.9,0,1.6,0.2,2.3,0.6c0.7,0.4,1.2,0.9,1.6,1.7c0.4,0.7,0.6,1.6,0.6,2.6s-0.2,1.9-0.6,2.6
	c-0.4,0.7-0.9,1.3-1.6,1.7c-0.7,0.4-1.4,0.6-2.3,0.6c-0.9,0-1.6-0.2-2.3-0.6c-0.7-0.4-1.2-0.9-1.6-1.7c-0.4-0.7-0.6-1.6-0.6-2.6
	s0.2-1.9,0.6-2.6c0.4-0.7,0.9-1.3,1.6-1.7C33.3,194.9,34.1,194.7,35,194.7z M35,195.5c-0.7,0-1.3,0.2-1.9,0.5
	c-0.5,0.3-0.9,0.8-1.2,1.4c-0.3,0.6-0.4,1.3-0.4,2.2c0,0.8,0.1,1.6,0.4,2.2c0.3,0.6,0.7,1.1,1.2,1.4c0.5,0.3,1.2,0.5,1.9,0.5
	s1.3-0.2,1.8-0.5s0.9-0.8,1.2-1.4c0.3-0.6,0.4-1.3,0.4-2.2c0-0.8-0.1-1.6-0.4-2.2c-0.3-0.6-0.7-1.1-1.2-1.4
	C36.3,195.7,35.7,195.5,35,195.5z M45.7,204.4c-0.8,0-1.5-0.2-2.2-0.6c-0.6-0.4-1.2-0.9-1.5-1.7c-0.4-0.7-0.5-1.6-0.5-2.6
	s0.2-1.9,0.6-2.6c0.4-0.7,0.9-1.3,1.6-1.6c0.7-0.4,1.4-0.6,2.2-0.6c0.9,0,1.6,0.2,2.2,0.7s1,1.1,1.2,1.9l-0.1,0.1v-6.8h0.9v13.6
	h-0.8l-0.1-2.6h0.1c-0.1,0.6-0.3,1.1-0.7,1.5c-0.3,0.4-0.8,0.7-1.3,1C46.9,204.3,46.3,204.4,45.7,204.4z M45.8,203.6
	c0.7,0,1.2-0.2,1.7-0.5s0.9-0.8,1.2-1.4c0.3-0.6,0.4-1.4,0.4-2.2s-0.1-1.5-0.4-2.1s-0.7-1-1.2-1.4c-0.5-0.3-1.1-0.5-1.7-0.5
	c-1.1,0-1.9,0.4-2.5,1.1c-0.6,0.7-0.9,1.7-0.9,2.9s0.3,2.2,0.9,3C44,203.2,44.8,203.6,45.8,203.6z M56.7,204.4
	c-0.6,0-1.2-0.1-1.7-0.3s-0.9-0.6-1.2-1.1c-0.3-0.5-0.4-1.1-0.4-1.9v-6.2h0.9v5.9c0,1,0.2,1.7,0.7,2.1c0.5,0.4,1.1,0.6,2,0.6
	c0.5,0,0.9-0.1,1.3-0.2c0.4-0.2,0.8-0.4,1-0.7c0.3-0.3,0.5-0.7,0.7-1.1c0.2-0.4,0.2-0.8,0.2-1.3v-5.4h0.9v9.3h-0.8v-1.9
	c-0.3,0.7-0.7,1.2-1.3,1.5C58.3,204.2,57.6,204.4,56.7,204.4z M68.2,194.7c0.6,0,1.2,0.1,1.7,0.3s0.9,0.5,1.3,0.9s0.6,0.8,0.8,1.4
	l-0.9,0.4c-0.2-0.7-0.6-1.2-1-1.6c-0.5-0.4-1.1-0.5-1.9-0.5c-0.7,0-1.3,0.2-1.8,0.5s-0.9,0.8-1.2,1.4c-0.3,0.6-0.4,1.3-0.4,2.2
	c0,0.8,0.1,1.6,0.4,2.2c0.3,0.6,0.7,1.1,1.2,1.4s1.1,0.5,1.8,0.5c0.5,0,1-0.1,1.4-0.2c0.4-0.2,0.8-0.4,1.1-0.8
	c0.3-0.3,0.5-0.7,0.6-1.2l0.9,0.3c-0.2,0.6-0.4,1.1-0.8,1.5s-0.8,0.7-1.3,0.9s-1.1,0.3-1.8,0.3c-0.8,0-1.6-0.2-2.3-0.6
	c-0.7-0.4-1.2-0.9-1.6-1.7c-0.4-0.7-0.5-1.6-0.5-2.6s0.2-1.9,0.6-2.6c0.4-0.7,0.9-1.3,1.6-1.7C66.6,194.9,67.4,194.7,68.2,194.7z
	 M76.1,192.3v9.5c0,0.6,0.1,1,0.4,1.3s0.7,0.5,1.2,0.5c0.4,0,0.7-0.1,0.9-0.2c0.3-0.1,0.5-0.3,0.7-0.5l0.3,0.8
	c-0.2,0.2-0.5,0.4-0.9,0.6c-0.4,0.1-0.8,0.2-1.2,0.2c-0.5,0-0.9-0.1-1.3-0.3s-0.7-0.5-0.9-0.8c-0.2-0.4-0.3-0.8-0.3-1.4v-9.3
	L76.1,192.3z M79.6,194.9v0.8h-6.3v-0.8H79.6z M81,207.1l-0.5-0.5c0.8-0.7,1.4-1.5,1.9-2.3s0.8-1.7,1.1-2.7c0.2-1,0.3-2,0.3-3.2
	c0-1.1-0.1-2.2-0.3-3.1c-0.2-1-0.6-1.9-1.1-2.7s-1.1-1.6-1.9-2.3l0.5-0.5c1.3,1.1,2.2,2.3,2.8,3.8c0.6,1.4,0.9,3.1,0.9,4.9
	c0,1.8-0.3,3.5-0.9,4.9C83.2,204.8,82.2,206.1,81,207.1z"/>
<path class="st2" d="M322.4,409.8c1.1,0,2,0.2,2.8,0.7c0.8,0.4,1.4,1.1,2,1.9l-1.2,1c-0.5-0.8-1-1.3-1.6-1.7
	c-0.6-0.3-1.3-0.5-2.1-0.5c-0.7,0-1.2,0.1-1.6,0.3c-0.4,0.2-0.7,0.4-0.9,0.7c-0.2,0.3-0.3,0.6-0.3,1s0.1,0.8,0.4,1.2
	c0.3,0.3,0.8,0.6,1.6,0.8l2.7,0.6c1.2,0.3,2,0.7,2.5,1.2s0.7,1.2,0.7,2c0,0.7-0.2,1.3-0.6,1.9c-0.4,0.5-0.9,1-1.7,1.3
	c-0.7,0.3-1.5,0.4-2.5,0.4c-0.9,0-1.7-0.1-2.4-0.4c-0.7-0.2-1.3-0.6-1.8-1s-0.9-0.9-1.2-1.4l1.3-1.1c0.2,0.5,0.5,0.9,0.9,1.2
	c0.4,0.4,0.8,0.6,1.4,0.8c0.5,0.2,1.1,0.3,1.8,0.3c0.6,0,1.2-0.1,1.7-0.2c0.5-0.2,0.8-0.4,1.1-0.7c0.2-0.3,0.4-0.7,0.4-1.1
	s-0.1-0.8-0.4-1.1c-0.3-0.3-0.8-0.6-1.5-0.7l-2.9-0.7c-0.8-0.2-1.4-0.4-1.8-0.7c-0.5-0.3-0.8-0.7-1-1.1s-0.3-0.9-0.3-1.4
	c0-0.7,0.2-1.3,0.5-1.8c0.4-0.6,0.9-1,1.6-1.3C320.6,409.9,321.4,409.8,322.4,409.8z M334,422.5c-0.9,0-1.7-0.2-2.4-0.6
	c-0.7-0.4-1.2-0.9-1.6-1.7c-0.4-0.7-0.6-1.6-0.6-2.6s0.2-1.9,0.6-2.6s0.9-1.3,1.6-1.7c0.7-0.4,1.4-0.6,2.3-0.6s1.6,0.2,2.2,0.6
	s1.1,0.9,1.4,1.5s0.5,1.3,0.5,2.1c0,0.2,0,0.4,0,0.6s0,0.3,0,0.5h-7.5v-1.3h6.9l-0.8,0.2c0-0.9-0.2-1.6-0.7-2.1s-1.1-0.7-1.9-0.7
	c-0.6,0-1.1,0.1-1.6,0.4c-0.4,0.3-0.8,0.7-1,1.2s-0.4,1.2-0.4,1.9c0,0.7,0.1,1.4,0.4,1.9c0.2,0.5,0.6,0.9,1,1.2
	c0.5,0.3,1,0.4,1.6,0.4c0.7,0,1.2-0.1,1.7-0.4c0.4-0.3,0.8-0.6,1-1.1l1.2,0.7c-0.2,0.4-0.5,0.8-0.9,1.1c-0.4,0.3-0.8,0.6-1.3,0.7
	C335.1,422.4,334.6,422.5,334,422.5z M342.8,410.3v9.4c0,0.5,0.1,0.8,0.4,1s0.6,0.3,1,0.3s0.7-0.1,0.9-0.2c0.3-0.1,0.5-0.3,0.7-0.5
	l0.5,1.2c-0.3,0.3-0.6,0.5-1,0.6s-0.8,0.2-1.4,0.2c-0.5,0-0.9-0.1-1.3-0.2c-0.4-0.2-0.7-0.4-1-0.8c-0.2-0.4-0.4-0.9-0.4-1.5v-9.2
	L342.8,410.3z M346.2,412.9v1.3h-6.8v-1.3H346.2z M349.4,410.3v9.4c0,0.5,0.1,0.8,0.4,1s0.6,0.3,1,0.3s0.7-0.1,0.9-0.2
	c0.3-0.1,0.5-0.3,0.7-0.5l0.5,1.2c-0.3,0.3-0.6,0.5-1,0.6s-0.8,0.2-1.4,0.2c-0.5,0-0.9-0.1-1.3-0.2c-0.4-0.2-0.7-0.4-1-0.8
	c-0.2-0.4-0.4-0.9-0.4-1.5v-9.2L349.4,410.3z M352.8,412.9v1.3H346v-1.3H352.8z M355.8,411.1c-0.3,0-0.6-0.1-0.8-0.3
	c-0.2-0.2-0.3-0.5-0.3-0.8s0.1-0.6,0.3-0.8c0.2-0.2,0.5-0.3,0.8-0.3s0.6,0.1,0.8,0.3c0.2,0.2,0.3,0.5,0.3,0.8s-0.1,0.6-0.3,0.8
	C356.4,411,356.1,411.1,355.8,411.1z M356.5,412.9v9.3H355v-9.3H356.5z M360,422.3V413h1.3l0.1,2.1l-0.2-0.2
	c0.2-0.5,0.5-0.9,0.8-1.2c0.3-0.3,0.7-0.5,1.2-0.7c0.4-0.1,0.9-0.2,1.4-0.2c0.7,0,1.3,0.1,1.8,0.4c0.6,0.2,1,0.6,1.3,1.2
	c0.3,0.5,0.5,1.2,0.5,2v6h-1.6v-5.5c0-1-0.2-1.7-0.7-2.1c-0.4-0.4-1-0.6-1.6-0.6c-0.4,0-0.9,0.1-1.3,0.3c-0.4,0.2-0.8,0.6-1.1,1
	c-0.3,0.5-0.4,1.1-0.4,1.9v5L360,422.3L360,422.3z M379.4,411.2l0.3,1.3c0,0,0,0-0.1,0c0,0,0,0-0.1,0c-0.6,0-1.1,0.1-1.4,0.4
	c-0.3,0.2-0.5,0.6-0.5,1.2l-0.9-0.5c0-0.5,0.1-0.9,0.3-1.3c0.2-0.4,0.5-0.6,0.9-0.8C378.4,411.3,378.8,411.2,379.4,411.2
	C379.3,411.2,379.3,411.2,379.4,411.2L379.4,411.2z M376.5,421.1c0.9,0,1.6,0.2,2.1,0.6s0.8,0.9,0.8,1.6c0,0.6-0.2,1.1-0.6,1.6
	c-0.4,0.4-0.9,0.8-1.6,1s-1.4,0.4-2.3,0.4c-1.5,0-2.6-0.2-3.3-0.8c-0.7-0.5-1.1-1.1-1.1-1.8c0-0.5,0.2-0.9,0.5-1.3s0.9-0.6,1.7-0.7
	l-0.1,0.3c-0.4-0.1-0.8-0.3-1.1-0.6c-0.3-0.3-0.4-0.7-0.4-1.2s0.2-0.9,0.6-1.3s1-0.6,1.7-0.7l1,0.5h-0.2c-0.6,0.1-1,0.2-1.3,0.5
	c-0.2,0.2-0.4,0.5-0.4,0.8s0.1,0.6,0.4,0.8c0.3,0.2,0.6,0.2,1.1,0.2h2.5V421.1z M374.8,425c0.7,0,1.3-0.1,1.8-0.2s0.8-0.3,1-0.6
	c0.2-0.2,0.3-0.5,0.3-0.8s-0.1-0.6-0.4-0.8c-0.3-0.2-0.7-0.3-1.4-0.3h-2.9c-0.4,0-0.7,0.1-1,0.3c-0.3,0.2-0.4,0.5-0.4,0.9
	c0,0.5,0.3,0.8,0.8,1.1C373.2,424.9,373.9,425,374.8,425z M374.7,412.8c0.8,0,1.4,0.1,2,0.4s1,0.6,1.4,1.1c0.3,0.5,0.5,1,0.5,1.6
	s-0.2,1.1-0.5,1.6s-0.8,0.9-1.4,1.1c-0.6,0.3-1.2,0.4-2,0.4c-1.2,0-2.2-0.3-2.8-0.9c-0.7-0.6-1-1.3-1-2.3c0-0.6,0.2-1.2,0.5-1.6
	c0.3-0.5,0.8-0.8,1.3-1.1C373.3,412.9,373.9,412.8,374.7,412.8z M374.7,414c-0.6,0-1.2,0.2-1.6,0.5c-0.4,0.4-0.7,0.8-0.7,1.4
	s0.2,1,0.7,1.4c0.4,0.4,1,0.5,1.6,0.5s1.2-0.2,1.6-0.5c0.4-0.4,0.7-0.8,0.7-1.4s-0.2-1.1-0.7-1.4C375.9,414.1,375.3,414,374.7,414z
	 M384.8,422.5c-0.9,0-1.7-0.2-2.5-0.6s-1.3-0.9-1.8-1.6l1.3-0.9c0.3,0.6,0.7,1,1.2,1.3s1.2,0.5,1.9,0.5c0.7,0,1.2-0.1,1.5-0.4
	c0.4-0.3,0.6-0.6,0.6-1c0-0.3-0.1-0.5-0.2-0.7s-0.5-0.4-1-0.5l-2.2-0.5c-0.9-0.2-1.6-0.5-2-0.9s-0.6-1-0.6-1.6c0-0.5,0.1-1,0.4-1.4
	s0.7-0.8,1.2-1c0.5-0.3,1.2-0.4,1.9-0.4c0.9,0,1.7,0.2,2.3,0.5c0.6,0.4,1.1,0.9,1.4,1.5l-1.2,0.8c-0.2-0.5-0.6-0.9-1-1.2
	c-0.5-0.3-1-0.4-1.5-0.4c-0.4,0-0.8,0.1-1.2,0.2c-0.3,0.1-0.6,0.3-0.7,0.5c-0.2,0.2-0.2,0.5-0.2,0.7c0,0.3,0.1,0.5,0.3,0.8
	c0.2,0.2,0.5,0.4,1,0.5l2.3,0.5c0.9,0.2,1.5,0.5,1.8,0.9c0.4,0.4,0.5,0.9,0.5,1.5s-0.2,1.1-0.5,1.5s-0.8,0.8-1.3,1
	C386.2,422.3,385.5,422.5,384.8,422.5z"/>
<path class="st2" d="M631.2,311.6v12.3h-1.5v-12.3H631.2z M623,311.6v12.3h-1.4v-12.3H623z M630.4,317v1.4h-8.1V317H630.4z
	 M635.7,312.8c-0.3,0-0.6-0.1-0.8-0.3c-0.2-0.2-0.3-0.5-0.3-0.8s0.1-0.6,0.3-0.8c0.2-0.2,0.5-0.3,0.8-0.3s0.6,0.1,0.8,0.3
	c0.2,0.2,0.3,0.5,0.3,0.8s-0.1,0.6-0.3,0.8C636.3,312.7,636.1,312.8,635.7,312.8z M636.5,314.6v9.3H635v-9.3H636.5z M643.3,324.1
	c-0.9,0-1.7-0.2-2.5-0.6s-1.3-0.9-1.8-1.6l1.3-0.9c0.3,0.6,0.7,1,1.2,1.3s1.2,0.5,1.9,0.5s1.2-0.1,1.5-0.4c0.4-0.3,0.6-0.6,0.6-1
	c0-0.3-0.1-0.5-0.2-0.7c-0.2-0.2-0.5-0.4-1-0.5l-2.2-0.5c-0.9-0.2-1.6-0.5-2-0.9s-0.6-1-0.6-1.6c0-0.5,0.1-1,0.4-1.4
	c0.3-0.4,0.7-0.8,1.2-1c0.5-0.3,1.2-0.4,1.9-0.4c0.9,0,1.7,0.2,2.3,0.5c0.6,0.4,1.1,0.9,1.4,1.5l-1.1,0.9c-0.2-0.5-0.6-0.9-1-1.2
	c-0.5-0.3-1-0.4-1.5-0.4c-0.4,0-0.8,0.1-1.2,0.2c-0.3,0.1-0.6,0.3-0.7,0.5c-0.2,0.2-0.2,0.5-0.2,0.7c0,0.3,0.1,0.5,0.3,0.8
	c0.2,0.2,0.5,0.4,1,0.5l2.3,0.5c0.9,0.2,1.5,0.5,1.8,0.9c0.4,0.4,0.5,0.9,0.5,1.5s-0.2,1.1-0.5,1.5s-0.8,0.8-1.3,1
	C644.7,324,644,324.1,643.3,324.1z M652,312v9.4c0,0.5,0.1,0.8,0.4,1c0.3,0.2,0.6,0.3,1,0.3s0.7-0.1,0.9-0.2
	c0.3-0.1,0.5-0.3,0.7-0.5l0.5,1.2c-0.3,0.3-0.6,0.5-1,0.6s-0.8,0.2-1.4,0.2c-0.5,0-0.9-0.1-1.3-0.2c-0.4-0.2-0.7-0.4-1-0.8
	c-0.2-0.4-0.4-0.9-0.4-1.5v-9.2L652,312z M655.4,314.6v1.3h-6.8v-1.3H655.4z M661.4,314.4c0.9,0,1.7,0.2,2.3,0.6
	c0.7,0.4,1.2,0.9,1.6,1.7c0.4,0.7,0.6,1.6,0.6,2.6s-0.2,1.9-0.6,2.6c-0.4,0.7-0.9,1.3-1.6,1.7c-0.7,0.4-1.5,0.6-2.3,0.6
	c-0.9,0-1.6-0.2-2.3-0.6s-1.2-0.9-1.6-1.7c-0.4-0.7-0.6-1.6-0.6-2.6s0.2-1.9,0.6-2.6c0.4-0.7,0.9-1.3,1.6-1.7
	C659.8,314.6,660.6,314.4,661.4,314.4z M661.4,315.7c-0.6,0-1.2,0.1-1.6,0.4c-0.4,0.3-0.8,0.7-1,1.2s-0.4,1.2-0.4,1.9
	c0,0.7,0.1,1.4,0.4,1.9c0.2,0.5,0.6,0.9,1,1.2c0.4,0.3,1,0.4,1.6,0.4s1.2-0.1,1.6-0.4c0.4-0.3,0.8-0.7,1-1.2s0.4-1.2,0.4-1.9
	c0-0.7-0.1-1.4-0.4-1.9c-0.2-0.5-0.6-0.9-1-1.2C662.6,315.9,662.1,315.7,661.4,315.7z M668.8,323.9v-9.3h1.2l0.2,1.5
	c0.3-0.6,0.6-1,1.1-1.3s1.1-0.4,1.8-0.4c0.2,0,0.3,0,0.5,0s0.4,0.1,0.5,0.1l-0.2,1.4c-0.1-0.1-0.3-0.1-0.5-0.1s-0.4,0-0.7,0
	c-0.4,0-0.8,0.1-1.2,0.3c-0.4,0.2-0.7,0.6-1,1s-0.4,1-0.4,1.7v5L668.8,323.9L668.8,323.9z M684.1,314.6l-4.4,10.9
	c-0.2,0.6-0.5,1.1-0.8,1.5s-0.6,0.6-0.9,0.8s-0.7,0.2-1.2,0.2c-0.4,0-0.8-0.1-1.2-0.2s-0.7-0.3-0.9-0.5l0.4-1.3
	c0.2,0.2,0.5,0.4,0.8,0.5s0.6,0.2,0.8,0.2c0.3,0,0.6-0.1,0.9-0.3c0.3-0.2,0.6-0.6,0.8-1.2l0.5-1.2l-0.9-2.2l-3-7.1h1.7l2.3,6.1
	l0.6,1.7l0.7-1.9l2.2-5.9h1.6V314.6z"/>
<path class="st1" d="M566.5,259.8v58.9h44"/>
<path class="st2" d="M431,451.8c-0.3,0.7-0.6,1.3-1.1,1.8s-1,0.9-1.7,1.1c-0.6,0.3-1.4,0.4-2.1,0.4c-1.2,0-2.2-0.3-3-0.8
	s-1.5-1.3-2-2.2c-0.5-0.9-0.7-2.1-0.7-3.4s0.2-2.4,0.7-3.4c0.5-0.9,1.1-1.7,2-2.2s1.9-0.8,3-0.8c0.8,0,1.5,0.1,2.1,0.3
	c0.6,0.2,1.2,0.5,1.6,1c0.4,0.4,0.8,1,1.1,1.6l-1.5,0.7c-0.3-0.7-0.7-1.2-1.2-1.6s-1.2-0.5-2-0.5s-1.6,0.2-2.2,0.6s-1.1,0.9-1.5,1.7
	c-0.4,0.7-0.5,1.6-0.5,2.7c0,1,0.2,1.9,0.5,2.7c0.3,0.7,0.8,1.3,1.4,1.7c0.6,0.4,1.4,0.6,2.2,0.6c0.8,0,1.5-0.2,2.1-0.6
	s1.1-1,1.3-1.9L431,451.8z M439.1,448.9c0-0.7-0.2-1.2-0.6-1.6s-0.9-0.6-1.6-0.6c-0.6,0-1.2,0.1-1.6,0.4s-0.8,0.7-1,1.3l-1.2-0.8
	c0.2-0.7,0.7-1.3,1.4-1.7c0.7-0.4,1.5-0.6,2.5-0.6c0.7,0,1.3,0.1,1.8,0.3c0.6,0.2,1,0.6,1.3,1c0.3,0.5,0.5,1.1,0.5,1.8v4.5
	c0,0.4,0.2,0.7,0.7,0.7c0.2,0,0.5,0,0.7-0.1l-0.1,1.2c-0.2,0.1-0.6,0.2-1,0.2s-0.7-0.1-1-0.2s-0.5-0.3-0.7-0.6
	c-0.2-0.3-0.2-0.6-0.2-1v-0.2h0.4c-0.1,0.5-0.4,0.9-0.8,1.2c-0.4,0.3-0.8,0.5-1.2,0.7c-0.4,0.1-0.9,0.2-1.3,0.2
	c-0.6,0-1.1-0.1-1.5-0.3c-0.5-0.2-0.8-0.5-1.1-0.8c-0.3-0.4-0.4-0.9-0.4-1.4c0-0.7,0.2-1.3,0.7-1.7c0.5-0.5,1.1-0.8,2-0.9l3.7-0.7
	v1.2l-3,0.6c-0.6,0.1-1.1,0.3-1.4,0.5s-0.4,0.5-0.4,0.9s0.2,0.7,0.5,0.9c0.3,0.2,0.7,0.4,1.3,0.4c0.4,0,0.7,0,1-0.1s0.6-0.2,0.9-0.4
	c0.3-0.2,0.5-0.4,0.6-0.7c0.2-0.3,0.2-0.6,0.2-1L439.1,448.9L439.1,448.9z M445.6,441.3v11.2c0,0.5,0.1,0.8,0.2,1
	c0.2,0.2,0.5,0.3,0.8,0.3c0.2,0,0.5,0,0.6,0c0.2,0,0.4-0.1,0.7-0.2l-0.2,1.3c-0.2,0.1-0.4,0.2-0.7,0.2c-0.2,0-0.5,0.1-0.7,0.1
	c-0.8,0-1.3-0.2-1.7-0.6c-0.4-0.4-0.5-1-0.5-1.9v-11.4H445.6z M453.8,455.1c-0.9,0-1.7-0.2-2.4-0.6c-0.7-0.4-1.2-0.9-1.6-1.7
	c-0.4-0.7-0.6-1.6-0.6-2.6s0.2-1.9,0.6-2.6s0.9-1.3,1.6-1.7c0.7-0.4,1.4-0.6,2.3-0.6s1.6,0.2,2.2,0.6s1.1,0.9,1.4,1.5
	s0.5,1.3,0.5,2.1c0,0.2,0,0.4,0,0.6s0,0.3,0,0.5h-7.5v-1.3h6.9l-0.8,0.2c0-0.9-0.2-1.6-0.7-2.1s-1.1-0.7-1.9-0.7
	c-0.6,0-1.1,0.1-1.6,0.4c-0.4,0.3-0.8,0.7-1,1.2s-0.4,1.2-0.4,1.9c0,0.7,0.1,1.4,0.4,1.9c0.2,0.5,0.6,0.9,1,1.2
	c0.5,0.3,1,0.4,1.6,0.4c0.7,0,1.2-0.1,1.7-0.4c0.4-0.3,0.8-0.6,1-1.1l1.2,0.7c-0.2,0.4-0.5,0.8-0.9,1.1c-0.4,0.3-0.8,0.6-1.3,0.7
	C454.9,455,454.4,455.1,453.8,455.1z M460.6,454.9v-9.3h1.3l0.1,2.1l-0.2-0.2c0.2-0.5,0.5-0.9,0.8-1.2c0.3-0.3,0.7-0.5,1.2-0.7
	c0.4-0.1,0.9-0.2,1.4-0.2c0.7,0,1.3,0.1,1.8,0.4c0.6,0.3,1,0.6,1.3,1.2c0.3,0.5,0.5,1.2,0.5,2v6h-1.5v-5.5c0-1-0.2-1.7-0.7-2.1
	c-0.4-0.4-1-0.6-1.6-0.6c-0.4,0-0.9,0.1-1.3,0.3c-0.4,0.2-0.8,0.6-1.1,1c-0.3,0.5-0.4,1.1-0.4,1.9v5L460.6,454.9L460.6,454.9z
	 M475.8,455.1c-0.8,0-1.5-0.2-2.1-0.6s-1.2-0.9-1.5-1.7c-0.4-0.7-0.6-1.6-0.6-2.6s0.2-1.9,0.6-2.6s0.9-1.3,1.6-1.6
	c0.7-0.4,1.4-0.6,2.2-0.6c0.8,0,1.4,0.2,2,0.6s1,0.9,1.1,1.6l-0.2,0.1v-6.4h1.5v13.6h-1.3l-0.1-2.2l0.2-0.1c-0.1,0.6-0.3,1-0.6,1.4
	c-0.3,0.4-0.7,0.7-1.2,0.9C476.9,455,476.4,455.1,475.8,455.1z M476,453.8c0.6,0,1.1-0.1,1.6-0.4c0.4-0.3,0.8-0.7,1-1.3
	c0.2-0.6,0.4-1.2,0.4-2c0-0.7-0.1-1.3-0.4-1.8c-0.2-0.5-0.6-0.9-1-1.2c-0.4-0.3-0.9-0.4-1.5-0.4c-0.9,0-1.7,0.3-2.2,1
	c-0.5,0.6-0.8,1.5-0.8,2.6s0.3,1.9,0.8,2.6C474.3,453.5,475,453.8,476,453.8z M489.3,448.9c0-0.7-0.2-1.2-0.6-1.6s-0.9-0.6-1.6-0.6
	c-0.6,0-1.2,0.1-1.6,0.4s-0.8,0.7-1,1.3l-1.2-0.8c0.2-0.7,0.7-1.3,1.4-1.7c0.7-0.4,1.5-0.6,2.5-0.6c0.7,0,1.3,0.1,1.8,0.3
	c0.6,0.2,1,0.6,1.3,1c0.3,0.5,0.5,1.1,0.5,1.8v4.5c0,0.4,0.2,0.7,0.7,0.7c0.2,0,0.5,0,0.7-0.1l-0.1,1.2c-0.2,0.1-0.6,0.2-1,0.2
	s-0.7-0.1-1-0.2s-0.5-0.3-0.7-0.6c-0.2-0.3-0.2-0.6-0.2-1v-0.2h0.4c-0.1,0.5-0.4,0.9-0.8,1.2c-0.4,0.3-0.8,0.5-1.2,0.7
	c-0.4,0.1-0.9,0.2-1.3,0.2c-0.6,0-1.1-0.1-1.5-0.3c-0.5-0.2-0.8-0.5-1.1-0.8c-0.3-0.4-0.4-0.9-0.4-1.4c0-0.7,0.2-1.3,0.7-1.7
	c0.5-0.5,1.1-0.8,2-0.9l3.7-0.7v1.2l-3,0.6c-0.6,0.1-1.1,0.3-1.4,0.5s-0.4,0.5-0.4,0.9s0.2,0.7,0.5,0.9c0.3,0.2,0.7,0.4,1.3,0.4
	c0.4,0,0.7,0,1-0.1s0.6-0.2,0.9-0.4c0.3-0.2,0.5-0.4,0.6-0.7c0.2-0.3,0.2-0.6,0.2-1L489.3,448.9L489.3,448.9z M494.4,454.9v-9.3h1.2
	l0.2,1.5c0.3-0.6,0.6-1,1.1-1.3s1.1-0.4,1.8-0.4c0.2,0,0.3,0,0.5,0s0.4,0.1,0.5,0.1l-0.2,1.4c-0.1-0.1-0.3-0.1-0.5-0.1s-0.4,0-0.7,0
	c-0.4,0-0.8,0.1-1.2,0.3c-0.4,0.2-0.7,0.6-1,1s-0.4,1-0.4,1.7v5L494.4,454.9L494.4,454.9z M511.8,445.4c0.6,0,1.2,0.1,1.7,0.3
	c0.5,0.2,0.9,0.5,1.3,0.9c0.4,0.4,0.7,0.8,0.9,1.3l-1.4,0.7c-0.2-0.6-0.5-1-0.9-1.4c-0.4-0.3-0.9-0.5-1.6-0.5
	c-0.6,0-1.2,0.1-1.6,0.4c-0.4,0.3-0.8,0.7-1,1.2s-0.3,1.2-0.3,1.9c0,0.7,0.1,1.4,0.3,1.9s0.6,0.9,1,1.2c0.4,0.3,1,0.4,1.6,0.4
	c0.5,0,0.9-0.1,1.2-0.2c0.4-0.1,0.6-0.4,0.9-0.6c0.2-0.3,0.4-0.6,0.5-1.1l1.4,0.5c-0.2,0.6-0.5,1.1-0.9,1.5s-0.8,0.7-1.3,0.9
	c-0.5,0.2-1.1,0.3-1.8,0.3c-0.9,0-1.6-0.2-2.3-0.6s-1.2-0.9-1.6-1.7c-0.4-0.7-0.6-1.6-0.6-2.6s0.2-1.9,0.6-2.6
	c0.4-0.7,0.9-1.3,1.6-1.7C510.2,445.6,511,445.4,511.8,445.4z M522.3,445.4c0.9,0,1.7,0.2,2.3,0.6c0.7,0.4,1.2,0.9,1.6,1.7
	c0.4,0.7,0.6,1.6,0.6,2.6s-0.2,1.9-0.6,2.6c-0.4,0.7-0.9,1.3-1.6,1.7c-0.7,0.4-1.5,0.6-2.3,0.6c-0.9,0-1.6-0.2-2.3-0.6
	s-1.2-0.9-1.6-1.7c-0.4-0.7-0.6-1.6-0.6-2.6s0.2-1.9,0.6-2.6c0.4-0.7,0.9-1.3,1.6-1.7C520.6,445.6,521.4,445.4,522.3,445.4z
	 M522.3,446.7c-0.6,0-1.2,0.1-1.6,0.4c-0.4,0.3-0.8,0.7-1,1.2s-0.4,1.2-0.4,1.9c0,0.7,0.1,1.4,0.4,1.9c0.2,0.5,0.6,0.9,1,1.2
	c0.4,0.3,1,0.4,1.6,0.4s1.2-0.1,1.6-0.4c0.4-0.3,0.8-0.7,1-1.2s0.4-1.2,0.4-1.9c0-0.7-0.1-1.4-0.4-1.9c-0.2-0.5-0.6-0.9-1-1.2
	C523.5,446.8,522.9,446.7,522.3,446.7z M529.6,454.9v-9.3h1.3l0.1,2.1l-0.2-0.2c0.2-0.5,0.5-0.9,0.8-1.2c0.3-0.3,0.7-0.5,1.2-0.7
	c0.4-0.1,0.9-0.2,1.4-0.2c0.7,0,1.3,0.1,1.8,0.4c0.6,0.3,1,0.6,1.3,1.2c0.3,0.5,0.5,1.2,0.5,2v6h-1.5v-5.5c0-1-0.2-1.7-0.7-2.1
	c-0.4-0.4-1-0.6-1.6-0.6c-0.4,0-0.9,0.1-1.3,0.3c-0.4,0.2-0.8,0.6-1.1,1c-0.3,0.5-0.4,1.1-0.4,1.9v5L529.6,454.9L529.6,454.9z
	 M541.2,454.9v-9.3h1.3l0.1,2.1l-0.2-0.2c0.2-0.5,0.5-0.9,0.8-1.2c0.3-0.3,0.7-0.5,1.2-0.7c0.4-0.1,0.9-0.2,1.4-0.2
	c0.7,0,1.3,0.1,1.8,0.4c0.6,0.3,1,0.6,1.3,1.2c0.3,0.5,0.5,1.2,0.5,2v6h-1.5v-5.5c0-1-0.2-1.7-0.7-2.1c-0.4-0.4-1-0.6-1.6-0.6
	c-0.4,0-0.9,0.1-1.3,0.3c-0.4,0.2-0.8,0.6-1.1,1c-0.3,0.5-0.4,1.1-0.4,1.9v5L541.2,454.9L541.2,454.9z M556.6,455.1
	c-0.9,0-1.7-0.2-2.4-0.6s-1.2-0.9-1.6-1.7c-0.4-0.7-0.6-1.6-0.6-2.6s0.2-1.9,0.6-2.6c0.4-0.7,0.9-1.3,1.6-1.7
	c0.7-0.4,1.4-0.6,2.3-0.6c0.9,0,1.6,0.2,2.2,0.6c0.6,0.4,1.1,0.9,1.4,1.5c0.3,0.6,0.5,1.3,0.5,2.1c0,0.2,0,0.4,0,0.6s0,0.3,0,0.5
	h-7.5v-1.3h6.9l-0.8,0.2c0-0.9-0.2-1.6-0.7-2.1s-1.1-0.7-1.9-0.7c-0.6,0-1.1,0.1-1.6,0.4c-0.4,0.3-0.8,0.7-1,1.2s-0.4,1.2-0.4,1.9
	c0,0.7,0.1,1.4,0.4,1.9c0.2,0.5,0.6,0.9,1,1.2c0.5,0.3,1,0.4,1.6,0.4c0.7,0,1.2-0.1,1.7-0.4c0.4-0.3,0.8-0.6,1-1.1l1.2,0.7
	c-0.2,0.4-0.5,0.8-0.9,1.1c-0.4,0.3-0.8,0.6-1.3,0.7C557.8,455,557.2,455.1,556.6,455.1z M567.3,445.4c0.6,0,1.2,0.1,1.7,0.3
	c0.5,0.2,0.9,0.5,1.3,0.9c0.4,0.4,0.7,0.8,0.9,1.3l-1.4,0.7c-0.2-0.6-0.5-1-0.9-1.4c-0.4-0.3-0.9-0.5-1.6-0.5
	c-0.6,0-1.2,0.1-1.6,0.4c-0.4,0.3-0.8,0.7-1,1.2s-0.3,1.2-0.3,1.9c0,0.7,0.1,1.4,0.3,1.9s0.6,0.9,1,1.2c0.4,0.3,1,0.4,1.6,0.4
	c0.5,0,0.9-0.1,1.2-0.2c0.4-0.1,0.6-0.4,0.9-0.6c0.2-0.3,0.4-0.6,0.5-1.1l1.4,0.5c-0.2,0.6-0.5,1.1-0.9,1.5s-0.8,0.7-1.3,0.9
	c-0.5,0.2-1.1,0.3-1.8,0.3c-0.9,0-1.6-0.2-2.3-0.6s-1.2-0.9-1.6-1.7c-0.4-0.7-0.6-1.6-0.6-2.6s0.2-1.9,0.6-2.6
	c0.4-0.7,0.9-1.3,1.6-1.7C565.7,445.6,566.5,445.4,567.3,445.4z M576.1,442.9v9.4c0,0.5,0.1,0.8,0.4,1c0.3,0.2,0.6,0.3,1,0.3
	s0.7-0.1,0.9-0.2c0.3-0.1,0.5-0.3,0.7-0.5l0.5,1.2c-0.3,0.3-0.6,0.5-1,0.6s-0.8,0.2-1.4,0.2c-0.5,0-0.9-0.1-1.3-0.2
	c-0.4-0.2-0.7-0.4-1-0.8c-0.2-0.4-0.4-0.9-0.4-1.5v-9.2L576.1,442.9z M579.5,445.6v1.3h-6.8v-1.3H579.5z M582.5,443.8
	c-0.3,0-0.6-0.1-0.8-0.3c-0.2-0.2-0.3-0.5-0.3-0.8s0.1-0.6,0.3-0.8c0.2-0.2,0.5-0.3,0.8-0.3s0.6,0.1,0.8,0.3
	c0.2,0.2,0.3,0.5,0.3,0.8s-0.1,0.6-0.3,0.8S582.8,443.8,582.5,443.8z M583.2,445.6v9.3h-1.5v-9.3H583.2z M590.6,445.4
	c0.9,0,1.7,0.2,2.3,0.6c0.7,0.4,1.2,0.9,1.6,1.7c0.4,0.7,0.6,1.6,0.6,2.6s-0.2,1.9-0.6,2.6c-0.4,0.7-0.9,1.3-1.6,1.7
	c-0.7,0.4-1.5,0.6-2.3,0.6c-0.9,0-1.6-0.2-2.3-0.6s-1.2-0.9-1.6-1.7c-0.4-0.7-0.6-1.6-0.6-2.6s0.2-1.9,0.6-2.6
	c0.4-0.7,0.9-1.3,1.6-1.7C588.9,445.6,589.7,445.4,590.6,445.4z M590.6,446.7c-0.6,0-1.2,0.1-1.6,0.4c-0.4,0.3-0.8,0.7-1,1.2
	s-0.4,1.2-0.4,1.9c0,0.7,0.1,1.4,0.4,1.9c0.2,0.5,0.6,0.9,1,1.2c0.4,0.3,1,0.4,1.6,0.4s1.2-0.1,1.6-0.4c0.4-0.3,0.8-0.7,1-1.2
	s0.4-1.2,0.4-1.9c0-0.7-0.1-1.4-0.4-1.9c-0.2-0.5-0.6-0.9-1-1.2C591.7,446.8,591.2,446.7,590.6,446.7z M597.9,454.9v-9.3h1.3
	l0.1,2.1l-0.2-0.2c0.2-0.5,0.5-0.9,0.8-1.2c0.3-0.3,0.7-0.5,1.2-0.7c0.4-0.1,0.9-0.2,1.4-0.2c0.7,0,1.3,0.1,1.8,0.4
	c0.6,0.3,1,0.6,1.3,1.2c0.3,0.5,0.5,1.2,0.5,2v6h-1.5v-5.5c0-1-0.2-1.7-0.7-2.1c-0.4-0.4-1-0.6-1.6-0.6c-0.4,0-0.9,0.1-1.3,0.3
	c-0.4,0.2-0.8,0.6-1.1,1c-0.3,0.5-0.4,1.1-0.4,1.9v5L597.9,454.9L597.9,454.9z"/>
<path class="st2" d="M426.1,379.9c-1.2,0-2.2-0.3-3-0.8s-1.5-1.3-2-2.2c-0.5-0.9-0.7-2.1-0.7-3.4s0.2-2.4,0.7-3.4
	c0.5-0.9,1.2-1.7,2.1-2.2s1.9-0.8,3-0.8c1.2,0,2.2,0.2,3,0.7s1.4,1.2,1.9,2.1l-1.4,0.8c-0.3-0.7-0.7-1.2-1.3-1.6
	c-0.6-0.4-1.3-0.5-2.2-0.5c-0.8,0-1.6,0.2-2.2,0.6s-1.1,0.9-1.5,1.7c-0.4,0.7-0.5,1.6-0.5,2.7s0.2,1.9,0.5,2.7
	c0.3,0.7,0.8,1.3,1.4,1.7c0.6,0.4,1.4,0.6,2.3,0.6c0.5,0,1-0.1,1.4-0.2s0.8-0.3,1.2-0.6c0.3-0.3,0.6-0.6,0.8-1
	c0.2-0.4,0.3-0.9,0.3-1.4V375H426v-1.4h5.3v6.2h-1.2l-0.1-2.3l0.3,0.1c-0.3,0.8-0.8,1.4-1.5,1.8
	C427.9,379.7,427.1,379.9,426.1,379.9z M438.2,370.2c0.9,0,1.7,0.2,2.3,0.6c0.7,0.4,1.2,0.9,1.6,1.7c0.4,0.7,0.6,1.6,0.6,2.6
	s-0.2,1.9-0.6,2.6s-0.9,1.3-1.6,1.7c-0.7,0.4-1.5,0.6-2.3,0.6c-0.9,0-1.6-0.2-2.3-0.6c-0.7-0.4-1.2-0.9-1.6-1.7
	c-0.4-0.7-0.6-1.6-0.6-2.6s0.2-1.9,0.6-2.6s0.9-1.3,1.6-1.7C436.5,370.4,437.3,370.2,438.2,370.2z M438.2,371.5
	c-0.6,0-1.2,0.1-1.6,0.4s-0.8,0.7-1,1.2s-0.4,1.2-0.4,1.9c0,0.7,0.1,1.4,0.4,1.9c0.2,0.5,0.6,0.9,1,1.2c0.4,0.3,1,0.4,1.6,0.4
	s1.2-0.1,1.6-0.4s0.8-0.7,1-1.2s0.4-1.2,0.4-1.9c0-0.7-0.1-1.4-0.4-1.9c-0.2-0.5-0.6-0.9-1-1.2C439.3,371.7,438.8,371.5,438.2,371.5
	z M451,373.7c0-0.7-0.2-1.2-0.6-1.6s-0.9-0.6-1.6-0.6c-0.6,0-1.2,0.1-1.6,0.4s-0.8,0.7-1,1.3l-1.2-0.8c0.2-0.7,0.7-1.3,1.4-1.7
	c0.7-0.4,1.5-0.6,2.5-0.6c0.7,0,1.3,0.1,1.8,0.3c0.6,0.2,1,0.6,1.3,1c0.3,0.5,0.5,1.1,0.5,1.8v4.5c0,0.4,0.2,0.7,0.7,0.7
	c0.2,0,0.5,0,0.7-0.1l-0.1,1.2c-0.2,0.1-0.6,0.2-1,0.2s-0.7-0.1-1-0.2s-0.5-0.3-0.7-0.6c-0.2-0.3-0.2-0.6-0.2-1v-0.2h0.4
	c-0.1,0.5-0.4,0.9-0.8,1.2c-0.4,0.3-0.8,0.5-1.2,0.7c-0.4,0.1-0.9,0.2-1.3,0.2c-0.6,0-1.1-0.1-1.5-0.3s-0.8-0.5-1.1-0.8
	c-0.3-0.4-0.4-0.9-0.4-1.4c0-0.7,0.2-1.3,0.7-1.7c0.5-0.5,1.1-0.8,2-0.9l3.7-0.7v1.2l-3,0.6c-0.6,0.1-1.1,0.3-1.4,0.5
	s-0.4,0.5-0.4,0.9s0.2,0.7,0.5,0.9c0.3,0.2,0.7,0.4,1.3,0.4c0.4,0,0.7,0,1-0.1s0.6-0.2,0.9-0.4c0.3-0.2,0.5-0.4,0.6-0.7
	c0.2-0.3,0.2-0.6,0.2-1L451,373.7L451,373.7z M457.5,366.1v11.2c0,0.5,0.1,0.8,0.2,1c0.2,0.2,0.5,0.3,0.8,0.3c0.2,0,0.5,0,0.6,0
	c0.2,0,0.4-0.1,0.7-0.2l-0.2,1.3c-0.2,0.1-0.4,0.2-0.7,0.2c-0.2,0-0.5,0.1-0.7,0.1c-0.8,0-1.3-0.2-1.7-0.6c-0.4-0.4-0.5-1-0.5-1.9
	v-11.3h1.5V366.1z M465.1,379.9c-0.9,0-1.7-0.2-2.5-0.6s-1.3-0.9-1.8-1.6l1.3-0.9c0.3,0.6,0.7,1,1.2,1.3s1.2,0.5,1.9,0.5
	c0.7,0,1.2-0.1,1.5-0.4c0.4-0.3,0.6-0.6,0.6-1c0-0.3-0.1-0.5-0.2-0.7s-0.5-0.4-1-0.5l-2.2-0.5c-0.9-0.2-1.6-0.5-2-0.9
	s-0.6-1-0.6-1.6c0-0.5,0.1-1,0.4-1.4s0.7-0.8,1.2-1c0.5-0.3,1.2-0.4,1.9-0.4c0.9,0,1.7,0.2,2.3,0.5c0.6,0.4,1.1,0.9,1.4,1.5
	l-1.2,0.8c-0.2-0.5-0.6-0.9-1-1.2c-0.5-0.3-1-0.4-1.5-0.4c-0.4,0-0.8,0.1-1.2,0.2c-0.3,0.1-0.6,0.3-0.7,0.5
	c-0.2,0.2-0.2,0.5-0.2,0.7c0,0.3,0.1,0.5,0.3,0.8c0.2,0.2,0.5,0.4,1,0.5l2.3,0.5c0.9,0.2,1.5,0.5,1.8,0.9c0.4,0.4,0.5,0.9,0.5,1.5
	s-0.2,1.1-0.5,1.5s-0.8,0.8-1.3,1C466.5,379.8,465.9,379.9,465.1,379.9z M481.4,365.7l0.9,0.9c-0.8,0.8-1.5,1.5-2,2.4
	c-0.5,0.8-0.8,1.7-1,2.6s-0.3,1.9-0.3,2.9s0.1,2,0.3,2.9c0.2,0.9,0.6,1.8,1,2.6c0.5,0.8,1.1,1.6,2,2.4l-0.9,0.9
	c-1.3-1.1-2.3-2.5-3-3.9c-0.7-1.5-1-3.1-1-4.9s0.3-3.4,1-4.8C479,368.2,480,366.9,481.4,365.7z M488.2,367.2c1.1,0,2,0.2,2.8,0.7
	c0.8,0.4,1.4,1.1,2,1.9l-1.2,1c-0.5-0.8-1-1.3-1.6-1.7c-0.6-0.3-1.3-0.5-2.1-0.5c-0.7,0-1.2,0.1-1.6,0.3c-0.4,0.2-0.7,0.4-0.9,0.7
	c-0.2,0.3-0.3,0.6-0.3,1s0.1,0.8,0.4,1.2c0.3,0.3,0.8,0.6,1.6,0.8l2.7,0.6c1.2,0.3,2,0.7,2.5,1.2s0.7,1.2,0.7,2
	c0,0.7-0.2,1.3-0.6,1.9c-0.4,0.5-0.9,1-1.7,1.3c-0.7,0.3-1.5,0.4-2.5,0.4c-0.9,0-1.7-0.1-2.4-0.4c-0.7-0.2-1.3-0.6-1.8-1
	s-0.9-0.9-1.2-1.4l1.3-1.1c0.2,0.5,0.5,0.9,0.9,1.2c0.4,0.4,0.8,0.6,1.4,0.8c0.5,0.2,1.1,0.3,1.8,0.3c0.6,0,1.2-0.1,1.7-0.2
	c0.5-0.2,0.8-0.4,1.1-0.7c0.2-0.3,0.4-0.7,0.4-1.1s-0.1-0.8-0.4-1.1c-0.3-0.3-0.8-0.6-1.5-0.7l-2.9-0.7c-0.8-0.2-1.4-0.4-1.8-0.7
	c-0.5-0.3-0.8-0.7-1-1.1s-0.3-0.9-0.3-1.4c0-0.7,0.2-1.3,0.5-1.8c0.4-0.6,0.9-1,1.6-1.3C486.4,367.4,487.3,367.2,488.2,367.2z
	 M499.2,379.9c-0.6,0-1.2-0.1-1.7-0.3c-0.5-0.2-1-0.6-1.3-1.1s-0.5-1.2-0.5-2v-6.1h1.5v5.7c0,0.9,0.2,1.6,0.6,1.9
	c0.4,0.4,1,0.5,1.7,0.5c0.3,0,0.7-0.1,1-0.2s0.6-0.3,0.9-0.5c0.3-0.3,0.5-0.6,0.6-1c0.2-0.4,0.2-0.9,0.2-1.4v-5.1h1.5v9.3h-1.1
	l-0.1-1.4c-0.3,0.6-0.8,1-1.3,1.2C500.6,379.8,500,379.9,499.2,379.9z M511.2,370.2c0.6,0,1.2,0.1,1.7,0.3c0.5,0.2,0.9,0.5,1.3,0.9
	c0.4,0.4,0.7,0.8,0.9,1.3l-1.4,0.7c-0.2-0.6-0.5-1-0.9-1.4c-0.4-0.3-0.9-0.5-1.6-0.5c-0.6,0-1.2,0.1-1.6,0.4c-0.4,0.3-0.8,0.7-1,1.2
	s-0.3,1.2-0.3,1.9c0,0.7,0.1,1.4,0.3,1.9s0.6,0.9,1,1.2c0.4,0.3,1,0.4,1.6,0.4c0.5,0,0.9-0.1,1.2-0.2c0.4-0.1,0.6-0.4,0.9-0.6
	c0.2-0.3,0.4-0.6,0.5-1.1l1.4,0.5c-0.2,0.6-0.5,1.1-0.9,1.5s-0.8,0.7-1.3,0.9s-1.1,0.3-1.8,0.3c-0.9,0-1.6-0.2-2.3-0.6
	s-1.2-0.9-1.6-1.7c-0.4-0.7-0.6-1.6-0.6-2.6s0.2-1.9,0.6-2.6c0.4-0.7,0.9-1.3,1.6-1.7C509.6,370.4,510.3,370.2,511.2,370.2z
	 M521.7,370.2c0.6,0,1.2,0.1,1.7,0.3c0.5,0.2,0.9,0.5,1.3,0.9c0.4,0.4,0.7,0.8,0.9,1.3l-1.4,0.7c-0.2-0.6-0.5-1-0.9-1.4
	c-0.4-0.3-0.9-0.5-1.6-0.5c-0.6,0-1.2,0.1-1.6,0.4c-0.4,0.3-0.8,0.7-1,1.2s-0.3,1.2-0.3,1.9c0,0.7,0.1,1.4,0.3,1.9s0.6,0.9,1,1.2
	c0.4,0.3,1,0.4,1.6,0.4c0.5,0,0.9-0.1,1.2-0.2c0.4-0.1,0.6-0.4,0.9-0.6c0.2-0.3,0.4-0.6,0.5-1.1l1.4,0.5c-0.2,0.6-0.5,1.1-0.9,1.5
	s-0.8,0.7-1.3,0.9s-1.1,0.3-1.8,0.3c-0.9,0-1.6-0.2-2.3-0.6s-1.2-0.9-1.6-1.7c-0.4-0.7-0.6-1.6-0.6-2.6s0.2-1.9,0.6-2.6
	c0.4-0.7,0.9-1.3,1.6-1.7C520,370.4,520.8,370.2,521.7,370.2z M532.1,379.9c-0.9,0-1.7-0.2-2.4-0.6s-1.2-0.9-1.6-1.7
	c-0.4-0.7-0.6-1.6-0.6-2.6s0.2-1.9,0.6-2.6c0.4-0.7,0.9-1.3,1.6-1.7c0.7-0.4,1.4-0.6,2.3-0.6s1.6,0.2,2.2,0.6s1.1,0.9,1.4,1.5
	c0.3,0.6,0.5,1.3,0.5,2.1c0,0.2,0,0.4,0,0.6s0,0.3,0,0.5h-7.5v-1.3h6.9l-0.8,0.2c0-0.9-0.2-1.6-0.7-2.1s-1.1-0.7-1.9-0.7
	c-0.6,0-1.1,0.1-1.6,0.4c-0.4,0.3-0.8,0.7-1,1.2s-0.4,1.2-0.4,1.9c0,0.7,0.1,1.4,0.4,1.9c0.2,0.5,0.6,0.9,1,1.2
	c0.5,0.3,1,0.4,1.6,0.4c0.7,0,1.2-0.1,1.7-0.4c0.4-0.3,0.8-0.6,1-1.1l1.2,0.7c-0.2,0.4-0.5,0.8-0.9,1.1c-0.4,0.3-0.8,0.6-1.3,0.7
	C533.3,379.8,532.8,379.9,532.1,379.9z M542.4,379.9c-0.9,0-1.7-0.2-2.5-0.6s-1.3-0.9-1.8-1.6l1.3-0.9c0.3,0.6,0.7,1,1.2,1.3
	s1.2,0.5,1.9,0.5s1.2-0.1,1.5-0.4c0.4-0.3,0.6-0.6,0.6-1c0-0.3-0.1-0.5-0.2-0.7c-0.2-0.2-0.5-0.4-1-0.5l-2.2-0.5
	c-0.9-0.2-1.6-0.5-2-0.9s-0.6-1-0.6-1.6c0-0.5,0.1-1,0.4-1.4c0.3-0.4,0.7-0.8,1.2-1c0.5-0.3,1.2-0.4,1.9-0.4c0.9,0,1.7,0.2,2.3,0.5
	c0.6,0.4,1.1,0.9,1.4,1.5l-1.2,0.8c-0.2-0.5-0.6-0.9-1-1.2c-0.5-0.3-1-0.4-1.5-0.4c-0.4,0-0.8,0.1-1.2,0.2c-0.3,0.1-0.6,0.3-0.7,0.5
	c-0.2,0.2-0.2,0.5-0.2,0.7c0,0.3,0.1,0.5,0.3,0.8c0.2,0.2,0.5,0.4,1,0.5l2.3,0.5c0.9,0.2,1.5,0.5,1.8,0.9c0.4,0.4,0.5,0.9,0.5,1.5
	s-0.2,1.1-0.5,1.5s-0.8,0.8-1.3,1C543.7,379.8,543.1,379.9,542.4,379.9z M552.2,379.9c-0.9,0-1.7-0.2-2.5-0.6s-1.3-0.9-1.8-1.6
	l1.3-0.9c0.3,0.6,0.7,1,1.2,1.3s1.2,0.5,1.9,0.5s1.2-0.1,1.5-0.4c0.4-0.3,0.6-0.6,0.6-1c0-0.3-0.1-0.5-0.2-0.7s-0.5-0.4-1-0.5
	l-2.2-0.5c-0.9-0.2-1.6-0.5-2-0.9s-0.6-1-0.6-1.6c0-0.5,0.1-1,0.4-1.4c0.3-0.4,0.7-0.8,1.2-1c0.5-0.3,1.2-0.4,1.9-0.4
	c0.9,0,1.7,0.2,2.3,0.5c0.6,0.4,1.1,0.9,1.4,1.5l-1.2,0.8c-0.2-0.5-0.6-0.9-1-1.2c-0.5-0.3-1-0.4-1.5-0.4c-0.4,0-0.8,0.1-1.2,0.2
	c-0.3,0.1-0.6,0.3-0.7,0.5c-0.2,0.2-0.2,0.5-0.2,0.7c0,0.3,0.1,0.5,0.3,0.8c0.2,0.2,0.5,0.4,1,0.5l2.3,0.5c0.9,0.2,1.5,0.5,1.8,0.9
	c0.4,0.4,0.5,0.9,0.5,1.5s-0.2,1.1-0.5,1.5s-0.8,0.8-1.3,1C553.6,379.8,552.9,379.9,552.2,379.9z M567.5,368.8h-7.1v4h5.6v1.4h-5.6
	v5.5h-1.5v-12.3h8.6V368.8z M574.4,373.7c0-0.7-0.2-1.2-0.6-1.6s-0.9-0.6-1.6-0.6c-0.6,0-1.2,0.1-1.6,0.4c-0.4,0.3-0.8,0.7-1,1.3
	l-1.2-0.8c0.2-0.7,0.7-1.3,1.4-1.7c0.7-0.4,1.5-0.6,2.5-0.6c0.7,0,1.3,0.1,1.8,0.3c0.6,0.2,1,0.6,1.3,1c0.3,0.5,0.5,1.1,0.5,1.8v4.5
	c0,0.4,0.2,0.7,0.7,0.7c0.2,0,0.5,0,0.7-0.1l-0.1,1.2c-0.2,0.1-0.6,0.2-1,0.2s-0.7-0.1-1-0.2s-0.5-0.3-0.7-0.6
	c-0.2-0.3-0.2-0.6-0.2-1v-0.2h0.4c-0.1,0.5-0.4,0.9-0.8,1.2c-0.4,0.3-0.8,0.5-1.2,0.7c-0.4,0.1-0.9,0.2-1.3,0.2
	c-0.6,0-1.1-0.1-1.5-0.3s-0.8-0.5-1.1-0.8c-0.3-0.4-0.4-0.9-0.4-1.4c0-0.7,0.2-1.3,0.7-1.7c0.5-0.5,1.1-0.8,2-0.9l3.7-0.7v1.2
	l-3,0.6c-0.6,0.1-1.1,0.3-1.4,0.5c-0.3,0.2-0.4,0.5-0.4,0.9s0.2,0.7,0.5,0.9c0.3,0.2,0.7,0.4,1.3,0.4c0.4,0,0.7,0,1-0.1
	s0.6-0.2,0.9-0.4c0.3-0.2,0.5-0.4,0.6-0.7c0.2-0.3,0.2-0.6,0.2-1v-2.6H574.4z M583.4,370.2c0.6,0,1.2,0.1,1.7,0.3
	c0.5,0.2,0.9,0.5,1.3,0.9c0.4,0.4,0.7,0.8,0.9,1.3l-1.4,0.7c-0.2-0.6-0.5-1-0.9-1.4c-0.4-0.3-0.9-0.5-1.6-0.5
	c-0.6,0-1.2,0.1-1.6,0.4c-0.4,0.3-0.8,0.7-1,1.2s-0.3,1.2-0.3,1.9c0,0.7,0.1,1.4,0.3,1.9s0.6,0.9,1,1.2c0.4,0.3,1,0.4,1.6,0.4
	c0.5,0,0.9-0.1,1.2-0.2c0.4-0.1,0.6-0.4,0.9-0.6c0.2-0.3,0.4-0.6,0.5-1.1l1.4,0.5c-0.2,0.6-0.5,1.1-0.9,1.5s-0.8,0.7-1.3,0.9
	c-0.5,0.2-1.1,0.3-1.8,0.3c-0.9,0-1.6-0.2-2.3-0.6s-1.2-0.9-1.6-1.7c-0.4-0.7-0.6-1.6-0.6-2.6s0.2-1.9,0.6-2.6
	c0.4-0.7,0.9-1.3,1.6-1.7C581.8,370.4,582.5,370.2,583.4,370.2z M592.2,367.8v9.4c0,0.5,0.1,0.8,0.4,1c0.3,0.2,0.6,0.3,1,0.3
	s0.7-0.1,0.9-0.2c0.3-0.1,0.5-0.3,0.7-0.5l0.5,1.2c-0.3,0.3-0.6,0.5-1,0.6s-0.8,0.2-1.4,0.2c-0.5,0-0.9-0.1-1.3-0.2
	c-0.4-0.2-0.7-0.4-1-0.8c-0.2-0.4-0.4-0.9-0.4-1.5v-9.2L592.2,367.8z M595.6,370.4v1.3h-6.8v-1.3H595.6z M601.7,370.2
	c0.9,0,1.7,0.2,2.3,0.6c0.7,0.4,1.2,0.9,1.6,1.7c0.4,0.7,0.6,1.6,0.6,2.6s-0.2,1.9-0.6,2.6c-0.4,0.7-0.9,1.3-1.6,1.7
	c-0.7,0.4-1.5,0.6-2.3,0.6c-0.9,0-1.6-0.2-2.3-0.6s-1.2-0.9-1.6-1.7c-0.4-0.7-0.6-1.6-0.6-2.6s0.2-1.9,0.6-2.6
	c0.4-0.7,0.9-1.3,1.6-1.7C600,370.4,600.8,370.2,601.7,370.2z M601.7,371.5c-0.6,0-1.2,0.1-1.6,0.4c-0.4,0.3-0.8,0.7-1,1.2
	s-0.4,1.2-0.4,1.9c0,0.7,0.1,1.4,0.4,1.9c0.2,0.5,0.6,0.9,1,1.2c0.4,0.3,1,0.4,1.6,0.4s1.2-0.1,1.6-0.4c0.4-0.3,0.8-0.7,1-1.2
	c0.3-0.5,0.4-1.2,0.4-1.9c0-0.7-0.1-1.4-0.4-1.9c-0.2-0.5-0.6-0.9-1-1.2C602.8,371.7,602.3,371.5,601.7,371.5z M609,379.7v-9.3h1.2
	l0.2,1.5c0.3-0.6,0.6-1,1.1-1.3s1.1-0.4,1.8-0.4c0.2,0,0.3,0,0.5,0s0.4,0.1,0.5,0.1l-0.2,1.4c-0.1-0.1-0.3-0.1-0.5-0.1s-0.4,0-0.7,0
	c-0.4,0-0.8,0.1-1.2,0.3c-0.4,0.2-0.7,0.6-1,1s-0.4,1-0.4,1.7v5L609,379.7L609,379.7z M619.6,379.9c-0.9,0-1.7-0.2-2.5-0.6
	s-1.3-0.9-1.8-1.6l1.3-0.9c0.3,0.6,0.7,1,1.2,1.3s1.2,0.5,1.9,0.5s1.2-0.1,1.5-0.4c0.4-0.3,0.6-0.6,0.6-1c0-0.3-0.1-0.5-0.2-0.7
	c-0.2-0.2-0.5-0.4-1-0.5l-2.2-0.5c-0.9-0.2-1.6-0.5-2-0.9s-0.6-1-0.6-1.6c0-0.5,0.1-1,0.4-1.4c0.3-0.4,0.7-0.8,1.2-1
	c0.5-0.3,1.2-0.4,1.9-0.4c0.9,0,1.7,0.2,2.3,0.5c0.6,0.4,1.1,0.9,1.4,1.5l-1.2,0.8c-0.2-0.5-0.6-0.9-1-1.2c-0.5-0.3-1-0.4-1.5-0.4
	c-0.4,0-0.8,0.1-1.2,0.2c-0.3,0.1-0.6,0.3-0.7,0.5c-0.2,0.2-0.2,0.5-0.2,0.7c0,0.3,0.1,0.5,0.3,0.8c0.2,0.2,0.5,0.4,1,0.5l2.3,0.5
	c0.9,0.2,1.5,0.5,1.8,0.9c0.4,0.4,0.5,0.9,0.5,1.5s-0.2,1.1-0.5,1.5s-0.8,0.8-1.3,1C621,379.8,620.3,379.9,619.6,379.9z
	 M625.4,383.8l-0.9-0.9c0.8-0.8,1.5-1.5,2-2.4c0.5-0.8,0.8-1.7,1-2.6s0.3-1.9,0.3-2.9s-0.1-2-0.3-2.9s-0.6-1.8-1-2.6
	c-0.5-0.8-1.1-1.6-2-2.4l0.9-0.9c1.3,1.1,2.3,2.5,3,3.9c0.7,1.5,1,3.1,1,4.8c0,1.8-0.3,3.4-1,4.8
	C627.7,381.3,626.7,382.6,625.4,383.8z"/>
<path class="st1" d="M350.3,191.3v183.1h59.8"/>
<path class="st2" d="M423.4,139.1l-3.6-12.3h1.5l3,11l2.9-11h1.7l2.9,11l3-11h1.5l-3.6,12.3h-1.8l-2.2-8l-0.6-2.8l0,0l-0.6,2.8
	l-2.2,8H423.4z M442,139.3c-0.9,0-1.7-0.2-2.4-0.6c-0.7-0.4-1.2-0.9-1.6-1.7c-0.4-0.7-0.6-1.6-0.6-2.6s0.2-1.9,0.6-2.6
	c0.4-0.7,0.9-1.3,1.6-1.7s1.4-0.6,2.3-0.6s1.6,0.2,2.2,0.6c0.6,0.4,1.1,0.9,1.4,1.5s0.5,1.3,0.5,2.1c0,0.2,0,0.4,0,0.6
	c0,0.2,0,0.3,0,0.5h-7.5v-1.3h6.9l-0.8,0.2c0-0.9-0.2-1.6-0.7-2.1s-1.1-0.7-1.9-0.7c-0.6,0-1.1,0.1-1.6,0.4c-0.4,0.3-0.8,0.7-1,1.2
	s-0.4,1.2-0.4,1.9s0.1,1.4,0.4,1.9c0.2,0.5,0.6,0.9,1,1.2c0.5,0.3,1,0.4,1.6,0.4c0.7,0,1.2-0.1,1.7-0.4c0.4-0.3,0.8-0.6,1-1.1
	l1.2,0.7c-0.2,0.4-0.5,0.8-0.9,1.1s-0.8,0.6-1.3,0.7C443.2,139.2,442.6,139.3,442,139.3z M452.8,139.3c-0.9,0-1.7-0.2-2.4-0.6
	c-0.7-0.4-1.2-0.9-1.6-1.7c-0.4-0.7-0.6-1.6-0.6-2.6s0.2-1.9,0.6-2.6c0.4-0.7,0.9-1.3,1.6-1.7s1.4-0.6,2.3-0.6s1.6,0.2,2.2,0.6
	c0.6,0.4,1.1,0.9,1.4,1.5s0.5,1.3,0.5,2.1c0,0.2,0,0.4,0,0.6c0,0.2,0,0.3,0,0.5h-7.5v-1.3h6.9l-0.8,0.2c0-0.9-0.2-1.6-0.7-2.1
	s-1.1-0.7-1.9-0.7c-0.6,0-1.1,0.1-1.6,0.4c-0.4,0.3-0.8,0.7-1,1.2s-0.4,1.2-0.4,1.9s0.1,1.4,0.4,1.9c0.2,0.5,0.6,0.9,1,1.2
	c0.5,0.3,1,0.4,1.6,0.4c0.7,0,1.2-0.1,1.7-0.4c0.4-0.3,0.8-0.6,1-1.1l1.2,0.7c-0.2,0.4-0.5,0.8-0.9,1.1s-0.8,0.6-1.3,0.7
	C453.9,139.2,453.4,139.3,452.8,139.3z M467.8,129.8l-4,4l-0.3,0.4l-3.1,3v-1.9l5.6-5.6h1.8V129.8z M461.1,125.5v13.6h-1.5v-13.6
	H461.1z M463.9,133.1l4.1,6.1h-1.8l-3.6-5.2L463.9,133.1z M471.6,125.5v11.2c0,0.5,0.1,0.8,0.2,1c0.2,0.2,0.5,0.3,0.8,0.3
	c0.2,0,0.5,0,0.6,0c0.2,0,0.4-0.1,0.7-0.2l-0.2,1.3c-0.2,0.1-0.4,0.2-0.7,0.2c-0.2,0-0.5,0.1-0.7,0.1c-0.8,0-1.3-0.2-1.7-0.6
	c-0.4-0.4-0.5-1-0.5-1.9v-11.3h1.5V125.5z M483.1,129.8l-4.4,10.9c-0.2,0.6-0.5,1.1-0.8,1.5s-0.6,0.6-0.9,0.8s-0.7,0.2-1.2,0.2
	c-0.4,0-0.8-0.1-1.2-0.2c-0.4-0.1-0.7-0.3-0.9-0.5l0.4-1.3c0.2,0.2,0.5,0.4,0.8,0.5s0.6,0.2,0.8,0.2c0.3,0,0.6-0.1,0.9-0.3
	s0.6-0.6,0.8-1.2l0.5-1.2L477,137l-3-7.1h1.7l2.3,6.1l0.6,1.7l0.7-1.9l2.2-5.9h1.6V129.8z M492.8,127.1v9.4c0,0.5,0.1,0.8,0.4,1
	c0.3,0.2,0.6,0.3,1,0.3s0.7-0.1,0.9-0.2c0.3-0.1,0.5-0.3,0.7-0.5l0.5,1.2c-0.3,0.3-0.6,0.5-1,0.6s-0.8,0.2-1.4,0.2
	c-0.5,0-0.9-0.1-1.3-0.2c-0.4-0.2-0.7-0.4-1-0.8c-0.2-0.4-0.4-0.9-0.4-1.5v-9.2L492.8,127.1z M496.2,129.8v1.3h-6.8v-1.3H496.2z
	 M502.3,129.6c0.9,0,1.7,0.2,2.3,0.6c0.7,0.4,1.2,0.9,1.6,1.7c0.4,0.7,0.6,1.6,0.6,2.6s-0.2,1.9-0.6,2.6c-0.4,0.7-0.9,1.3-1.6,1.7
	c-0.7,0.4-1.5,0.6-2.3,0.6c-0.9,0-1.6-0.2-2.3-0.6s-1.2-0.9-1.6-1.7c-0.4-0.7-0.6-1.6-0.6-2.6s0.2-1.9,0.6-2.6
	c0.4-0.7,0.9-1.3,1.6-1.7S501.4,129.6,502.3,129.6z M502.3,130.9c-0.6,0-1.2,0.1-1.6,0.4c-0.4,0.3-0.8,0.7-1,1.2s-0.4,1.2-0.4,1.9
	s0.1,1.4,0.4,1.9c0.2,0.5,0.6,0.9,1,1.2s1,0.4,1.6,0.4s1.2-0.1,1.6-0.4c0.4-0.3,0.8-0.7,1-1.2s0.4-1.2,0.4-1.9s-0.1-1.4-0.4-1.9
	c-0.2-0.5-0.6-0.9-1-1.2C503.4,131,502.9,130.9,502.3,130.9z M509.6,143.1v-13.2h1.3l0.1,2.3l-0.2-0.3c0.2-0.4,0.4-0.8,0.7-1.1
	s0.7-0.6,1.2-0.8s1-0.3,1.5-0.3c0.8,0,1.5,0.2,2.1,0.6c0.6,0.4,1.2,0.9,1.5,1.7c0.4,0.7,0.6,1.6,0.6,2.6s-0.2,1.9-0.6,2.6
	c-0.4,0.7-0.9,1.3-1.5,1.7s-1.4,0.6-2.1,0.6s-1.4-0.2-2-0.6c-0.6-0.4-1-0.9-1.2-1.5l0.2-0.3v6H509.6z M514,138c0.9,0,1.6-0.3,2.1-1
	c0.5-0.6,0.8-1.5,0.8-2.6s-0.2-1.9-0.8-2.6s-1.2-1-2.1-1c-0.6,0-1.1,0.1-1.6,0.4c-0.5,0.3-0.8,0.7-1,1.2s-0.4,1.1-0.4,1.9
	s0.1,1.3,0.4,1.9s0.6,0.9,1,1.2C512.9,137.9,513.4,138,514,138z M522.1,128c-0.3,0-0.6-0.1-0.8-0.3s-0.3-0.5-0.3-0.8
	s0.1-0.6,0.3-0.8s0.5-0.3,0.8-0.3s0.6,0.1,0.8,0.3s0.3,0.5,0.3,0.8s-0.1,0.6-0.3,0.8C522.7,127.9,522.4,128,522.1,128z M522.8,129.8
	v9.3h-1.5v-9.3H522.8z M530.1,129.6c0.6,0,1.2,0.1,1.7,0.3s0.9,0.5,1.3,0.9c0.4,0.4,0.7,0.8,0.9,1.3l-1.4,0.7
	c-0.2-0.6-0.5-1-0.9-1.4c-0.4-0.3-0.9-0.5-1.6-0.5c-0.6,0-1.2,0.1-1.6,0.4c-0.4,0.3-0.8,0.7-1,1.2s-0.3,1.2-0.3,1.9s0.1,1.4,0.3,1.9
	s0.6,0.9,1,1.2s1,0.4,1.6,0.4c0.5,0,0.9-0.1,1.2-0.2s0.6-0.4,0.9-0.6c0.2-0.3,0.4-0.6,0.5-1.1l1.4,0.5c-0.2,0.6-0.5,1.1-0.9,1.5
	s-0.8,0.7-1.3,0.9s-1.1,0.3-1.8,0.3c-0.9,0-1.6-0.2-2.3-0.6s-1.2-0.9-1.6-1.7s-0.6-1.6-0.6-2.6s0.2-1.9,0.6-2.6s0.9-1.3,1.6-1.7
	S529.3,129.6,530.1,129.6z M540.1,139.3c-0.9,0-1.7-0.2-2.5-0.6c-0.8-0.4-1.3-0.9-1.8-1.6l1.3-0.9c0.3,0.6,0.7,1,1.2,1.3
	s1.2,0.5,1.9,0.5s1.2-0.1,1.5-0.4c0.4-0.3,0.6-0.6,0.6-1c0-0.3-0.1-0.5-0.2-0.7s-0.5-0.4-1-0.5l-2.2-0.5c-0.9-0.2-1.6-0.5-2-0.9
	s-0.6-1-0.6-1.6c0-0.5,0.1-1,0.4-1.4c0.3-0.4,0.7-0.8,1.2-1c0.5-0.3,1.2-0.4,1.9-0.4c0.9,0,1.7,0.2,2.3,0.5c0.6,0.4,1.1,0.9,1.4,1.5
	l-1.2,0.8c-0.2-0.5-0.6-0.9-1-1.2c-0.5-0.3-1-0.4-1.5-0.4c-0.4,0-0.8,0.1-1.2,0.2c-0.3,0.1-0.6,0.3-0.7,0.5
	c-0.2,0.2-0.2,0.5-0.2,0.7c0,0.3,0.1,0.5,0.3,0.8s0.5,0.4,1,0.5l2.3,0.5c0.9,0.2,1.5,0.5,1.8,0.9c0.4,0.4,0.5,0.9,0.5,1.5
	s-0.2,1.1-0.5,1.5s-0.8,0.8-1.3,1C541.4,139.2,540.8,139.3,540.1,139.3z"/>
<path class="st1" d="M355.9,124.3v9.5h54.2"/>
<path class="st1" d="M355.9,438.6v11.1h54.2"/>
<path class="st1" d="M307.4,417h-68.6V173.9V14.2h68.6"/>
<path class="st1" d="M238.8,102.7h68.6"/>
<path class="st1" d="M238.8,102.7h68.6"/>
<path class="st2" d="M13.4,286.8c-1,0-1.9-0.2-2.7-0.7s-1.5-1.2-2-2.2C8.2,283,8,281.8,8,280.6c0-1.3,0.3-2.4,0.8-3.4
	c0.5-0.9,1.2-1.6,2.1-2.1c0.9-0.5,1.8-0.7,2.8-0.7s1.8,0.3,2.6,0.8c0.7,0.5,1.2,1.2,1.5,2l-0.2,0.2v-8.2h1.9v17.5h-1.9l-0.2-2.9
	l0.3-0.1c-0.1,0.7-0.4,1.3-0.8,1.8c-0.4,0.5-0.9,0.8-1.6,1.1C14.7,286.6,14.1,286.8,13.4,286.8z M13.6,285.1c0.8,0,1.4-0.2,2-0.6
	c0.6-0.4,1-0.9,1.3-1.6s0.5-1.6,0.5-2.5s-0.2-1.7-0.5-2.3s-0.7-1.2-1.3-1.5c-0.6-0.4-1.2-0.5-1.9-0.5c-1.2,0-2.2,0.4-2.8,1.2
	c-0.7,0.8-1,1.9-1,3.3s0.3,2.5,1,3.3C11.5,284.7,12.4,285.1,13.6,285.1z M30.8,278.8c0-0.9-0.2-1.6-0.7-2.1s-1.2-0.7-2-0.7
	s-1.5,0.2-2.1,0.5c-0.6,0.4-1,0.9-1.3,1.7l-1.6-1c0.3-0.9,0.9-1.6,1.8-2.2c0.9-0.6,1.9-0.8,3.2-0.8c0.9,0,1.6,0.1,2.3,0.4
	s1.3,0.7,1.7,1.3c0.4,0.6,0.6,1.4,0.6,2.3v5.8c0,0.6,0.3,0.9,0.9,0.9c0.3,0,0.6,0,0.9-0.1l-0.1,1.5c-0.3,0.2-0.7,0.2-1.2,0.2
	s-0.9-0.1-1.2-0.3c-0.4-0.2-0.7-0.4-0.9-0.8s-0.3-0.8-0.3-1.4v-0.2l0.5,0.1c-0.2,0.6-0.5,1.1-1,1.5s-1,0.7-1.6,0.9
	c-0.6,0.2-1.1,0.3-1.7,0.3c-0.7,0-1.4-0.1-2-0.4c-0.6-0.2-1.1-0.6-1.5-1.1S23,284,23,283.3c0-0.9,0.3-1.6,0.9-2.2
	c0.6-0.6,1.4-1,2.5-1.2l4.8-0.9v1.6l-3.9,0.8c-0.8,0.2-1.4,0.4-1.8,0.7c-0.4,0.3-0.6,0.7-0.6,1.2s0.2,0.9,0.6,1.2
	c0.4,0.3,1,0.5,1.7,0.5c0.5,0,0.9-0.1,1.3-0.2c0.4-0.1,0.8-0.3,1.1-0.6c0.3-0.2,0.6-0.6,0.8-0.9c0.2-0.4,0.3-0.8,0.3-1.3L30.8,278.8
	L30.8,278.8z M43.2,286.8c-0.7,0-1.3-0.1-1.9-0.4c-0.6-0.2-1.1-0.6-1.5-1s-0.7-0.9-0.9-1.5l0.3-0.3l-0.2,2.9h-1.7V269h1.9v8.2
	l-0.2-0.4c0.3-0.8,0.9-1.4,1.6-1.9c0.8-0.5,1.6-0.7,2.6-0.7s1.9,0.2,2.7,0.8c0.8,0.5,1.5,1.2,2,2.1s0.8,2,0.8,3.4
	c0,1.3-0.3,2.4-0.8,3.3s-1.2,1.7-2,2.2C45.1,286.5,44.2,286.8,43.2,286.8z M43.1,285.1c1.2,0,2.1-0.4,2.8-1.2c0.7-0.8,1-1.9,1-3.3
	s-0.3-2.5-1-3.3s-1.6-1.2-2.8-1.2c-0.7,0-1.4,0.2-2,0.6s-1,0.9-1.3,1.6s-0.5,1.5-0.5,2.4s0.2,1.7,0.5,2.4c0.3,0.7,0.8,1.2,1.3,1.6
	C41.6,284.9,42.3,285.1,43.1,285.1z M52.4,286.5v-12H54l0.3,2c0.3-0.7,0.8-1.3,1.5-1.7c0.6-0.4,1.4-0.5,2.4-0.5c0.2,0,0.4,0,0.7,0
	s0.5,0.1,0.6,0.2l-0.3,1.8c-0.2-0.1-0.4-0.1-0.6-0.1s-0.5,0-0.9,0c-0.5,0-1,0.1-1.5,0.4s-0.9,0.7-1.2,1.3c-0.3,0.6-0.5,1.3-0.5,2.2
	v6.5L52.4,286.5L52.4,286.5z M68.9,278.8c0-0.9-0.2-1.6-0.7-2.1s-1.2-0.7-2-0.7s-1.5,0.2-2.1,0.5c-0.6,0.4-1,0.9-1.3,1.7l-1.6-1
	c0.3-0.9,0.9-1.6,1.8-2.2s1.9-0.8,3.2-0.8c0.9,0,1.6,0.1,2.3,0.4c0.7,0.3,1.3,0.7,1.7,1.3c0.4,0.6,0.6,1.4,0.6,2.3v5.8
	c0,0.6,0.3,0.9,0.9,0.9c0.3,0,0.6,0,0.9-0.1l-0.1,1.5c-0.3,0.2-0.7,0.2-1.2,0.2s-0.9-0.1-1.2-0.3c-0.4-0.2-0.7-0.4-0.9-0.8
	c-0.2-0.4-0.3-0.8-0.3-1.4v-0.2l0.5,0.1c-0.2,0.6-0.5,1.1-1,1.5s-1,0.7-1.6,0.9c-0.6,0.2-1.1,0.3-1.7,0.3c-0.7,0-1.4-0.1-2-0.4
	c-0.6-0.2-1.1-0.6-1.5-1.1s-0.5-1.1-0.5-1.8c0-0.9,0.3-1.6,0.9-2.2s1.4-1,2.5-1.2l4.8-0.9v1.6l-3.9,0.8c-0.8,0.2-1.4,0.4-1.8,0.7
	c-0.4,0.3-0.6,0.7-0.6,1.2s0.2,0.9,0.6,1.2c0.4,0.3,1,0.5,1.7,0.5c0.5,0,0.9-0.1,1.3-0.2s0.8-0.3,1.1-0.6c0.3-0.2,0.6-0.6,0.8-0.9
	c0.2-0.4,0.3-0.8,0.3-1.3L68.9,278.8L68.9,278.8z M76.4,283.7c0.5,0,0.8,0.1,1.1,0.4c0.3,0.3,0.4,0.7,0.4,1.1c0,0.5-0.1,0.8-0.4,1.1
	c-0.3,0.3-0.7,0.4-1.1,0.4c-0.5,0-0.8-0.1-1.1-0.4c-0.3-0.3-0.4-0.7-0.4-1.1c0-0.5,0.1-0.8,0.4-1.1C75.6,283.8,76,283.7,76.4,283.7z
	 M88.8,278.8c0-0.9-0.2-1.6-0.7-2.1s-1.2-0.7-2-0.7s-1.5,0.2-2.1,0.5c-0.6,0.4-1,0.9-1.3,1.7l-1.6-1c0.3-0.9,0.9-1.6,1.8-2.2
	s1.9-0.8,3.2-0.8c0.9,0,1.6,0.1,2.3,0.4c0.7,0.3,1.3,0.7,1.7,1.3c0.4,0.6,0.6,1.4,0.6,2.3v5.8c0,0.6,0.3,0.9,0.9,0.9
	c0.3,0,0.6,0,0.9-0.1l-0.1,1.5c-0.3,0.2-0.7,0.2-1.2,0.2s-0.9-0.1-1.2-0.3c-0.4-0.2-0.7-0.4-0.9-0.8c-0.2-0.4-0.3-0.8-0.3-1.4v-0.2
	l0.5,0.1c-0.2,0.6-0.5,1.1-1,1.5s-1,0.7-1.6,0.9c-0.6,0.2-1.1,0.3-1.7,0.3c-0.7,0-1.4-0.1-2-0.4c-0.6-0.2-1.1-0.6-1.5-1.1
	S81,284,81,283.3c0-0.9,0.3-1.6,0.9-2.2s1.4-1,2.5-1.2l4.8-0.9v1.6l-3.9,0.8c-0.8,0.2-1.4,0.4-1.8,0.7c-0.4,0.3-0.6,0.7-0.6,1.2
	s0.2,0.9,0.6,1.2c0.4,0.3,1,0.5,1.7,0.5c0.5,0,0.9-0.1,1.3-0.2s0.8-0.3,1.1-0.6c0.3-0.2,0.6-0.6,0.8-0.9c0.2-0.4,0.3-0.8,0.3-1.3
	L88.8,278.8L88.8,278.8z M96.4,272.2c-0.4,0-0.8-0.1-1-0.4c-0.3-0.3-0.4-0.6-0.4-1.1c0-0.4,0.1-0.8,0.4-1c0.3-0.3,0.6-0.4,1-0.4
	s0.8,0.1,1,0.4c0.3,0.3,0.4,0.6,0.4,1s-0.1,0.8-0.4,1.1C97.2,272.1,96.8,272.2,96.4,272.2z M97.3,274.5v12h-1.9v-12H97.3z"/>
<path class="st2" d="M11.3,296.5l0.5,0.5c-0.8,0.7-1.4,1.5-1.9,2.3s-0.8,1.7-1,2.7s-0.3,2-0.3,3.1s0.1,2.2,0.3,3.2
	c0.2,1,0.6,1.8,1,2.7c0.5,0.8,1.1,1.6,1.9,2.3l-0.5,0.5c-1.3-1.1-2.2-2.3-2.8-3.8c-0.6-1.4-0.9-3.1-0.9-4.9s0.3-3.4,0.9-4.9
	C9.1,298.8,10,297.6,11.3,296.5z M25.1,301.1h1l-3.2,9.3H22l-3-8.1l-2.9,8.1h-0.9l-3.2-9.3h1l2.6,8.2l2.9-8.2h0.9l2.9,8.2
	L25.1,301.1z M31.8,310.6c-0.9,0-1.6-0.2-2.3-0.6s-1.2-0.9-1.6-1.7c-0.4-0.7-0.6-1.6-0.6-2.6s0.2-1.9,0.6-2.6
	c0.4-0.7,0.9-1.3,1.5-1.7c0.7-0.4,1.4-0.6,2.2-0.6s1.6,0.2,2.2,0.6s1.1,0.9,1.4,1.6c0.3,0.7,0.5,1.4,0.5,2.3c0,0.1,0,0.2,0,0.3
	c0,0.1,0,0.2,0,0.3H28v-0.8h7.3l-0.5,0.1c0-1.1-0.3-1.9-0.8-2.5c-0.6-0.6-1.3-1-2.3-1c-0.7,0-1.3,0.2-1.8,0.5s-0.9,0.8-1.2,1.4
	s-0.4,1.3-0.4,2.2c0,0.8,0.1,1.6,0.4,2.2c0.3,0.6,0.7,1.1,1.2,1.4s1.1,0.5,1.8,0.5s1.3-0.2,1.8-0.5s0.9-0.7,1.2-1.3l0.8,0.4
	c-0.2,0.4-0.5,0.8-0.9,1.2c-0.4,0.3-0.8,0.6-1.3,0.7C32.9,310.5,32.4,310.6,31.8,310.6z M42.8,310.6c-0.6,0-1.1-0.1-1.6-0.3
	c-0.5-0.2-0.9-0.5-1.2-0.9s-0.6-0.9-0.8-1.4l0.1-0.2l-0.1,2.6h-0.8v-13.6h0.9v6.8l-0.1-0.2c0.2-0.8,0.7-1.4,1.3-1.8
	c0.6-0.5,1.4-0.7,2.2-0.7c0.8,0,1.5,0.2,2.2,0.6c0.6,0.4,1.1,0.9,1.5,1.7c0.4,0.7,0.6,1.6,0.6,2.6s-0.2,1.9-0.6,2.6
	s-0.9,1.3-1.5,1.7C44.3,310.4,43.6,310.6,42.8,310.6z M42.7,309.8c1.1,0,1.9-0.4,2.5-1.1s0.9-1.7,0.9-3c0-1.2-0.3-2.2-0.9-2.9
	c-0.6-0.7-1.4-1.1-2.5-1.1c-0.6,0-1.2,0.2-1.7,0.5s-0.9,0.8-1.2,1.4s-0.4,1.3-0.4,2.1c0,0.8,0.1,1.5,0.4,2.1
	c0.3,0.6,0.7,1.1,1.2,1.4C41.5,309.6,42,309.8,42.7,309.8z M52.9,310.6c-0.9,0-1.8-0.2-2.5-0.6s-1.2-0.9-1.5-1.7l0.8-0.5
	c0.2,0.6,0.6,1.1,1.2,1.5c0.6,0.3,1.3,0.5,2.1,0.5c0.8,0,1.5-0.2,1.9-0.5c0.5-0.3,0.7-0.8,0.7-1.3c0-0.4-0.1-0.7-0.3-0.9
	c-0.2-0.3-0.7-0.5-1.3-0.6l-2.2-0.5c-0.9-0.2-1.5-0.5-1.9-0.9s-0.6-0.9-0.6-1.5c0-0.5,0.1-0.9,0.4-1.3s0.7-0.7,1.2-1
	c0.5-0.2,1.2-0.4,1.9-0.4c0.9,0,1.7,0.2,2.3,0.6c0.6,0.4,1,0.9,1.3,1.6l-0.8,0.5c-0.2-0.7-0.5-1.1-1-1.4s-1.1-0.5-1.8-0.5
	c-0.5,0-1,0.1-1.4,0.2s-0.7,0.4-0.9,0.6c-0.2,0.3-0.3,0.6-0.3,0.9c0,0.4,0.1,0.7,0.4,1c0.2,0.3,0.7,0.5,1.3,0.6l2.2,0.5
	c0.9,0.2,1.5,0.5,1.8,0.9c0.4,0.4,0.5,0.8,0.5,1.4c0,0.5-0.2,1-0.5,1.4s-0.7,0.7-1.3,1S53.6,310.6,52.9,310.6z M59.6,299.3
	c-0.2,0-0.4-0.1-0.6-0.2c-0.1-0.1-0.2-0.3-0.2-0.6c0-0.2,0.1-0.4,0.2-0.6c0.1-0.1,0.3-0.2,0.6-0.2c0.2,0,0.4,0.1,0.6,0.2
	c0.1,0.1,0.2,0.3,0.2,0.6c0,0.2-0.1,0.4-0.2,0.6C60,299.2,59.9,299.3,59.6,299.3z M60.1,301.1v9.3h-0.9v-9.3H60.1z M65,298.5v9.5
	c0,0.6,0.1,1,0.4,1.3s0.7,0.5,1.2,0.5c0.4,0,0.7-0.1,0.9-0.2c0.3-0.1,0.5-0.3,0.7-0.5l0.3,0.8c-0.2,0.2-0.5,0.4-0.9,0.6
	c-0.4,0.1-0.8,0.2-1.2,0.2c-0.5,0-0.9-0.1-1.3-0.3c-0.4-0.2-0.7-0.5-0.9-0.8c-0.2-0.4-0.3-0.8-0.3-1.4v-9.3L65,298.5z M68.5,301.1
	v0.8h-6.3v-0.8H68.5z M74.3,310.6c-0.9,0-1.6-0.2-2.3-0.6c-0.7-0.4-1.2-0.9-1.6-1.7c-0.4-0.7-0.6-1.6-0.6-2.6s0.2-1.9,0.6-2.6
	s0.9-1.3,1.5-1.7c0.7-0.4,1.4-0.6,2.2-0.6c0.8,0,1.6,0.2,2.2,0.6s1.1,0.9,1.4,1.6s0.5,1.4,0.5,2.3c0,0.1,0,0.2,0,0.3
	c0,0.1,0,0.2,0,0.3h-7.7v-0.8h7.3l-0.5,0.1c0-1.1-0.3-1.9-0.8-2.5c-0.6-0.6-1.3-1-2.3-1c-0.7,0-1.3,0.2-1.8,0.5s-0.9,0.8-1.2,1.4
	c-0.3,0.6-0.4,1.3-0.4,2.2c0,0.8,0.1,1.6,0.4,2.2s0.7,1.1,1.2,1.4s1.1,0.5,1.8,0.5c0.7,0,1.3-0.2,1.8-0.5s0.9-0.7,1.2-1.3l0.8,0.4
	c-0.2,0.4-0.5,0.8-0.9,1.2c-0.4,0.3-0.8,0.6-1.3,0.7C75.4,310.5,74.8,310.6,74.3,310.6z M79.6,313.3l-0.5-0.5
	c0.8-0.7,1.4-1.5,1.9-2.3s0.8-1.7,1.1-2.7c0.2-1,0.3-2,0.3-3.2c0-1.1-0.1-2.2-0.3-3.1c-0.2-1-0.6-1.9-1.1-2.7
	c-0.5-0.8-1.1-1.6-1.9-2.3l0.5-0.5c1.3,1.1,2.2,2.3,2.8,3.8c0.6,1.4,0.9,3.1,0.9,4.9s-0.3,3.5-0.9,4.9
	C81.8,311,80.8,312.3,79.6,313.3z"/>
<path class="st2" d="M605.4,229.4l0.9,0.9c-0.8,0.8-1.5,1.5-2,2.4c-0.5,0.8-0.8,1.7-1,2.6s-0.3,1.9-0.3,2.9s0.1,2,0.3,2.9
	s0.6,1.8,1,2.6c0.5,0.8,1.1,1.6,2,2.4l-0.9,0.9c-1.3-1.1-2.3-2.5-3-3.9c-0.7-1.5-1-3.1-1-4.9s0.3-3.4,1-4.8
	C603.1,231.9,604.1,230.6,605.4,229.4z M612.9,231.1c0.8,0,1.6,0.2,2.2,0.5c0.6,0.3,1.1,0.7,1.4,1.3c0.4,0.6,0.5,1.2,0.5,2
	c0,0.8-0.2,1.4-0.5,2s-0.8,1-1.4,1.3c-0.6,0.3-1.3,0.5-2.2,0.5H610v4.8h-1.4v-12.3L612.9,231.1L612.9,231.1z M612.7,237.2
	c1,0,1.7-0.2,2.1-0.6c0.4-0.4,0.7-1,0.7-1.8c0-0.8-0.2-1.4-0.7-1.7c-0.4-0.4-1.2-0.6-2.1-0.6h-2.6v4.7H612.7z M619.7,243.4v-9.3h1.2
	l0.2,1.5c0.3-0.6,0.6-1,1.1-1.3s1.1-0.4,1.8-0.4c0.2,0,0.3,0,0.5,0s0.4,0.1,0.5,0.1l-0.2,1.4c-0.1-0.1-0.3-0.1-0.5-0.1s-0.4,0-0.7,0
	c-0.4,0-0.8,0.1-1.2,0.3c-0.4,0.2-0.7,0.6-1,1s-0.4,1-0.4,1.7v5h-1.3V243.4z M628,232.3c-0.3,0-0.6-0.1-0.8-0.3s-0.3-0.5-0.3-0.8
	s0.1-0.6,0.3-0.8s0.5-0.3,0.8-0.3s0.6,0.1,0.8,0.3s0.3,0.5,0.3,0.8s-0.1,0.6-0.3,0.8S628.4,232.3,628,232.3z M628.8,234.1v9.3h-1.5
	v-9.3H628.8z M638.4,234.1h1.6l-3.9,9.3h-1.5l-3.9-9.3h1.7l3,7.8L638.4,234.1z M647.2,237.4c0-0.7-0.2-1.2-0.6-1.6s-0.9-0.6-1.6-0.6
	c-0.6,0-1.2,0.1-1.6,0.4c-0.4,0.3-0.8,0.7-1,1.3l-1.2-0.8c0.2-0.7,0.7-1.3,1.4-1.7c0.7-0.4,1.5-0.6,2.5-0.6c0.7,0,1.3,0.1,1.8,0.3
	c0.6,0.2,1,0.6,1.3,1c0.3,0.5,0.5,1.1,0.5,1.8v4.5c0,0.4,0.2,0.7,0.7,0.7c0.2,0,0.5,0,0.7-0.1l-0.1,1.2c-0.2,0.1-0.6,0.2-1,0.2
	s-0.7-0.1-1-0.2s-0.5-0.3-0.7-0.6c-0.2-0.3-0.2-0.6-0.2-1v-0.2h0.4c-0.1,0.5-0.4,0.9-0.8,1.2c-0.4,0.3-0.8,0.5-1.2,0.7
	c-0.4,0.1-0.9,0.2-1.3,0.2c-0.6,0-1.1-0.1-1.5-0.3s-0.8-0.5-1.1-0.8c-0.3-0.4-0.4-0.9-0.4-1.4c0-0.7,0.2-1.3,0.7-1.7
	c0.5-0.5,1.1-0.8,2-0.9l3.7-0.7v1.2l-3,0.6c-0.6,0.1-1.1,0.3-1.4,0.5c-0.3,0.2-0.4,0.5-0.4,0.9s0.2,0.7,0.5,0.9
	c0.3,0.2,0.7,0.4,1.3,0.4c0.4,0,0.7,0,1-0.1s0.6-0.2,0.9-0.4c0.3-0.2,0.5-0.4,0.6-0.7c0.2-0.3,0.2-0.6,0.2-1v-2.6H647.2z
	 M654.1,231.5v9.4c0,0.5,0.1,0.8,0.4,1c0.3,0.2,0.6,0.3,1,0.3s0.7-0.1,0.9-0.2c0.3-0.1,0.5-0.3,0.7-0.5l0.5,1.2
	c-0.3,0.3-0.6,0.5-1,0.6s-0.8,0.2-1.4,0.2c-0.5,0-0.9-0.1-1.3-0.2c-0.4-0.2-0.7-0.4-1-0.8c-0.2-0.4-0.4-0.9-0.4-1.5v-9.2
	L654.1,231.5z M657.5,234.1v1.3h-6.8v-1.3H657.5z M663.6,243.6c-0.9,0-1.7-0.2-2.4-0.6s-1.2-0.9-1.6-1.7c-0.4-0.7-0.6-1.6-0.6-2.6
	s0.2-1.9,0.6-2.6c0.4-0.7,0.9-1.3,1.6-1.7c0.7-0.4,1.4-0.6,2.3-0.6c0.9,0,1.6,0.2,2.2,0.6c0.6,0.4,1.1,0.9,1.4,1.5
	c0.3,0.6,0.5,1.3,0.5,2.1c0,0.2,0,0.4,0,0.6s0,0.3,0,0.5h-7.5v-1.3h6.9l-0.8,0.2c0-0.9-0.2-1.6-0.7-2.1s-1.1-0.7-1.9-0.7
	c-0.6,0-1.1,0.1-1.6,0.4c-0.4,0.3-0.8,0.7-1,1.2s-0.4,1.2-0.4,1.9s0.1,1.4,0.4,1.9c0.2,0.5,0.6,0.9,1,1.2c0.5,0.3,1,0.4,1.6,0.4
	c0.7,0,1.2-0.1,1.7-0.4c0.4-0.3,0.8-0.6,1-1.1l1.2,0.7c-0.2,0.4-0.5,0.8-0.9,1.1c-0.4,0.3-0.8,0.6-1.3,0.7
	C664.8,243.6,664.2,243.6,663.6,243.6z M682.3,237.4c0-0.7-0.2-1.2-0.6-1.6s-0.9-0.6-1.6-0.6c-0.6,0-1.2,0.1-1.6,0.4
	c-0.4,0.3-0.8,0.7-1,1.3l-1.2-0.8c0.2-0.7,0.7-1.3,1.4-1.7c0.7-0.4,1.5-0.6,2.5-0.6c0.7,0,1.3,0.1,1.8,0.3c0.6,0.2,1,0.6,1.3,1
	c0.3,0.5,0.5,1.1,0.5,1.8v4.5c0,0.4,0.2,0.7,0.7,0.7c0.2,0,0.5,0,0.7-0.1l-0.1,1.2c-0.2,0.1-0.6,0.2-1,0.2s-0.7-0.1-1-0.2
	s-0.5-0.3-0.7-0.6c-0.2-0.3-0.2-0.6-0.2-1v-0.2h0.4c-0.1,0.5-0.4,0.9-0.8,1.2c-0.4,0.3-0.8,0.5-1.2,0.7c-0.4,0.1-0.9,0.2-1.3,0.2
	c-0.6,0-1.1-0.1-1.5-0.3s-0.8-0.5-1.1-0.8c-0.3-0.4-0.4-0.9-0.4-1.4c0-0.7,0.2-1.3,0.7-1.7c0.5-0.5,1.1-0.8,2-0.9l3.7-0.7v1.2
	l-3,0.6c-0.6,0.1-1.1,0.3-1.4,0.5c-0.3,0.2-0.4,0.5-0.4,0.9s0.2,0.7,0.5,0.9c0.3,0.2,0.7,0.4,1.3,0.4c0.4,0,0.7,0,1-0.1
	s0.6-0.2,0.9-0.4c0.3-0.2,0.5-0.4,0.6-0.7c0.2-0.3,0.2-0.6,0.2-1v-2.6H682.3z M687.4,243.4v-9.3h1.3l0.1,2.1l-0.2-0.2
	c0.2-0.5,0.5-0.9,0.8-1.2c0.3-0.3,0.7-0.5,1.2-0.7c0.4-0.1,0.9-0.2,1.4-0.2c0.7,0,1.3,0.1,1.8,0.4c0.6,0.2,1,0.6,1.3,1.2
	c0.3,0.5,0.5,1.2,0.5,2v6h-1.5V238c0-1-0.2-1.7-0.7-2.1c-0.4-0.4-1-0.6-1.6-0.6c-0.4,0-0.9,0.1-1.3,0.3c-0.4,0.2-0.8,0.6-1.1,1
	c-0.3,0.5-0.4,1.1-0.4,1.9v5L687.4,243.4L687.4,243.4z M702.6,243.6c-0.8,0-1.5-0.2-2.1-0.6s-1.2-0.9-1.5-1.7
	c-0.4-0.7-0.6-1.6-0.6-2.6s0.2-1.9,0.6-2.6s0.9-1.3,1.6-1.6c0.7-0.4,1.4-0.6,2.2-0.6s1.4,0.2,2,0.6c0.6,0.4,1,0.9,1.1,1.6l-0.2,0.1
	v-6.4h1.5v13.6h-1.3l-0.1-2.2l0.2-0.1c-0.1,0.6-0.3,1-0.6,1.4s-0.7,0.7-1.2,0.9C703.6,243.5,703.1,243.6,702.6,243.6z M702.7,242.3
	c0.6,0,1.1-0.1,1.6-0.4c0.4-0.3,0.8-0.7,1-1.3c0.2-0.6,0.4-1.2,0.4-2c0-0.7-0.1-1.3-0.4-1.8c-0.2-0.5-0.6-0.9-1-1.2
	c-0.4-0.3-0.9-0.4-1.5-0.4c-0.9,0-1.7,0.3-2.2,1c-0.5,0.6-0.8,1.5-0.8,2.6s0.3,1.9,0.8,2.6C701.1,242,701.8,242.3,702.7,242.3z
	 M720.4,243.6c-0.9,0-1.7-0.2-2.5-0.6s-1.3-0.9-1.8-1.6l1.3-0.9c0.3,0.6,0.7,1,1.2,1.3s1.2,0.5,1.9,0.5s1.2-0.1,1.5-0.4
	c0.4-0.3,0.6-0.6,0.6-1c0-0.3-0.1-0.5-0.2-0.7c-0.2-0.2-0.5-0.4-1-0.5l-2.2-0.5c-0.9-0.2-1.6-0.5-2-0.9s-0.6-1-0.6-1.6
	c0-0.5,0.1-1,0.4-1.4c0.3-0.4,0.7-0.8,1.2-1c0.5-0.3,1.2-0.4,1.9-0.4c0.9,0,1.7,0.2,2.3,0.5c0.6,0.4,1.1,0.9,1.4,1.5l-1.2,0.8
	c-0.2-0.5-0.6-0.9-1-1.2c-0.5-0.3-1-0.4-1.5-0.4c-0.4,0-0.8,0.1-1.2,0.2c-0.3,0.1-0.6,0.3-0.7,0.5c-0.2,0.2-0.2,0.5-0.2,0.7
	c0,0.3,0.1,0.5,0.3,0.8s0.5,0.4,1,0.5l2.3,0.5c0.9,0.2,1.5,0.5,1.8,0.9c0.4,0.4,0.5,0.9,0.5,1.5s-0.2,1.1-0.5,1.5s-0.8,0.8-1.3,1
	C721.7,243.5,721.1,243.6,720.4,243.6z M726.8,243.4v-13.6h1.5v5.7c0.3-0.6,0.8-1,1.3-1.2c0.5-0.2,1.1-0.4,1.8-0.4s1.3,0.1,1.8,0.4
	c0.6,0.2,1,0.6,1.3,1.2c0.3,0.5,0.5,1.2,0.5,2v6h-1.5V238c0-1-0.2-1.7-0.7-2.1c-0.4-0.4-1-0.6-1.6-0.6c-0.4,0-0.9,0.1-1.3,0.3
	s-0.8,0.6-1.1,1s-0.4,1.1-0.4,1.9v4.9L726.8,243.4L726.8,243.4z M743.8,237.4c0-0.7-0.2-1.2-0.6-1.6c-0.4-0.4-0.9-0.6-1.6-0.6
	c-0.6,0-1.2,0.1-1.6,0.4c-0.4,0.3-0.8,0.7-1,1.3l-1.2-0.8c0.2-0.7,0.7-1.3,1.4-1.7c0.7-0.4,1.5-0.6,2.5-0.6c0.7,0,1.3,0.1,1.8,0.3
	c0.6,0.2,1,0.6,1.3,1c0.3,0.5,0.5,1.1,0.5,1.8v4.5c0,0.4,0.2,0.7,0.7,0.7c0.2,0,0.5,0,0.7-0.1l-0.1,1.2c-0.3,0.1-0.6,0.2-1,0.2
	s-0.7-0.1-1-0.2s-0.5-0.3-0.7-0.6c-0.2-0.3-0.2-0.6-0.2-1v-0.2h0.4c-0.1,0.5-0.4,0.9-0.8,1.2c-0.4,0.3-0.8,0.5-1.2,0.7
	c-0.4,0.1-0.9,0.2-1.3,0.2c-0.6,0-1.1-0.1-1.5-0.3c-0.5-0.2-0.8-0.5-1.1-0.8c-0.3-0.4-0.4-0.9-0.4-1.4c0-0.7,0.2-1.3,0.7-1.7
	c0.5-0.5,1.1-0.8,2-0.9l3.7-0.7v1.2l-3,0.6c-0.6,0.1-1.1,0.3-1.4,0.5c-0.3,0.2-0.4,0.5-0.4,0.9s0.2,0.7,0.5,0.9
	c0.3,0.2,0.7,0.4,1.3,0.4c0.4,0,0.7,0,1-0.1s0.6-0.2,0.9-0.4c0.3-0.2,0.5-0.4,0.6-0.7c0.2-0.3,0.2-0.6,0.2-1v-2.6H743.8z
	 M748.9,243.4v-9.3h1.2l0.2,1.5c0.3-0.6,0.6-1,1.1-1.3s1.1-0.4,1.8-0.4c0.2,0,0.3,0,0.5,0s0.4,0.1,0.5,0.1l-0.2,1.4
	c-0.1-0.1-0.3-0.1-0.5-0.1s-0.4,0-0.7,0c-0.4,0-0.8,0.1-1.2,0.3c-0.4,0.2-0.7,0.6-1,1s-0.4,1-0.4,1.7v5h-1.3V243.4z M760.2,243.6
	c-0.9,0-1.7-0.2-2.4-0.6s-1.2-0.9-1.6-1.7c-0.4-0.7-0.6-1.6-0.6-2.6s0.2-1.9,0.6-2.6c0.4-0.7,0.9-1.3,1.6-1.7
	c0.7-0.4,1.4-0.6,2.3-0.6c0.9,0,1.6,0.2,2.2,0.6c0.6,0.4,1.1,0.9,1.4,1.5c0.3,0.6,0.5,1.3,0.5,2.1c0,0.2,0,0.4,0,0.6s0,0.3,0,0.5
	h-7.6v-1.3h6.9l-0.8,0.2c0-0.9-0.2-1.6-0.7-2.1s-1.1-0.7-1.9-0.7c-0.6,0-1.1,0.1-1.6,0.4c-0.4,0.3-0.8,0.7-1,1.2s-0.4,1.2-0.4,1.9
	c0,0.7,0.1,1.4,0.4,1.9c0.2,0.5,0.6,0.9,1,1.2c0.5,0.3,1,0.4,1.6,0.4c0.7,0,1.2-0.1,1.7-0.4c0.4-0.3,0.8-0.6,1-1.1l1.2,0.7
	c-0.2,0.4-0.5,0.8-0.9,1.1c-0.4,0.3-0.8,0.6-1.3,0.7C761.3,243.6,760.8,243.6,760.2,243.6z M770.7,243.6c-0.8,0-1.5-0.2-2.1-0.6
	s-1.2-0.9-1.5-1.7c-0.4-0.7-0.6-1.6-0.6-2.6s0.2-1.9,0.6-2.6c0.4-0.7,0.9-1.3,1.6-1.6c0.7-0.4,1.4-0.6,2.2-0.6s1.4,0.2,2,0.6
	c0.6,0.4,1,0.9,1.1,1.6l-0.2,0.1v-6.4h1.5v13.6H774l-0.1-2.2l0.2-0.1c-0.1,0.6-0.3,1-0.6,1.4s-0.7,0.7-1.2,0.9
	C771.7,243.5,771.2,243.6,770.7,243.6z M770.8,242.3c0.6,0,1.1-0.1,1.6-0.4c0.4-0.3,0.8-0.7,1-1.3c0.2-0.6,0.4-1.2,0.4-2
	c0-0.7-0.1-1.3-0.4-1.8c-0.2-0.5-0.6-0.9-1-1.2c-0.4-0.3-0.9-0.4-1.5-0.4c-0.9,0-1.7,0.3-2.2,1c-0.5,0.6-0.8,1.5-0.8,2.6
	s0.3,1.9,0.8,2.6C769.2,242,769.9,242.3,770.8,242.3z M778.9,247.5l-0.9-0.9c0.8-0.8,1.5-1.5,2-2.4c0.5-0.8,0.8-1.7,1-2.6
	s0.3-1.9,0.3-2.9s-0.1-2-0.3-2.9s-0.6-1.8-1-2.6c-0.5-0.8-1.1-1.6-2-2.4l0.9-0.9c1.3,1.1,2.3,2.5,3,3.9c0.7,1.5,1,3.1,1,4.8
	c0,1.8-0.3,3.4-1,4.8C781.2,245,780.2,246.3,778.9,247.5z"/>
<path class="st3" d="M617.4,438.6H639v21.6h-21.6V438.6z"/>
<g transform="matrix(0.047343307086614175 0.0 0.0 0.04734750656167979 700.8763506561679 476.7936761154856)">
	<g>
		<g>
			<defs>
				<rect id="SVGID_1_" x="-1535.1" y="-578.5" width="1" height="1"/>
			</defs>
			<clipPath id="SVGID_2_">
				<use xlink:href="#SVGID_1_"  style="overflow:visible;"/>
			</clipPath>
			<g class="st4">
				
					<image style="overflow:visible;enable-background:new    ;" width="486" height="465" xlink:href="6455C7C2E9A18C3.png"  transform="matrix(0.9609 0 0 0.9608 -1768.0938 -801.3314)">
				</image>
			</g>
		</g>
	</g>
</g>
<path class="st0" d="M48.6,396.6v9.7h-1.1v-6.1l0.1-2.5l0,0l-3.2,8.6h-1l-3.2-8.6l0,0l0.1,2.5v6.1h-1.1v-9.7H41l2.1,5.9l0.7,2.4l0,0
	l0.8-2.4l2.1-5.9H48.6z M59.3,396.6l-3.7,9.7h-1.3l-3.7-9.7h1.3l2.5,6.7l0.6,1.9l0.6-1.9l2.5-6.7H59.3z M64.7,396.6
	c0.7,0,1.2,0.1,1.7,0.4c0.5,0.2,0.9,0.6,1.1,1c0.3,0.4,0.4,1,0.4,1.6s-0.1,1.1-0.4,1.6c-0.3,0.4-0.7,0.8-1.1,1
	c-0.5,0.2-1,0.4-1.7,0.4h-2.2v3.8h-1.2v-9.7L64.7,396.6L64.7,396.6z M64.5,401.4c0.8,0,1.3-0.2,1.7-0.5c0.4-0.3,0.5-0.8,0.5-1.4
	s-0.2-1.1-0.5-1.4s-0.9-0.5-1.7-0.5h-2.1v3.7L64.5,401.4L64.5,401.4z"/>
<path class="st2" d="M42.7,429.1c0.7,0,1.2,0.1,1.7,0.4c0.5,0.2,0.9,0.6,1.1,1c0.3,0.4,0.4,1,0.4,1.6s-0.1,1.1-0.4,1.6
	c-0.3,0.4-0.7,0.8-1.1,1c-0.5,0.2-1,0.4-1.7,0.4h-2.2v3.8h-1.2v-9.7L42.7,429.1L42.7,429.1z M42.5,433.9c0.8,0,1.3-0.2,1.7-0.5
	c0.4-0.3,0.5-0.8,0.5-1.4s-0.2-1.1-0.5-1.4s-0.9-0.5-1.7-0.5h-2.1v3.7L42.5,433.9L42.5,433.9z M48,438.8v-7.3h1l0.2,1.2
	c0.2-0.4,0.5-0.8,0.9-1s0.9-0.3,1.5-0.3c0.1,0,0.3,0,0.4,0c0.2,0,0.3,0,0.4,0.1l-0.2,1.1c-0.1,0-0.2-0.1-0.4-0.1c-0.1,0-0.3,0-0.5,0
	c-0.3,0-0.6,0.1-0.9,0.3c-0.3,0.2-0.6,0.4-0.8,0.8c-0.2,0.4-0.3,0.8-0.3,1.4v4H48V438.8z M56.7,431.3c0.7,0,1.3,0.2,1.8,0.5
	s0.9,0.7,1.2,1.3c0.3,0.6,0.5,1.2,0.5,2s-0.2,1.5-0.5,2c-0.3,0.6-0.7,1-1.2,1.3s-1.1,0.5-1.8,0.5c-0.7,0-1.3-0.2-1.8-0.5
	s-1-0.7-1.3-1.3c-0.3-0.6-0.5-1.3-0.5-2c0-0.8,0.2-1.5,0.5-2c0.3-0.6,0.7-1,1.3-1.3C55.4,431.4,56.1,431.3,56.7,431.3z M56.7,432.3
	c-0.5,0-0.9,0.1-1.3,0.3c-0.4,0.2-0.6,0.5-0.8,1c-0.2,0.4-0.3,0.9-0.3,1.5s0.1,1.1,0.3,1.5c0.2,0.4,0.5,0.7,0.8,1
	c0.4,0.2,0.8,0.3,1.3,0.3s0.9-0.1,1.3-0.3c0.4-0.2,0.6-0.6,0.8-1c0.2-0.4,0.3-0.9,0.3-1.5s-0.1-1.1-0.3-1.5c-0.2-0.4-0.5-0.7-0.8-1
	C57.7,432.4,57.2,432.3,56.7,432.3z M65.3,438.9c-0.6,0-1.2-0.2-1.7-0.5c-0.5-0.3-0.9-0.7-1.2-1.3c-0.3-0.6-0.5-1.3-0.5-2
	c0-0.8,0.2-1.5,0.5-2c0.3-0.6,0.7-1,1.3-1.3c0.5-0.3,1.1-0.5,1.7-0.5s1.1,0.2,1.6,0.5c0.4,0.3,0.7,0.7,0.9,1.2l-0.1,0.1v-5H69v10.7
	h-1l-0.1-1.8l0.2-0.1c-0.1,0.4-0.2,0.8-0.5,1.1c-0.2,0.3-0.6,0.5-1,0.7C66.2,438.8,65.8,438.9,65.3,438.9z M65.5,437.9
	c0.5,0,0.9-0.1,1.2-0.3c0.3-0.2,0.6-0.6,0.8-1c0.2-0.4,0.3-0.9,0.3-1.5s-0.1-1-0.3-1.4c-0.2-0.4-0.4-0.7-0.8-0.9s-0.7-0.3-1.2-0.3
	c-0.7,0-1.3,0.3-1.7,0.8c-0.4,0.5-0.6,1.2-0.6,2s0.2,1.5,0.6,2C64.2,437.6,64.7,437.9,65.5,437.9z M74.3,438.9
	c-0.5,0-0.9-0.1-1.3-0.2c-0.4-0.2-0.8-0.5-1-0.9s-0.4-0.9-0.4-1.5v-4.8h1.2v4.5c0,0.7,0.2,1.2,0.5,1.5s0.8,0.4,1.4,0.4
	c0.3,0,0.5,0,0.8-0.1s0.5-0.2,0.7-0.4c0.2-0.2,0.4-0.5,0.5-0.8s0.2-0.7,0.2-1.1v-4h1.2v7.3h-1l-0.1-1.1c-0.2,0.4-0.6,0.8-1,1
	C75.4,438.8,74.9,438.9,74.3,438.9z M83.8,431.3c0.5,0,1,0.1,1.3,0.2c0.4,0.2,0.7,0.4,1,0.7c0.3,0.3,0.5,0.6,0.7,1l-1.1,0.5
	c-0.2-0.5-0.4-0.8-0.7-1.1c-0.3-0.2-0.7-0.4-1.2-0.4s-0.9,0.1-1.3,0.3c-0.4,0.2-0.6,0.5-0.8,1c-0.2,0.4-0.3,0.9-0.3,1.5
	s0.1,1.1,0.3,1.5c0.2,0.4,0.5,0.7,0.8,1c0.4,0.2,0.8,0.3,1.3,0.3c0.4,0,0.7-0.1,1-0.2s0.5-0.3,0.7-0.5s0.3-0.5,0.4-0.8l1.1,0.4
	c-0.2,0.5-0.4,0.8-0.7,1.2c-0.3,0.3-0.6,0.6-1,0.7c-0.4,0.2-0.9,0.2-1.4,0.2c-0.7,0-1.3-0.2-1.8-0.5s-1-0.7-1.3-1.3
	c-0.3-0.6-0.5-1.3-0.5-2c0-0.8,0.2-1.5,0.5-2c0.3-0.6,0.7-1,1.3-1.3C82.5,431.4,83.1,431.3,83.8,431.3z M90.7,429.4v7.4
	c0,0.4,0.1,0.6,0.3,0.8c0.2,0.2,0.5,0.3,0.8,0.3s0.5,0,0.7-0.1s0.4-0.2,0.6-0.4l0.4,1c-0.2,0.2-0.5,0.4-0.8,0.5s-0.7,0.2-1.1,0.2
	s-0.7-0.1-1-0.2s-0.6-0.3-0.8-0.6c-0.2-0.3-0.3-0.7-0.3-1.1v-7.3L90.7,429.4z M93.3,431.4v1H88v-1H93.3z"/>
<path class="st2" d="M42.1,456.9c-0.7,0-1.3-0.2-1.8-0.5s-1-0.7-1.3-1.3c-0.3-0.6-0.5-1.3-0.5-2c0-0.8,0.2-1.5,0.5-2
	c0.3-0.6,0.7-1,1.2-1.3s1.1-0.5,1.8-0.5c0.7,0,1.3,0.1,1.7,0.4c0.5,0.3,0.9,0.7,1.1,1.2c0.3,0.5,0.4,1.1,0.4,1.7c0,0.2,0,0.3,0,0.5
	c0,0.1,0,0.3,0,0.4h-5.9v-1h5.4l-0.6,0.1c0-0.7-0.2-1.2-0.6-1.6s-0.9-0.6-1.5-0.6c-0.5,0-0.9,0.1-1.2,0.3c-0.3,0.2-0.6,0.5-0.8,1
	c-0.2,0.4-0.3,0.9-0.3,1.5s0.1,1.1,0.3,1.5s0.5,0.7,0.8,1c0.4,0.2,0.8,0.3,1.3,0.3s1-0.1,1.3-0.3c0.3-0.2,0.6-0.5,0.8-0.8l0.9,0.5
	c-0.2,0.3-0.4,0.6-0.7,0.9c-0.3,0.2-0.6,0.4-1,0.6C43,456.8,42.6,456.9,42.1,456.9z M47.5,456.8v-7.3h1l0.1,1.6l-0.2-0.2
	c0.2-0.4,0.4-0.7,0.6-1c0.3-0.2,0.6-0.4,0.9-0.5c0.4-0.1,0.7-0.2,1.1-0.2c0.5,0,1,0.1,1.4,0.3c0.4,0.2,0.8,0.5,1,0.9
	c0.3,0.4,0.4,0.9,0.4,1.6v4.7h-1.2v-4.3c0-0.8-0.2-1.4-0.5-1.7c-0.3-0.3-0.8-0.5-1.3-0.5c-0.4,0-0.7,0.1-1.1,0.2
	c-0.4,0.2-0.6,0.4-0.9,0.8c-0.2,0.4-0.3,0.9-0.3,1.5v3.9h-1V456.8z M56.5,456.8v-10.7h1.2v4.5c0.3-0.4,0.6-0.8,1-0.9
	c0.4-0.2,0.9-0.3,1.4-0.3s1,0.1,1.4,0.3c0.4,0.2,0.8,0.5,1,0.9c0.3,0.4,0.4,0.9,0.4,1.6v4.7h-1.2v-4.3c0-0.8-0.2-1.4-0.5-1.7
	c-0.3-0.3-0.8-0.5-1.3-0.5c-0.4,0-0.7,0.1-1.1,0.2c-0.4,0.2-0.6,0.4-0.9,0.8s-0.3,0.9-0.3,1.5v3.9H56.5z M69.9,452
	c0-0.6-0.1-1-0.4-1.3s-0.7-0.5-1.2-0.5s-0.9,0.1-1.3,0.3c-0.3,0.2-0.6,0.6-0.8,1.1l-1-0.6c0.2-0.6,0.6-1,1.1-1.3s1.2-0.5,2-0.5
	c0.5,0,1,0.1,1.4,0.3c0.4,0.2,0.8,0.5,1,0.8c0.2,0.4,0.4,0.8,0.4,1.4v3.5c0,0.4,0.2,0.5,0.6,0.5c0.2,0,0.4,0,0.5-0.1l-0.1,0.9
	c-0.2,0.1-0.5,0.2-0.8,0.2s-0.5-0.1-0.8-0.2c-0.2-0.1-0.4-0.3-0.5-0.5s-0.2-0.5-0.2-0.8V455h0.3c-0.1,0.4-0.3,0.7-0.6,0.9
	c-0.3,0.2-0.6,0.4-1,0.5c-0.3,0.1-0.7,0.2-1,0.2c-0.4,0-0.8-0.1-1.2-0.2c-0.4-0.1-0.7-0.4-0.9-0.7c-0.2-0.3-0.3-0.7-0.3-1.1
	c0-0.6,0.2-1,0.5-1.4c0.4-0.4,0.9-0.6,1.5-0.7l2.9-0.6v1l-2.4,0.5c-0.5,0.1-0.8,0.2-1.1,0.4c-0.2,0.2-0.3,0.4-0.3,0.7
	c0,0.3,0.1,0.6,0.4,0.8c0.2,0.2,0.6,0.3,1,0.3c0.3,0,0.6,0,0.8-0.1c0.3-0.1,0.5-0.2,0.7-0.3c0.2-0.2,0.4-0.3,0.5-0.6
	c0.1-0.2,0.2-0.5,0.2-0.8V452H69.9z M73.9,456.8v-7.3h1l0.1,1.6l-0.2-0.2c0.2-0.4,0.4-0.7,0.6-1c0.3-0.2,0.6-0.4,0.9-0.5
	c0.4-0.1,0.7-0.2,1.1-0.2c0.5,0,1,0.1,1.4,0.3c0.4,0.2,0.8,0.5,1,0.9c0.3,0.4,0.4,0.9,0.4,1.6v4.7H79v-4.3c0-0.8-0.2-1.4-0.5-1.7
	c-0.3-0.3-0.8-0.5-1.3-0.5c-0.4,0-0.7,0.1-1.1,0.2c-0.4,0.2-0.6,0.4-0.9,0.8c-0.2,0.4-0.3,0.9-0.3,1.5v3.9h-1V456.8z M86,449.3
	c0.5,0,1,0.1,1.3,0.2s0.7,0.4,1,0.7c0.3,0.3,0.5,0.6,0.7,1l-1.1,0.5c-0.2-0.5-0.4-0.8-0.7-1.1c-0.3-0.2-0.7-0.4-1.2-0.4
	s-0.9,0.1-1.3,0.3s-0.6,0.5-0.8,1c-0.2,0.4-0.3,0.9-0.3,1.5s0.1,1.1,0.3,1.5c0.2,0.4,0.5,0.7,0.8,1s0.8,0.3,1.3,0.3
	c0.4,0,0.7-0.1,1-0.2s0.5-0.3,0.7-0.5s0.3-0.5,0.4-0.8l1.1,0.4c-0.2,0.5-0.4,0.8-0.7,1.2c-0.3,0.3-0.6,0.6-1,0.7
	c-0.4,0.2-0.9,0.2-1.4,0.2c-0.7,0-1.3-0.2-1.8-0.5s-1-0.7-1.3-1.3c-0.3-0.6-0.5-1.3-0.5-2c0-0.8,0.2-1.5,0.5-2
	c0.3-0.6,0.7-1,1.3-1.3C84.7,449.4,85.3,449.3,86,449.3z M94.2,456.9c-0.7,0-1.3-0.2-1.8-0.5s-1-0.7-1.3-1.3c-0.3-0.6-0.5-1.3-0.5-2
	c0-0.8,0.2-1.5,0.5-2c0.3-0.6,0.7-1,1.2-1.3s1.1-0.5,1.8-0.5c0.7,0,1.3,0.1,1.7,0.4c0.5,0.3,0.9,0.7,1.1,1.2
	c0.3,0.5,0.4,1.1,0.4,1.7c0,0.2,0,0.3,0,0.5c0,0.1,0,0.3,0,0.4h-5.9v-1h5.4l-0.6,0.1c0-0.7-0.2-1.2-0.6-1.6s-0.9-0.6-1.5-0.6
	c-0.5,0-0.9,0.1-1.2,0.3c-0.3,0.2-0.6,0.5-0.8,1c-0.2,0.4-0.3,0.9-0.3,1.5s0.1,1.1,0.3,1.5c0.2,0.4,0.5,0.7,0.8,1
	c0.4,0.2,0.8,0.3,1.3,0.3s1-0.1,1.3-0.3c0.3-0.2,0.6-0.5,0.8-0.8l0.9,0.5c-0.2,0.3-0.4,0.6-0.7,0.9c-0.3,0.2-0.6,0.4-1,0.6
	C95.2,456.8,94.7,456.9,94.2,456.9z M99.6,456.8v-7.3h1l0.1,1.1c0.3-0.4,0.6-0.8,1-1s0.9-0.3,1.3-0.3c0.5,0,1,0.1,1.5,0.4
	c0.5,0.2,0.8,0.6,1.1,1.1c0.2-0.3,0.4-0.6,0.7-0.8c0.3-0.2,0.6-0.4,0.9-0.5c0.3-0.1,0.7-0.2,1-0.2c0.5,0,0.9,0.1,1.3,0.3
	c0.4,0.2,0.8,0.5,1,0.9c0.3,0.4,0.4,0.9,0.4,1.6v4.7h-1.2v-4.6c0-0.7-0.2-1.1-0.5-1.4s-0.7-0.5-1.2-0.5c-0.4,0-0.7,0.1-1.1,0.3
	c-0.3,0.2-0.6,0.5-0.8,0.8c-0.2,0.4-0.3,0.8-0.3,1.3v4h-1.2v-4.6c0-0.7-0.2-1.1-0.5-1.4s-0.7-0.5-1.2-0.5c-0.3,0-0.7,0.1-1,0.3
	c-0.3,0.2-0.6,0.4-0.8,0.8c-0.2,0.4-0.3,0.9-0.3,1.5v3.9h-1.2V456.8z M116.7,456.9c-0.7,0-1.3-0.2-1.8-0.5s-1-0.7-1.3-1.3
	c-0.3-0.6-0.5-1.3-0.5-2c0-0.8,0.2-1.5,0.5-2c0.3-0.6,0.7-1,1.2-1.3s1.1-0.5,1.8-0.5s1.3,0.1,1.7,0.4c0.5,0.3,0.9,0.7,1.1,1.2
	c0.3,0.5,0.4,1.1,0.4,1.7c0,0.2,0,0.3,0,0.5c0,0.1,0,0.3,0,0.4h-5.9v-1h5.4l-0.6,0.1c0-0.7-0.2-1.2-0.6-1.6
	c-0.4-0.4-0.9-0.6-1.5-0.6c-0.5,0-0.9,0.1-1.2,0.3c-0.3,0.2-0.6,0.5-0.8,1c-0.2,0.4-0.3,0.9-0.3,1.5s0.1,1.1,0.3,1.5s0.5,0.7,0.8,1
	c0.4,0.2,0.8,0.3,1.3,0.3s1-0.1,1.3-0.3c0.3-0.2,0.6-0.5,0.8-0.8l0.9,0.5c-0.2,0.3-0.4,0.6-0.7,0.9c-0.3,0.2-0.6,0.4-1,0.6
	C117.6,456.8,117.2,456.9,116.7,456.9z M122.1,456.8v-7.3h1l0.1,1.6l-0.2-0.2c0.2-0.4,0.4-0.7,0.6-1c0.3-0.2,0.6-0.4,0.9-0.5
	c0.4-0.1,0.7-0.2,1.1-0.2c0.5,0,1,0.1,1.4,0.3c0.4,0.2,0.8,0.5,1,0.9c0.3,0.4,0.4,0.9,0.4,1.6v4.7h-1.2v-4.3c0-0.8-0.2-1.4-0.5-1.7
	c-0.3-0.3-0.8-0.5-1.3-0.5c-0.4,0-0.7,0.1-1.1,0.2c-0.4,0.2-0.6,0.4-0.9,0.8c-0.2,0.4-0.3,0.9-0.3,1.5v3.9h-1V456.8z M132.8,447.4
	v7.4c0,0.4,0.1,0.6,0.3,0.8c0.2,0.2,0.5,0.3,0.8,0.3s0.5,0,0.7-0.1s0.4-0.2,0.6-0.4l0.4,1c-0.2,0.2-0.5,0.4-0.8,0.5
	s-0.7,0.2-1.1,0.2c-0.4,0-0.7-0.1-1-0.2s-0.6-0.3-0.8-0.6c-0.2-0.3-0.3-0.7-0.3-1.1v-7.3L132.8,447.4z M135.4,449.4v1h-5.3v-1H135.4
	z M139.8,456.9c-0.7,0-1.4-0.2-2-0.5s-1.1-0.7-1.4-1.3l1-0.7c0.2,0.4,0.5,0.8,0.9,1.1c0.4,0.2,0.9,0.4,1.5,0.4
	c0.5,0,0.9-0.1,1.2-0.3c0.3-0.2,0.5-0.5,0.5-0.8c0-0.2-0.1-0.4-0.2-0.5c-0.1-0.2-0.4-0.3-0.8-0.4l-1.8-0.4c-0.7-0.1-1.2-0.4-1.5-0.7
	c-0.3-0.3-0.5-0.8-0.5-1.3c0-0.4,0.1-0.8,0.3-1.1c0.2-0.3,0.6-0.6,1-0.8c0.4-0.2,0.9-0.3,1.5-0.3c0.7,0,1.3,0.1,1.8,0.4
	s0.9,0.7,1.1,1.2l-1,0.6c-0.2-0.4-0.4-0.7-0.8-0.9c-0.4-0.2-0.7-0.3-1.1-0.3c-0.4,0-0.7,0.1-0.9,0.2s-0.4,0.2-0.6,0.4
	c-0.1,0.2-0.2,0.4-0.2,0.6s0.1,0.4,0.2,0.6c0.1,0.2,0.4,0.3,0.8,0.4l1.8,0.4c0.7,0.1,1.2,0.4,1.4,0.7c0.3,0.3,0.4,0.7,0.4,1.1
	c0,0.5-0.1,0.9-0.4,1.2c-0.2,0.3-0.6,0.6-1,0.8C140.9,456.8,140.4,456.9,139.8,456.9z"/>
<path class="st5" d="M10.4,401.5L10.4,401.5c0-3.8,3.1-6.9,6.9-6.9l0,0c1.8,0,3.6,0.7,4.9,2c1.3,1.3,2,3,2,4.9l0,0
	c0,3.8-3.1,6.9-6.9,6.9l0,0C13.4,408.4,10.4,405.3,10.4,401.5z"/>
<path class="st6" d="M10.7,434.1L10.7,434.1c0-3.8,3.1-6.9,6.9-6.9l0,0c1.8,0,3.6,0.7,4.9,2c1.3,1.3,2,3,2,4.9l0,0
	c0,3.8-3.1,6.9-6.9,6.9l0,0C13.8,441,10.7,437.9,10.7,434.1z"/>
<line class="st1" x1="162.5" y1="175.6" x2="307.4" y2="175.6"/>
<path class="st7" d="M651.3,365.5c-2.7,0-4.7,2.5-6.6,4.3c0.3,0,0.6-0.1,1-0.1c0.6,0,1.3,0.1,1.9,0.4c1-1,2.1-2.2,3.6-2.2
	c0.8,0,1.7,0.4,2.3,0.9c1.3,1.3,1.3,3.4,0,4.7l-3.4,3.4c-0.5,0.5-1.6,0.9-2.3,0.9c-1.8,0-2.7-1.2-3.4-2.6l-1.7,1.7
	c1,1.9,2.6,3.4,4.9,3.4c1.6,0,3-0.6,3.9-1.7l3.4-3.4c1.2-1.2,1.9-2.6,1.9-4.3C656.8,367.9,654.2,365.5,651.3,365.5L651.3,365.5z
	 M645.8,381.1l-1.2,1.2c-0.5,0.5-1.6,0.9-2.3,0.9c-0.8,0-1.7-0.4-2.3-0.9c-1.3-1.3-1.3-3.5,0-4.7l3.4-3.4c0.5-0.5,1.6-0.9,2.3-0.9
	c1.8,0,2.7,1.3,3.4,2.6l1.7-1.7c-1-1.9-2.6-3.4-4.9-3.4c-1.6,0-3,0.6-3.9,1.7l-3.4,3.4c-2.2,2.2-2.2,5.7,0,7.8
	c2.1,2.1,5.7,2.2,7.6,0l2.5-2.5c-0.4,0.1-0.8,0.1-1.2,0.1C646.8,381.4,646.3,381.4,645.8,381.1L645.8,381.1z"/>
<path class="st7" d="M633.4,441c-2.7,0-4.7,2.5-6.6,4.3c0.3,0,0.6-0.1,1-0.1c0.6,0,1.3,0.1,1.9,0.4c1-1,2.1-2.2,3.6-2.2
	c0.8,0,1.7,0.4,2.3,0.9c1.3,1.3,1.3,3.4,0,4.7l-3.4,3.4c-0.5,0.5-1.6,0.9-2.3,0.9c-1.8,0-2.7-1.2-3.4-2.6l-1.7,1.7
	c1,1.9,2.6,3.4,4.9,3.4c1.6,0,3-0.6,3.9-1.7l3.4-3.4c1.2-1.2,1.9-2.6,1.9-4.3C638.8,443.5,636.3,441,633.4,441L633.4,441z
	 M627.8,456.7l-1.2,1.2c-0.5,0.5-1.6,0.9-2.3,0.9c-0.8,0-1.7-0.4-2.3-0.9c-1.3-1.3-1.3-3.5,0-4.7l3.4-3.4c0.5-0.5,1.6-0.9,2.3-0.9
	c1.8,0,2.7,1.3,3.4,2.6l1.7-1.7c-1-1.9-2.6-3.4-4.9-3.4c-1.6,0-3,0.6-3.9,1.7l-3.4,3.4c-2.2,2.2-2.2,5.7,0,7.8
	c2.1,2.1,5.7,2.2,7.6,0l2.5-2.5c-0.4,0.1-0.8,0.1-1.2,0.1C628.9,456.9,628.4,456.9,627.8,456.7L627.8,456.7z"/>
</svg>
